<?xml version="1.0" encoding="utf-8" ?>
<!-- SPDX-License-Identifier: Apache-2.0 -->
<svg baseProfile="full" height="4096" version="1.1" viewBox="0 0 4096 4096" width="4096" xmlns="http://www.w3.org/2000/svg" xmlns:ev="http://www.w3.org/2001/xml-events" xmlns:xlink="http://www.w3.org/1999/xlink"><defs /><rect fill="black" height="100%" width="100%" x="0" y="0" /><path d="M 3058,2378 L 3057,2379 L 3032,2379 L 3031,2380 L 3009,2380 L 3008,2381 L 2984,2381 L 2983,2382 L 2958,2382 L 2957,2383 L 2932,2383 L 2931,2384 L 2907,2384 L 2906,2385 L 2883,2385 L 2882,2386 L 2856,2386 L 2855,2387 L 2836,2387 L 2835,2388 L 2810,2388 L 2809,2389 L 2785,2389 L 2784,2390 L 2758,2390 L 2757,2391 L 2734,2391 L 2733,2392 L 2712,2392 L 2711,2393 L 2689,2393 L 2688,2394 L 2664,2394 L 2663,2395 L 2644,2395 L 2643,2396 L 2621,2396 L 2620,2397 L 2599,2397 L 2598,2398 L 2576,2398 L 2575,2399 L 2555,2399 L 2554,2400 L 2532,2400 L 2531,2401 L 2510,2401 L 2509,2402 L 2483,2402 L 2482,2403 L 2460,2403 L 2459,2404 L 2436,2404 L 2435,2405 L 2413,2405 L 2412,2406 L 2387,2406 L 2386,2407 L 2365,2407 L 2364,2408 L 2344,2408 L 2343,2409 L 2320,2409 L 2319,2410 L 2296,2410 L 2295,2411 L 2272,2411 L 2271,2412 L 2241,2412 L 2240,2413 L 2216,2413 L 2215,2414 L 2192,2414 L 2191,2415 L 2168,2415 L 2167,2416 L 2141,2416 L 2140,2417 L 2118,2417 L 2117,2418 L 2093,2418 L 2092,2419 L 2068,2419 L 2067,2420 L 2054,2420 L 2053,2419 L 2029,2419 L 2028,2418 L 2013,2418 L 2012,2417 L 2001,2417 L 2000,2416 L 1992,2416 L 1991,2415 L 1986,2415 L 1985,2414 L 1980,2414 L 1979,2413 L 1975,2413 L 1974,2412 L 1971,2412 L 1972,2412 L 1975,2415 L 1976,2415 L 1981,2420 L 1981,2421 L 2001,2441 L 2002,2441 L 2012,2451 L 2013,2451 L 2038,2476 L 2039,2476 L 2040,2477 L 2040,2478 L 2041,2479 L 2042,2479 L 2073,2510 L 2074,2510 L 2100,2536 L 2101,2536 L 2134,2569 L 2135,2569 L 2147,2581 L 2148,2581 L 2167,2600 L 2168,2600 L 2203,2635 L 2204,2635 L 2214,2645 L 2215,2645 L 2216,2646 L 2216,2647 L 2217,2647 L 2249,2679 L 2250,2679 L 2251,2680 L 2251,2681 L 2254,2684 L 2255,2684 L 2256,2685 L 2256,2686 L 2257,2687 L 2258,2687 L 2272,2701 L 2273,2701 L 2286,2714 L 2287,2714 L 2302,2729 L 2303,2729 L 2304,2730 L 2304,2731 L 2305,2731 L 2339,2765 L 2340,2765 L 2350,2775 L 2351,2775 L 2391,2815 L 2392,2815 L 2408,2831 L 2409,2831 L 2421,2843 L 2422,2843 L 2458,2879 L 2459,2879 L 2460,2880 L 2460,2881 L 2461,2881 L 2464,2884 L 2464,2885 L 2465,2885 L 2480,2900 L 2481,2900 L 2510,2929 L 2511,2929 L 2512,2930 L 2512,2931 L 2513,2931 L 2516,2934 L 2516,2935 L 2517,2935 L 2539,2957 L 2540,2957 L 2558,2975 L 2559,2975 L 2560,2976 L 2560,2977 L 2565,2982 L 2566,2982 L 2603,3019 L 2604,3019 L 2605,3020 L 2605,3021 L 2606,3021 L 2641,3056 L 2642,3056 L 2648,3062 L 2648,3063 L 2649,3064 L 2650,3064 L 2651,3065 L 2651,3066 L 2652,3066 L 2653,3067 L 2653,3068 L 2654,3069 L 2667,3069 L 2668,3068 L 2676,3068 L 2677,3067 L 2684,3067 L 2685,3066 L 2692,3066 L 2693,3065 L 2698,3065 L 2699,3064 L 2703,3064 L 2704,3063 L 2709,3063 L 2710,3062 L 2714,3062 L 2715,3061 L 2719,3061 L 2720,3060 L 2723,3060 L 2724,3059 L 2727,3059 L 2728,3058 L 2731,3058 L 2732,3057 L 2735,3057 L 2736,3056 L 2739,3056 L 2740,3055 L 2743,3055 L 2744,3054 L 2746,3054 L 2747,3053 L 2749,3053 L 2750,3052 L 2753,3052 L 2754,3051 L 2756,3051 L 2757,3050 L 2759,3050 L 2760,3049 L 2762,3049 L 2763,3048 L 2765,3048 L 2766,3047 L 2769,3047 L 2770,3046 L 2772,3046 L 2773,3045 L 2774,3045 L 2775,3044 L 2777,3044 L 2778,3043 L 2779,3043 L 2780,3042 L 2782,3042 L 2783,3041 L 2784,3041 L 2785,3040 L 2787,3040 L 2788,3039 L 2789,3039 L 2790,3038 L 2791,3038 L 2792,3037 L 2794,3037 L 2795,3036 L 2796,3036 L 2797,3035 L 2798,3035 L 2799,3034 L 2800,3034 L 2801,3033 L 2802,3033 L 2803,3032 L 2805,3032 L 2806,3031 L 2807,3031 L 2808,3030 L 2809,3030 L 2810,3029 L 2811,3029 L 2812,3028 L 2814,3028 L 2815,3027 L 2816,3027 L 2817,3026 L 2818,3026 L 2819,3025 L 2820,3025 L 2821,3024 L 2822,3024 L 2823,3023 L 2824,3023 L 2825,3022 L 2826,3022 L 2827,3021 L 2828,3021 L 2829,3020 L 2830,3020 L 2831,3019 L 2832,3019 L 2833,3018 L 2834,3018 L 2835,3017 L 2836,3017 L 2837,3016 L 2838,3016 L 2840,3014 L 2841,3014 L 2842,3013 L 2843,3013 L 2844,3012 L 2845,3012 L 2847,3010 L 2848,3010 L 2849,3009 L 2850,3009 L 2852,3007 L 2853,3007 L 2854,3006 L 2855,3006 L 2857,3004 L 2858,3004 L 2860,3002 L 2861,3002 L 2863,3000 L 2864,3000 L 2866,2998 L 2867,2998 L 2869,2996 L 2870,2996 L 2872,2994 L 2873,2994 L 2875,2992 L 2876,2992 L 2878,2990 L 2879,2990 L 2882,2987 L 2883,2987 L 2885,2985 L 2886,2985 L 2889,2982 L 2890,2982 L 2893,2979 L 2894,2979 L 2898,2975 L 2899,2975 L 2904,2970 L 2905,2970 L 2910,2965 L 2911,2965 L 2916,2960 L 2917,2960 L 2926,2951 L 2927,2951 L 2951,2927 L 2951,2926 L 2958,2919 L 2958,2918 L 2963,2913 L 2963,2912 L 2967,2908 L 2967,2907 L 2972,2902 L 2972,2901 L 2976,2897 L 2976,2896 L 2979,2893 L 2979,2892 L 2982,2889 L 2982,2888 L 2985,2885 L 2985,2884 L 2988,2881 L 2988,2880 L 2990,2878 L 2990,2877 L 2992,2875 L 2992,2874 L 2994,2872 L 2994,2871 L 2996,2869 L 2996,2868 L 2998,2866 L 2998,2865 L 3000,2863 L 3000,2862 L 3002,2860 L 3002,2859 L 3004,2857 L 3004,2856 L 3006,2854 L 3006,2853 L 3008,2851 L 3008,2850 L 3009,2849 L 3009,2848 L 3011,2846 L 3011,2845 L 3012,2844 L 3012,2843 L 3014,2841 L 3014,2840 L 3015,2839 L 3015,2838 L 3016,2837 L 3016,2836 L 3017,2835 L 3017,2834 L 3019,2832 L 3019,2831 L 3020,2830 L 3020,2829 L 3021,2828 L 3021,2827 L 3022,2826 L 3022,2825 L 3023,2824 L 3023,2823 L 3024,2822 L 3024,2821 L 3025,2820 L 3025,2819 L 3026,2818 L 3026,2817 L 3027,2816 L 3027,2815 L 3028,2814 L 3028,2813 L 3029,2812 L 3029,2810 L 3030,2809 L 3030,2808 L 3031,2807 L 3031,2806 L 3032,2805 L 3032,2804 L 3033,2803 L 3033,2802 L 3034,2801 L 3034,2799 L 3035,2798 L 3035,2797 L 3036,2796 L 3036,2795 L 3037,2794 L 3037,2792 L 3038,2791 L 3038,2790 L 3039,2789 L 3039,2787 L 3040,2786 L 3040,2784 L 3041,2783 L 3041,2782 L 3042,2781 L 3042,2780 L 3043,2779 L 3043,2777 L 3044,2776 L 3044,2774 L 3045,2773 L 3045,2771 L 3046,2770 L 3046,2768 L 3047,2767 L 3047,2765 L 3048,2764 L 3048,2762 L 3049,2761 L 3049,2759 L 3050,2758 L 3050,2756 L 3051,2755 L 3051,2753 L 3052,2752 L 3052,2750 L 3053,2749 L 3053,2746 L 3054,2745 L 3054,2743 L 3055,2742 L 3055,2739 L 3056,2738 L 3056,2736 L 3057,2735 L 3057,2732 L 3058,2731 L 3058,2728 L 3059,2727 L 3059,2724 L 3060,2723 L 3060,2720 L 3061,2719 L 3061,2715 L 3062,2714 L 3062,2710 L 3063,2709 L 3063,2705 L 3064,2704 L 3064,2700 L 3065,2699 L 3065,2694 L 3066,2693 L 3066,2688 L 3067,2687 L 3067,2681 L 3068,2680 L 3068,2673 L 3069,2672 L 3069,2664 L 3070,2663 L 3070,2651 L 3071,2650 L 3071,2378 Z M 2972,2458 L 2973,2457 L 2995,2457 L 2996,2458 L 2996,2639 L 2995,2640 L 2995,2654 L 2994,2655 L 2994,2663 L 2993,2664 L 2993,2672 L 2992,2673 L 2992,2679 L 2991,2680 L 2991,2685 L 2990,2686 L 2990,2690 L 2989,2691 L 2989,2695 L 2988,2696 L 2988,2700 L 2987,2701 L 2987,2705 L 2986,2706 L 2986,2709 L 2985,2710 L 2985,2713 L 2984,2714 L 2984,2717 L 2983,2718 L 2983,2720 L 2982,2721 L 2982,2724 L 2981,2725 L 2981,2727 L 2980,2728 L 2980,2730 L 2979,2731 L 2979,2733 L 2978,2734 L 2978,2737 L 2977,2738 L 2977,2740 L 2976,2741 L 2976,2742 L 2975,2743 L 2975,2745 L 2974,2746 L 2974,2748 L 2973,2749 L 2973,2751 L 2972,2752 L 2972,2753 L 2971,2754 L 2971,2756 L 2970,2757 L 2970,2758 L 2969,2759 L 2969,2761 L 2968,2762 L 2968,2763 L 2967,2764 L 2967,2765 L 2966,2766 L 2966,2768 L 2965,2769 L 2965,2770 L 2964,2771 L 2964,2772 L 2963,2773 L 2963,2774 L 2962,2775 L 2962,2777 L 2961,2778 L 2961,2779 L 2960,2780 L 2960,2781 L 2959,2782 L 2959,2783 L 2958,2784 L 2958,2785 L 2957,2786 L 2957,2787 L 2956,2788 L 2956,2789 L 2955,2790 L 2955,2791 L 2954,2792 L 2954,2793 L 2953,2794 L 2953,2795 L 2952,2796 L 2952,2797 L 2951,2798 L 2951,2799 L 2949,2801 L 2949,2802 L 2948,2803 L 2948,2804 L 2947,2805 L 2947,2806 L 2945,2808 L 2945,2809 L 2944,2810 L 2944,2811 L 2942,2813 L 2942,2814 L 2940,2816 L 2940,2817 L 2939,2818 L 2939,2819 L 2937,2821 L 2937,2822 L 2935,2824 L 2935,2825 L 2933,2827 L 2933,2828 L 2931,2830 L 2931,2831 L 2929,2833 L 2929,2834 L 2926,2837 L 2926,2838 L 2924,2840 L 2924,2841 L 2920,2845 L 2920,2846 L 2917,2849 L 2917,2850 L 2913,2854 L 2913,2855 L 2908,2860 L 2908,2861 L 2902,2867 L 2902,2868 L 2892,2878 L 2892,2879 L 2890,2881 L 2889,2881 L 2888,2882 L 2888,2883 L 2885,2886 L 2884,2886 L 2884,2887 L 2881,2890 L 2880,2890 L 2880,2891 L 2879,2892 L 2878,2892 L 2868,2902 L 2867,2902 L 2860,2909 L 2859,2909 L 2855,2913 L 2854,2913 L 2851,2916 L 2850,2916 L 2846,2920 L 2845,2920 L 2842,2923 L 2841,2923 L 2839,2925 L 2838,2925 L 2836,2927 L 2835,2927 L 2833,2929 L 2832,2929 L 2829,2932 L 2828,2932 L 2826,2934 L 2825,2934 L 2823,2936 L 2822,2936 L 2821,2937 L 2820,2937 L 2818,2939 L 2817,2939 L 2815,2941 L 2814,2941 L 2813,2942 L 2812,2942 L 2810,2944 L 2809,2944 L 2808,2945 L 2807,2945 L 2805,2947 L 2804,2947 L 2803,2948 L 2802,2948 L 2801,2949 L 2800,2949 L 2798,2951 L 2797,2951 L 2796,2952 L 2795,2952 L 2794,2953 L 2793,2953 L 2792,2954 L 2791,2954 L 2790,2955 L 2789,2955 L 2788,2956 L 2787,2956 L 2786,2957 L 2785,2957 L 2784,2958 L 2783,2958 L 2782,2959 L 2781,2959 L 2780,2960 L 2779,2960 L 2778,2961 L 2777,2961 L 2776,2962 L 2774,2962 L 2773,2963 L 2772,2963 L 2771,2964 L 2770,2964 L 2769,2965 L 2768,2965 L 2767,2966 L 2766,2966 L 2765,2967 L 2763,2967 L 2762,2968 L 2761,2968 L 2760,2969 L 2758,2969 L 2757,2970 L 2755,2970 L 2754,2971 L 2753,2971 L 2752,2972 L 2750,2972 L 2749,2973 L 2748,2973 L 2747,2974 L 2745,2974 L 2744,2975 L 2742,2975 L 2741,2976 L 2739,2976 L 2738,2977 L 2736,2977 L 2735,2978 L 2733,2978 L 2732,2979 L 2729,2979 L 2728,2980 L 2726,2980 L 2725,2981 L 2723,2981 L 2722,2982 L 2720,2982 L 2719,2983 L 2716,2983 L 2715,2984 L 2712,2984 L 2711,2985 L 2708,2985 L 2707,2986 L 2704,2986 L 2703,2987 L 2699,2987 L 2698,2988 L 2694,2988 L 2693,2989 L 2690,2989 L 2689,2990 L 2682,2990 L 2681,2989 L 2680,2989 L 2679,2988 L 2679,2987 L 2678,2987 L 2676,2985 L 2676,2984 L 2675,2984 L 2641,2950 L 2640,2950 L 2639,2949 L 2639,2948 L 2638,2948 L 2610,2920 L 2609,2920 L 2578,2889 L 2577,2889 L 2548,2860 L 2547,2860 L 2519,2832 L 2518,2832 L 2490,2804 L 2489,2804 L 2487,2802 L 2487,2801 L 2486,2801 L 2465,2780 L 2464,2780 L 2463,2779 L 2463,2778 L 2462,2778 L 2448,2764 L 2447,2764 L 2410,2727 L 2409,2727 L 2393,2711 L 2392,2711 L 2391,2710 L 2391,2709 L 2390,2709 L 2372,2691 L 2371,2691 L 2370,2690 L 2370,2689 L 2369,2689 L 2350,2670 L 2349,2670 L 2348,2669 L 2348,2668 L 2347,2668 L 2322,2643 L 2321,2643 L 2306,2628 L 2305,2628 L 2303,2626 L 2303,2625 L 2302,2624 L 2301,2624 L 2277,2600 L 2276,2600 L 2275,2599 L 2275,2598 L 2274,2598 L 2252,2576 L 2251,2576 L 2229,2554 L 2228,2554 L 2227,2553 L 2227,2552 L 2226,2552 L 2209,2535 L 2208,2535 L 2207,2534 L 2207,2533 L 2206,2533 L 2185,2512 L 2184,2512 L 2165,2493 L 2165,2492 L 2166,2491 L 2170,2491 L 2171,2490 L 2192,2490 L 2193,2489 L 2222,2489 L 2223,2488 L 2245,2488 L 2246,2487 L 2271,2487 L 2272,2486 L 2295,2486 L 2296,2485 L 2321,2485 L 2322,2484 L 2346,2484 L 2347,2483 L 2370,2483 L 2371,2482 L 2396,2482 L 2397,2481 L 2420,2481 L 2421,2480 L 2445,2480 L 2446,2479 L 2470,2479 L 2471,2478 L 2495,2478 L 2496,2477 L 2518,2477 L 2519,2476 L 2544,2476 L 2545,2475 L 2569,2475 L 2570,2474 L 2591,2474 L 2592,2473 L 2615,2473 L 2616,2472 L 2639,2472 L 2640,2471 L 2661,2471 L 2662,2470 L 2687,2470 L 2688,2469 L 2710,2469 L 2711,2468 L 2732,2468 L 2733,2467 L 2758,2467 L 2759,2466 L 2782,2466 L 2783,2465 L 2804,2465 L 2805,2464 L 2827,2464 L 2828,2463 L 2851,2463 L 2852,2462 L 2871,2462 L 2872,2461 L 2895,2461 L 2896,2460 L 2917,2460 L 2918,2459 L 2944,2459 L 2945,2458 Z M 1746,2274 L 1746,2276 L 1747,2277 L 1747,2303 L 1748,2304 L 1748,2332 L 1749,2333 L 1749,2353 L 1750,2354 L 1750,2378 L 1751,2379 L 1751,2401 L 1752,2402 L 1752,2425 L 1753,2426 L 1753,2444 L 1754,2445 L 1754,2467 L 1755,2468 L 1755,2490 L 1756,2491 L 1756,2508 L 1757,2509 L 1757,2527 L 1758,2528 L 1758,2549 L 1759,2550 L 1759,2570 L 1760,2571 L 1760,2593 L 1761,2594 L 1761,2615 L 1762,2616 L 1762,2635 L 1763,2636 L 1763,2655 L 1764,2656 L 1764,2677 L 1765,2678 L 1765,2703 L 1766,2704 L 1766,2723 L 1767,2724 L 1767,2745 L 1768,2746 L 1768,2765 L 1769,2766 L 1769,2788 L 1770,2789 L 1770,2809 L 1771,2810 L 1771,2831 L 1772,2832 L 1772,2851 L 1773,2852 L 1773,2874 L 1774,2875 L 1774,2903 L 1775,2904 L 1775,2923 L 1776,2924 L 1776,2946 L 1777,2947 L 1777,2967 L 1778,2968 L 1778,2990 L 1779,2991 L 1779,3015 L 1780,3016 L 1780,3044 L 1781,3045 L 1781,3070 L 1782,3071 L 2570,3071 L 2557,3058 L 2556,3058 L 2555,3057 L 2555,3056 L 2554,3056 L 2526,3028 L 2525,3028 L 2505,3008 L 2504,3008 L 2476,2980 L 2475,2980 L 2454,2959 L 2453,2959 L 2422,2928 L 2421,2928 L 2405,2912 L 2404,2912 L 2403,2911 L 2403,2910 L 2402,2910 L 2380,2888 L 2379,2888 L 2367,2876 L 2367,2875 L 2364,2872 L 2363,2872 L 2337,2846 L 2336,2846 L 2335,2845 L 2335,2844 L 2334,2844 L 2321,2831 L 2320,2831 L 2319,2830 L 2319,2829 L 2318,2828 L 2317,2828 L 2289,2800 L 2288,2800 L 2268,2780 L 2267,2780 L 2246,2759 L 2245,2759 L 2217,2731 L 2216,2731 L 2215,2730 L 2215,2729 L 2214,2728 L 2213,2728 L 2186,2701 L 2185,2701 L 2183,2699 L 2183,2698 L 2182,2698 L 2157,2673 L 2156,2673 L 2134,2651 L 2133,2651 L 2113,2631 L 2112,2631 L 2111,2630 L 2111,2629 L 2110,2628 L 2109,2628 L 2108,2627 L 2108,2626 L 2107,2626 L 2087,2606 L 2086,2606 L 2066,2586 L 2065,2586 L 2064,2585 L 2064,2584 L 2063,2584 L 2031,2552 L 2030,2552 L 2012,2534 L 2011,2534 L 1981,2504 L 1980,2504 L 1979,2503 L 1979,2502 L 1978,2502 L 1959,2483 L 1958,2483 L 1941,2466 L 1940,2466 L 1939,2465 L 1939,2464 L 1937,2462 L 1936,2462 L 1935,2461 L 1935,2460 L 1934,2460 L 1922,2448 L 1921,2448 L 1904,2431 L 1903,2431 L 1876,2404 L 1875,2404 L 1855,2384 L 1854,2384 L 1820,2350 L 1819,2350 L 1795,2326 L 1794,2326 L 1775,2307 L 1775,2306 L 1764,2295 L 1764,2294 L 1756,2286 L 1756,2285 L 1750,2279 L 1750,2278 Z M 1831,2467 L 1832,2466 L 1859,2493 L 1860,2493 L 1861,2494 L 1861,2495 L 1862,2495 L 1877,2510 L 1878,2510 L 1893,2525 L 1894,2525 L 1928,2559 L 1929,2559 L 1947,2577 L 1948,2577 L 1949,2578 L 1949,2579 L 1950,2579 L 1978,2607 L 1979,2607 L 1980,2608 L 1980,2609 L 1981,2609 L 2011,2639 L 2012,2639 L 2022,2649 L 2023,2649 L 2024,2650 L 2024,2651 L 2025,2651 L 2046,2672 L 2047,2672 L 2048,2673 L 2048,2674 L 2049,2675 L 2050,2675 L 2051,2676 L 2051,2677 L 2052,2677 L 2053,2678 L 2053,2679 L 2054,2679 L 2056,2681 L 2056,2682 L 2057,2682 L 2060,2685 L 2060,2686 L 2061,2687 L 2062,2687 L 2064,2689 L 2064,2690 L 2065,2690 L 2081,2706 L 2082,2706 L 2099,2723 L 2100,2723 L 2136,2759 L 2137,2759 L 2153,2775 L 2154,2775 L 2155,2776 L 2155,2777 L 2156,2777 L 2166,2787 L 2167,2787 L 2168,2788 L 2168,2789 L 2169,2789 L 2203,2823 L 2204,2823 L 2217,2836 L 2218,2836 L 2233,2851 L 2234,2851 L 2235,2852 L 2235,2853 L 2236,2853 L 2237,2854 L 2237,2855 L 2238,2855 L 2240,2857 L 2240,2858 L 2241,2859 L 2242,2859 L 2270,2887 L 2271,2887 L 2289,2905 L 2290,2905 L 2313,2928 L 2314,2928 L 2342,2956 L 2343,2956 L 2344,2957 L 2344,2958 L 2345,2958 L 2362,2975 L 2363,2975 L 2364,2976 L 2364,2977 L 2365,2977 L 2383,2995 L 2382,2996 L 1854,2996 L 1853,2995 L 1853,2975 L 1852,2974 L 1852,2952 L 1851,2951 L 1851,2924 L 1850,2923 L 1850,2904 L 1849,2903 L 1849,2882 L 1848,2881 L 1848,2860 L 1847,2859 L 1847,2837 L 1846,2836 L 1846,2815 L 1845,2814 L 1845,2788 L 1844,2787 L 1844,2768 L 1843,2767 L 1843,2746 L 1842,2745 L 1842,2724 L 1841,2723 L 1841,2700 L 1840,2699 L 1840,2677 L 1839,2676 L 1839,2656 L 1838,2655 L 1838,2634 L 1837,2633 L 1837,2608 L 1836,2607 L 1836,2585 L 1835,2584 L 1835,2563 L 1834,2562 L 1834,2540 L 1833,2539 L 1833,2515 L 1832,2514 L 1832,2490 L 1831,2489 Z M 1682,1989 L 1680,1991 L 1680,1992 L 1667,2005 L 1667,2006 L 1659,2014 L 1659,2015 L 1653,2021 L 1653,2022 L 1648,2027 L 1648,2028 L 1643,2033 L 1643,2034 L 1637,2040 L 1637,2041 L 1632,2046 L 1632,2047 L 1626,2053 L 1626,2054 L 1621,2059 L 1621,2060 L 1616,2065 L 1616,2066 L 1609,2073 L 1609,2074 L 1601,2082 L 1601,2083 L 1594,2090 L 1594,2091 L 1588,2097 L 1588,2098 L 1580,2106 L 1580,2107 L 1574,2113 L 1574,2114 L 1568,2120 L 1568,2121 L 1563,2126 L 1563,2127 L 1562,2128 L 1561,2128 L 1561,2129 L 1556,2134 L 1556,2135 L 1550,2141 L 1550,2142 L 1543,2149 L 1543,2150 L 1536,2157 L 1536,2158 L 1528,2166 L 1528,2167 L 1520,2175 L 1520,2176 L 1513,2183 L 1513,2184 L 1507,2190 L 1507,2191 L 1500,2198 L 1500,2199 L 1494,2205 L 1494,2206 L 1488,2212 L 1488,2213 L 1483,2218 L 1483,2219 L 1477,2225 L 1477,2226 L 1468,2235 L 1468,2236 L 1460,2244 L 1460,2245 L 1454,2251 L 1454,2252 L 1449,2257 L 1449,2258 L 1441,2266 L 1441,2267 L 1435,2273 L 1435,2274 L 1429,2280 L 1429,2281 L 1424,2286 L 1424,2287 L 1418,2293 L 1418,2294 L 1410,2302 L 1410,2303 L 1403,2310 L 1403,2311 L 1396,2318 L 1396,2319 L 1389,2326 L 1389,2327 L 1382,2334 L 1382,2335 L 1375,2342 L 1375,2343 L 1369,2349 L 1369,2350 L 1362,2357 L 1362,2358 L 1356,2364 L 1356,2365 L 1349,2372 L 1349,2373 L 1340,2382 L 1340,2383 L 1330,2393 L 1330,2394 L 1324,2400 L 1324,2401 L 1319,2406 L 1319,2407 L 1312,2414 L 1312,2415 L 1306,2421 L 1306,2422 L 1300,2428 L 1300,2429 L 1294,2435 L 1294,2436 L 1287,2443 L 1287,2444 L 1280,2451 L 1280,2452 L 1274,2458 L 1274,2459 L 1267,2466 L 1267,2467 L 1261,2473 L 1261,2474 L 1254,2481 L 1254,2482 L 1247,2489 L 1247,2490 L 1241,2496 L 1241,2497 L 1237,2501 L 1237,2502 L 1231,2508 L 1231,2509 L 1224,2516 L 1224,2517 L 1218,2523 L 1218,2524 L 1212,2530 L 1212,2531 L 1206,2537 L 1206,2538 L 1199,2545 L 1199,2546 L 1193,2552 L 1193,2553 L 1188,2558 L 1188,2559 L 1182,2565 L 1182,2566 L 1176,2572 L 1176,2573 L 1169,2580 L 1169,2581 L 1163,2587 L 1163,2588 L 1156,2595 L 1156,2596 L 1149,2603 L 1149,2604 L 1143,2610 L 1143,2611 L 1136,2618 L 1136,2619 L 1129,2626 L 1129,2627 L 1123,2633 L 1123,2634 L 1117,2640 L 1117,2641 L 1111,2647 L 1111,2648 L 1106,2653 L 1106,2654 L 1100,2660 L 1100,2661 L 1094,2667 L 1094,2668 L 1088,2674 L 1088,2675 L 1081,2682 L 1081,2683 L 1074,2690 L 1074,2691 L 1066,2699 L 1066,2700 L 1060,2706 L 1060,2707 L 1052,2715 L 1052,2716 L 1045,2723 L 1045,2724 L 1039,2730 L 1039,2736 L 1040,2737 L 1040,2740 L 1041,2741 L 1041,2744 L 1042,2745 L 1042,2748 L 1043,2749 L 1043,2751 L 1044,2752 L 1044,2754 L 1045,2755 L 1045,2757 L 1046,2758 L 1046,2760 L 1047,2761 L 1047,2763 L 1048,2764 L 1048,2766 L 1049,2767 L 1049,2769 L 1050,2770 L 1050,2772 L 1051,2773 L 1051,2774 L 1052,2775 L 1052,2777 L 1053,2778 L 1053,2780 L 1054,2781 L 1054,2782 L 1055,2783 L 1055,2785 L 1056,2786 L 1056,2787 L 1057,2788 L 1057,2790 L 1058,2791 L 1058,2792 L 1059,2793 L 1059,2795 L 1060,2796 L 1060,2797 L 1061,2798 L 1061,2799 L 1062,2800 L 1062,2801 L 1063,2802 L 1063,2804 L 1064,2805 L 1064,2806 L 1065,2807 L 1065,2808 L 1066,2809 L 1066,2810 L 1067,2811 L 1067,2812 L 1068,2813 L 1068,2814 L 1069,2815 L 1069,2816 L 1070,2817 L 1070,2819 L 1072,2821 L 1072,2823 L 1074,2825 L 1074,2826 L 1075,2827 L 1075,2828 L 1076,2829 L 1076,2830 L 1077,2831 L 1077,2832 L 1078,2833 L 1078,2834 L 1080,2836 L 1080,2837 L 1081,2838 L 1081,2839 L 1082,2840 L 1082,2841 L 1084,2843 L 1084,2844 L 1085,2845 L 1085,2846 L 1087,2848 L 1087,2849 L 1088,2850 L 1088,2851 L 1090,2853 L 1090,2854 L 1092,2856 L 1092,2857 L 1094,2859 L 1094,2860 L 1096,2862 L 1096,2863 L 1097,2864 L 1097,2865 L 1099,2867 L 1099,2868 L 1101,2870 L 1101,2871 L 1103,2873 L 1103,2874 L 1106,2877 L 1106,2878 L 1108,2880 L 1108,2881 L 1110,2883 L 1110,2884 L 1112,2886 L 1112,2887 L 1115,2890 L 1115,2891 L 1119,2895 L 1119,2896 L 1122,2899 L 1122,2900 L 1126,2904 L 1126,2905 L 1130,2909 L 1130,2910 L 1136,2916 L 1136,2917 L 1144,2925 L 1144,2926 L 1172,2954 L 1173,2954 L 1180,2961 L 1181,2961 L 1186,2966 L 1187,2966 L 1192,2971 L 1193,2971 L 1197,2975 L 1198,2975 L 1201,2978 L 1202,2978 L 1205,2981 L 1206,2981 L 1209,2984 L 1210,2984 L 1212,2986 L 1213,2986 L 1216,2989 L 1217,2989 L 1219,2991 L 1220,2991 L 1222,2993 L 1223,2993 L 1225,2995 L 1226,2995 L 1228,2997 L 1229,2997 L 1231,2999 L 1232,2999 L 1233,3000 L 1234,3000 L 1236,3002 L 1237,3002 L 1239,3004 L 1240,3004 L 1242,3006 L 1243,3006 L 1244,3007 L 1245,3007 L 1247,3009 L 1248,3009 L 1249,3010 L 1250,3010 L 1252,3012 L 1253,3012 L 1254,3013 L 1255,3013 L 1256,3014 L 1257,3014 L 1259,3016 L 1260,3016 L 1261,3017 L 1262,3017 L 1263,3018 L 1264,3018 L 1265,3019 L 1266,3019 L 1267,3020 L 1268,3020 L 1269,3021 L 1270,3021 L 1271,3022 L 1272,3022 L 1273,3023 L 1274,3023 L 1275,3024 L 1276,3024 L 1277,3025 L 1278,3025 L 1279,3026 L 1280,3026 L 1281,3027 L 1282,3027 L 1283,3028 L 1284,3028 L 1285,3029 L 1286,3029 L 1287,3030 L 1288,3030 L 1289,3031 L 1291,3031 L 1292,3032 L 1293,3032 L 1294,3033 L 1295,3033 L 1296,3034 L 1297,3034 L 1298,3035 L 1300,3035 L 1301,3036 L 1302,3036 L 1303,3037 L 1304,3037 L 1305,3038 L 1307,3038 L 1308,3039 L 1309,3039 L 1310,3040 L 1312,3040 L 1313,3041 L 1314,3041 L 1315,3042 L 1317,3042 L 1318,3043 L 1320,3043 L 1321,3044 L 1322,3044 L 1323,3045 L 1325,3045 L 1326,3046 L 1328,3046 L 1329,3047 L 1331,3047 L 1332,3048 L 1335,3048 L 1336,3049 L 1338,3049 L 1339,3050 L 1341,3050 L 1342,3051 L 1344,3051 L 1345,3052 L 1348,3052 L 1349,3053 L 1351,3053 L 1352,3054 L 1354,3054 L 1355,3055 L 1358,3055 L 1359,3056 L 1362,3056 L 1363,3057 L 1366,3057 L 1367,3058 L 1370,3058 L 1371,3059 L 1375,3059 L 1376,3060 L 1379,3060 L 1380,3061 L 1384,3061 L 1385,3062 L 1389,3062 L 1390,3063 L 1394,3063 L 1395,3064 L 1399,3064 L 1400,3065 L 1405,3065 L 1406,3066 L 1411,3066 L 1412,3067 L 1419,3067 L 1420,3068 L 1428,3068 L 1429,3069 L 1442,3069 L 1443,3070 L 1465,3070 L 1466,3071 L 1721,3071 L 1721,3058 L 1720,3057 L 1720,3036 L 1719,3035 L 1719,3014 L 1718,3013 L 1718,2992 L 1717,2991 L 1717,2966 L 1716,2965 L 1716,2944 L 1715,2943 L 1715,2920 L 1714,2919 L 1714,2900 L 1713,2899 L 1713,2879 L 1712,2878 L 1712,2859 L 1711,2858 L 1711,2836 L 1710,2835 L 1710,2815 L 1709,2814 L 1709,2792 L 1708,2791 L 1708,2768 L 1707,2767 L 1707,2747 L 1706,2746 L 1706,2725 L 1705,2724 L 1705,2699 L 1704,2698 L 1704,2677 L 1703,2676 L 1703,2656 L 1702,2655 L 1702,2635 L 1701,2634 L 1701,2610 L 1700,2609 L 1700,2588 L 1699,2587 L 1699,2565 L 1698,2564 L 1698,2544 L 1697,2543 L 1697,2517 L 1696,2516 L 1696,2498 L 1695,2497 L 1695,2476 L 1694,2475 L 1694,2458 L 1693,2457 L 1693,2438 L 1692,2437 L 1692,2408 L 1691,2407 L 1691,2384 L 1690,2383 L 1690,2364 L 1689,2363 L 1689,2341 L 1688,2340 L 1688,2318 L 1687,2317 L 1687,2298 L 1686,2297 L 1686,2277 L 1685,2276 L 1685,2256 L 1684,2255 L 1684,2236 L 1683,2235 L 1683,2208 L 1682,2207 L 1682,2189 L 1681,2188 L 1681,2163 L 1680,2162 L 1680,2141 L 1679,2140 L 1679,2116 L 1678,2115 L 1678,2093 L 1677,2092 L 1677,2027 L 1678,2026 L 1678,2014 L 1679,2013 L 1679,2007 L 1680,2006 L 1680,2001 L 1681,2000 L 1681,1996 L 1682,1995 L 1682,1991 L 1683,1990 L 1683,1989 Z M 1606,2193 L 1607,2193 L 1608,2194 L 1608,2218 L 1609,2219 L 1609,2247 L 1610,2248 L 1610,2271 L 1611,2272 L 1611,2295 L 1612,2296 L 1612,2319 L 1613,2320 L 1613,2343 L 1614,2344 L 1614,2362 L 1615,2363 L 1615,2385 L 1616,2386 L 1616,2411 L 1617,2412 L 1617,2435 L 1618,2436 L 1618,2459 L 1619,2460 L 1619,2482 L 1620,2483 L 1620,2508 L 1621,2509 L 1621,2534 L 1622,2535 L 1622,2557 L 1623,2558 L 1623,2578 L 1624,2579 L 1624,2602 L 1625,2603 L 1625,2623 L 1626,2624 L 1626,2645 L 1627,2646 L 1627,2667 L 1628,2668 L 1628,2689 L 1629,2690 L 1629,2707 L 1630,2708 L 1630,2727 L 1631,2728 L 1631,2745 L 1632,2746 L 1632,2768 L 1633,2769 L 1633,2789 L 1634,2790 L 1634,2815 L 1635,2816 L 1635,2835 L 1636,2836 L 1636,2858 L 1637,2859 L 1637,2879 L 1638,2880 L 1638,2898 L 1639,2899 L 1639,2918 L 1640,2919 L 1640,2938 L 1641,2939 L 1641,2961 L 1642,2962 L 1642,2984 L 1643,2985 L 1643,2995 L 1642,2996 L 1464,2996 L 1463,2995 L 1448,2995 L 1447,2994 L 1435,2994 L 1434,2993 L 1426,2993 L 1425,2992 L 1418,2992 L 1417,2991 L 1412,2991 L 1411,2990 L 1406,2990 L 1405,2989 L 1401,2989 L 1400,2988 L 1396,2988 L 1395,2987 L 1392,2987 L 1391,2986 L 1387,2986 L 1386,2985 L 1384,2985 L 1383,2984 L 1379,2984 L 1378,2983 L 1376,2983 L 1375,2982 L 1372,2982 L 1371,2981 L 1369,2981 L 1368,2980 L 1366,2980 L 1365,2979 L 1363,2979 L 1362,2978 L 1360,2978 L 1359,2977 L 1357,2977 L 1356,2976 L 1354,2976 L 1353,2975 L 1351,2975 L 1350,2974 L 1348,2974 L 1347,2973 L 1345,2973 L 1344,2972 L 1343,2972 L 1342,2971 L 1340,2971 L 1339,2970 L 1338,2970 L 1337,2969 L 1335,2969 L 1334,2968 L 1333,2968 L 1332,2967 L 1330,2967 L 1329,2966 L 1328,2966 L 1327,2965 L 1326,2965 L 1325,2964 L 1324,2964 L 1323,2963 L 1321,2963 L 1320,2962 L 1319,2962 L 1318,2961 L 1317,2961 L 1316,2960 L 1315,2960 L 1314,2959 L 1313,2959 L 1312,2958 L 1311,2958 L 1310,2957 L 1309,2957 L 1308,2956 L 1307,2956 L 1306,2955 L 1305,2955 L 1304,2954 L 1303,2954 L 1302,2953 L 1301,2953 L 1300,2952 L 1299,2952 L 1298,2951 L 1297,2951 L 1296,2950 L 1295,2950 L 1293,2948 L 1292,2948 L 1291,2947 L 1290,2947 L 1289,2946 L 1288,2946 L 1286,2944 L 1285,2944 L 1284,2943 L 1283,2943 L 1281,2941 L 1280,2941 L 1279,2940 L 1278,2940 L 1276,2938 L 1275,2938 L 1273,2936 L 1272,2936 L 1270,2934 L 1269,2934 L 1267,2932 L 1266,2932 L 1264,2930 L 1263,2930 L 1261,2928 L 1260,2928 L 1257,2925 L 1256,2925 L 1254,2923 L 1253,2923 L 1250,2920 L 1249,2920 L 1245,2916 L 1244,2916 L 1240,2912 L 1239,2912 L 1234,2907 L 1233,2907 L 1225,2899 L 1224,2899 L 1195,2870 L 1195,2869 L 1188,2862 L 1188,2861 L 1183,2856 L 1183,2855 L 1179,2851 L 1179,2850 L 1175,2846 L 1175,2845 L 1172,2842 L 1172,2841 L 1169,2838 L 1169,2837 L 1167,2835 L 1167,2834 L 1164,2831 L 1164,2830 L 1162,2828 L 1162,2827 L 1160,2825 L 1160,2824 L 1158,2822 L 1158,2821 L 1156,2819 L 1156,2818 L 1155,2817 L 1155,2816 L 1153,2814 L 1153,2813 L 1151,2811 L 1151,2810 L 1150,2809 L 1150,2808 L 1149,2807 L 1149,2806 L 1148,2805 L 1148,2804 L 1146,2802 L 1146,2801 L 1145,2800 L 1145,2799 L 1144,2798 L 1144,2797 L 1143,2796 L 1143,2795 L 1141,2793 L 1141,2792 L 1140,2791 L 1140,2790 L 1139,2789 L 1139,2788 L 1138,2787 L 1138,2786 L 1137,2785 L 1137,2784 L 1136,2783 L 1136,2782 L 1135,2781 L 1135,2780 L 1134,2779 L 1134,2778 L 1133,2777 L 1133,2776 L 1132,2775 L 1132,2773 L 1131,2772 L 1131,2771 L 1130,2770 L 1130,2769 L 1129,2768 L 1129,2767 L 1128,2766 L 1128,2765 L 1127,2764 L 1127,2762 L 1126,2761 L 1126,2760 L 1125,2759 L 1125,2758 L 1124,2757 L 1124,2755 L 1123,2754 L 1123,2752 L 1122,2751 L 1122,2749 L 1124,2747 L 1124,2746 L 1130,2740 L 1130,2739 L 1139,2730 L 1139,2729 L 1145,2723 L 1145,2722 L 1153,2714 L 1153,2713 L 1161,2705 L 1161,2704 L 1168,2697 L 1168,2696 L 1175,2689 L 1175,2688 L 1183,2680 L 1183,2679 L 1189,2673 L 1189,2672 L 1195,2666 L 1195,2665 L 1200,2660 L 1200,2659 L 1207,2652 L 1207,2651 L 1214,2644 L 1214,2643 L 1221,2636 L 1221,2635 L 1227,2629 L 1227,2628 L 1233,2622 L 1233,2621 L 1239,2615 L 1239,2614 L 1245,2608 L 1245,2607 L 1251,2601 L 1251,2600 L 1256,2595 L 1256,2594 L 1263,2587 L 1263,2586 L 1271,2578 L 1271,2577 L 1279,2569 L 1279,2568 L 1285,2562 L 1285,2561 L 1292,2554 L 1292,2553 L 1297,2548 L 1297,2547 L 1303,2541 L 1303,2540 L 1310,2533 L 1310,2532 L 1316,2526 L 1316,2525 L 1323,2518 L 1323,2517 L 1330,2510 L 1330,2509 L 1338,2501 L 1338,2500 L 1344,2494 L 1344,2493 L 1350,2487 L 1350,2486 L 1355,2481 L 1355,2480 L 1361,2474 L 1361,2473 L 1369,2465 L 1369,2464 L 1375,2458 L 1375,2457 L 1383,2449 L 1383,2448 L 1391,2440 L 1391,2439 L 1399,2431 L 1399,2430 L 1406,2423 L 1406,2422 L 1411,2417 L 1411,2416 L 1418,2409 L 1418,2408 L 1424,2402 L 1424,2401 L 1431,2394 L 1431,2393 L 1438,2386 L 1438,2385 L 1445,2378 L 1445,2377 L 1452,2370 L 1452,2369 L 1458,2363 L 1458,2362 L 1465,2355 L 1465,2354 L 1471,2348 L 1471,2347 L 1479,2339 L 1479,2338 L 1485,2332 L 1485,2331 L 1491,2325 L 1491,2324 L 1497,2318 L 1497,2317 L 1504,2310 L 1504,2309 L 1511,2302 L 1511,2301 L 1515,2297 L 1515,2296 L 1522,2289 L 1522,2288 L 1528,2282 L 1528,2281 L 1535,2274 L 1535,2273 L 1543,2265 L 1543,2264 L 1549,2258 L 1549,2257 L 1556,2250 L 1556,2249 L 1563,2242 L 1563,2241 L 1569,2235 L 1569,2234 L 1575,2228 L 1575,2227 L 1581,2221 L 1581,2220 L 1587,2214 L 1587,2213 L 1593,2207 L 1593,2206 Z M 1814,1745 L 1813,1746 L 1788,1746 L 1787,1747 L 1765,1747 L 1764,1748 L 1741,1748 L 1740,1749 L 1720,1749 L 1719,1750 L 1696,1750 L 1695,1751 L 1674,1751 L 1673,1752 L 1651,1752 L 1650,1753 L 1627,1753 L 1626,1754 L 1604,1754 L 1603,1755 L 1580,1755 L 1579,1756 L 1559,1756 L 1558,1757 L 1536,1757 L 1535,1758 L 1515,1758 L 1514,1759 L 1493,1759 L 1492,1760 L 1470,1760 L 1469,1761 L 1450,1761 L 1449,1762 L 1424,1762 L 1423,1763 L 1403,1763 L 1402,1764 L 1381,1764 L 1380,1765 L 1360,1765 L 1359,1766 L 1336,1766 L 1335,1767 L 1309,1767 L 1308,1768 L 1284,1768 L 1283,1769 L 1262,1769 L 1261,1770 L 1235,1770 L 1234,1771 L 1210,1771 L 1209,1772 L 1182,1772 L 1181,1773 L 1160,1773 L 1159,1774 L 1136,1774 L 1135,1775 L 1112,1775 L 1111,1776 L 1086,1776 L 1085,1777 L 1064,1777 L 1063,1778 L 1040,1778 L 1039,1779 L 1024,1779 L 1024,2655 L 1025,2655 L 1027,2653 L 1027,2652 L 1035,2644 L 1035,2643 L 1041,2637 L 1041,2636 L 1047,2630 L 1047,2629 L 1053,2623 L 1053,2622 L 1058,2617 L 1058,2616 L 1064,2610 L 1064,2609 L 1071,2602 L 1071,2601 L 1077,2595 L 1077,2594 L 1085,2586 L 1085,2585 L 1093,2577 L 1093,2576 L 1100,2569 L 1100,2568 L 1106,2562 L 1106,2561 L 1112,2555 L 1112,2554 L 1119,2547 L 1119,2546 L 1126,2539 L 1126,2538 L 1132,2532 L 1132,2531 L 1139,2524 L 1139,2523 L 1148,2514 L 1148,2513 L 1156,2505 L 1156,2504 L 1163,2497 L 1163,2496 L 1168,2491 L 1168,2490 L 1175,2483 L 1175,2482 L 1181,2476 L 1181,2475 L 1187,2469 L 1187,2468 L 1193,2462 L 1193,2461 L 1199,2455 L 1199,2454 L 1206,2447 L 1206,2446 L 1211,2441 L 1211,2440 L 1218,2433 L 1218,2432 L 1224,2426 L 1224,2425 L 1231,2418 L 1231,2417 L 1238,2410 L 1238,2409 L 1245,2402 L 1245,2401 L 1252,2394 L 1252,2393 L 1259,2386 L 1259,2385 L 1265,2379 L 1265,2378 L 1271,2372 L 1271,2371 L 1277,2365 L 1277,2364 L 1283,2358 L 1283,2357 L 1290,2350 L 1290,2349 L 1297,2342 L 1297,2341 L 1303,2335 L 1303,2334 L 1310,2327 L 1310,2326 L 1315,2321 L 1315,2320 L 1322,2313 L 1322,2312 L 1330,2304 L 1330,2303 L 1336,2297 L 1336,2296 L 1345,2287 L 1345,2286 L 1353,2278 L 1353,2277 L 1360,2270 L 1360,2269 L 1367,2262 L 1367,2261 L 1371,2257 L 1371,2256 L 1378,2249 L 1378,2248 L 1383,2243 L 1383,2242 L 1388,2237 L 1388,2236 L 1394,2230 L 1394,2229 L 1401,2222 L 1401,2221 L 1408,2214 L 1408,2213 L 1414,2207 L 1414,2206 L 1419,2201 L 1419,2200 L 1426,2193 L 1426,2192 L 1432,2186 L 1432,2185 L 1438,2179 L 1438,2178 L 1444,2172 L 1444,2171 L 1451,2164 L 1451,2163 L 1457,2157 L 1457,2156 L 1463,2150 L 1463,2149 L 1469,2143 L 1469,2142 L 1477,2134 L 1477,2133 L 1483,2127 L 1483,2126 L 1490,2119 L 1490,2118 L 1497,2111 L 1497,2110 L 1503,2104 L 1503,2103 L 1510,2096 L 1510,2095 L 1515,2090 L 1515,2089 L 1522,2082 L 1522,2081 L 1527,2076 L 1527,2075 L 1537,2065 L 1537,2064 L 1544,2057 L 1544,2056 L 1551,2049 L 1551,2048 L 1557,2042 L 1557,2041 L 1564,2034 L 1564,2033 L 1571,2026 L 1571,2025 L 1578,2018 L 1578,2017 L 1584,2011 L 1584,2010 L 1592,2002 L 1592,2001 L 1599,1994 L 1599,1993 L 1606,1986 L 1606,1985 L 1611,1980 L 1611,1979 L 1618,1972 L 1618,1971 L 1623,1966 L 1623,1965 L 1629,1959 L 1629,1958 L 1636,1951 L 1636,1950 L 1643,1943 L 1643,1942 L 1650,1935 L 1650,1934 L 1656,1928 L 1656,1927 L 1665,1918 L 1665,1917 L 1671,1911 L 1671,1910 L 1677,1904 L 1677,1903 L 1683,1897 L 1683,1896 L 1690,1889 L 1690,1888 L 1696,1882 L 1696,1881 L 1702,1875 L 1702,1874 L 1708,1868 L 1708,1867 L 1715,1860 L 1715,1859 L 1720,1854 L 1720,1853 L 1727,1846 L 1727,1845 L 1734,1838 L 1734,1837 L 1740,1831 L 1740,1830 L 1745,1825 L 1745,1824 L 1751,1818 L 1751,1817 L 1758,1810 L 1758,1809 L 1769,1798 L 1769,1797 L 1776,1790 L 1776,1789 L 1785,1780 L 1785,1779 L 1795,1769 L 1796,1769 L 1805,1760 L 1806,1760 L 1811,1755 L 1812,1755 L 1815,1752 L 1816,1752 L 1818,1750 L 1819,1750 L 1821,1748 L 1822,1748 L 1824,1746 L 1825,1746 L 1826,1745 Z M 1626,1830 L 1627,1829 L 1641,1829 L 1642,1830 L 1637,1835 L 1637,1836 L 1627,1846 L 1627,1847 L 1620,1854 L 1620,1855 L 1614,1861 L 1614,1862 L 1607,1869 L 1607,1870 L 1601,1876 L 1601,1877 L 1593,1885 L 1593,1886 L 1587,1892 L 1587,1893 L 1580,1900 L 1580,1901 L 1574,1907 L 1574,1908 L 1567,1915 L 1567,1916 L 1561,1922 L 1561,1923 L 1555,1929 L 1555,1930 L 1549,1936 L 1549,1937 L 1542,1944 L 1542,1945 L 1534,1953 L 1534,1954 L 1527,1961 L 1527,1962 L 1521,1968 L 1521,1969 L 1516,1974 L 1516,1975 L 1510,1981 L 1510,1982 L 1503,1989 L 1503,1990 L 1498,1995 L 1498,1996 L 1491,2003 L 1491,2004 L 1486,2009 L 1486,2010 L 1482,2014 L 1482,2015 L 1476,2021 L 1476,2022 L 1464,2034 L 1464,2035 L 1457,2042 L 1457,2043 L 1451,2049 L 1451,2050 L 1445,2056 L 1445,2057 L 1439,2063 L 1439,2064 L 1432,2071 L 1432,2072 L 1427,2077 L 1427,2078 L 1421,2084 L 1421,2085 L 1415,2091 L 1415,2092 L 1407,2100 L 1407,2101 L 1400,2108 L 1400,2109 L 1393,2116 L 1393,2117 L 1387,2123 L 1387,2124 L 1380,2131 L 1380,2132 L 1373,2139 L 1373,2140 L 1367,2146 L 1367,2147 L 1360,2154 L 1360,2155 L 1352,2163 L 1352,2164 L 1345,2171 L 1345,2172 L 1336,2181 L 1336,2182 L 1329,2189 L 1329,2190 L 1322,2197 L 1322,2198 L 1316,2204 L 1316,2205 L 1309,2212 L 1309,2213 L 1304,2218 L 1304,2219 L 1297,2226 L 1297,2227 L 1292,2232 L 1292,2233 L 1285,2240 L 1285,2241 L 1278,2248 L 1278,2249 L 1270,2257 L 1270,2258 L 1263,2265 L 1263,2266 L 1256,2273 L 1256,2274 L 1248,2282 L 1248,2283 L 1242,2289 L 1242,2290 L 1236,2296 L 1236,2297 L 1229,2304 L 1229,2305 L 1224,2310 L 1224,2311 L 1216,2319 L 1216,2320 L 1210,2326 L 1210,2327 L 1204,2333 L 1204,2334 L 1198,2340 L 1198,2341 L 1192,2347 L 1192,2348 L 1186,2354 L 1186,2355 L 1179,2362 L 1179,2363 L 1172,2370 L 1172,2371 L 1166,2377 L 1166,2378 L 1160,2384 L 1160,2385 L 1152,2393 L 1152,2394 L 1145,2401 L 1145,2402 L 1139,2408 L 1139,2409 L 1134,2414 L 1134,2415 L 1128,2421 L 1128,2422 L 1120,2430 L 1120,2431 L 1114,2437 L 1114,2438 L 1108,2444 L 1108,2445 L 1103,2450 L 1103,2451 L 1102,2452 L 1101,2452 L 1100,2451 L 1100,1852 L 1101,1851 L 1116,1851 L 1117,1850 L 1139,1850 L 1140,1849 L 1164,1849 L 1165,1848 L 1189,1848 L 1190,1847 L 1212,1847 L 1213,1846 L 1236,1846 L 1237,1845 L 1260,1845 L 1261,1844 L 1285,1844 L 1286,1843 L 1311,1843 L 1312,1842 L 1335,1842 L 1336,1841 L 1359,1841 L 1360,1840 L 1383,1840 L 1384,1839 L 1409,1839 L 1410,1838 L 1433,1838 L 1434,1837 L 1458,1837 L 1459,1836 L 1482,1836 L 1483,1835 L 1507,1835 L 1508,1834 L 1530,1834 L 1531,1833 L 1555,1833 L 1556,1832 L 1578,1832 L 1579,1831 L 1602,1831 L 1603,1830 Z M 3067,1425 L 3062,1430 L 3062,1431 L 3057,1436 L 3057,1437 L 3053,1441 L 3053,1442 L 3048,1447 L 3048,1448 L 3042,1454 L 3042,1455 L 3035,1462 L 3035,1463 L 3030,1468 L 3030,1469 L 3025,1474 L 3025,1475 L 3021,1479 L 3021,1480 L 3016,1485 L 3016,1486 L 3009,1493 L 3009,1494 L 3002,1501 L 3002,1502 L 2996,1508 L 2996,1509 L 2989,1516 L 2989,1517 L 2984,1522 L 2984,1523 L 2977,1530 L 2977,1531 L 2972,1536 L 2972,1537 L 2967,1542 L 2967,1543 L 2962,1548 L 2962,1549 L 2956,1555 L 2956,1556 L 2951,1561 L 2951,1562 L 2945,1568 L 2945,1569 L 2940,1574 L 2940,1575 L 2933,1582 L 2933,1583 L 2926,1590 L 2926,1591 L 2921,1596 L 2921,1597 L 2915,1603 L 2915,1604 L 2908,1611 L 2908,1612 L 2903,1617 L 2903,1618 L 2897,1624 L 2897,1625 L 2893,1629 L 2893,1630 L 2887,1636 L 2887,1637 L 2878,1646 L 2878,1647 L 2877,1648 L 2876,1648 L 2876,1649 L 2869,1656 L 2869,1657 L 2864,1662 L 2864,1663 L 2859,1668 L 2859,1669 L 2853,1675 L 2853,1676 L 2847,1682 L 2847,1683 L 2840,1690 L 2840,1691 L 2834,1697 L 2834,1698 L 2830,1702 L 2830,1703 L 2825,1708 L 2825,1709 L 2819,1715 L 2819,1716 L 2812,1723 L 2812,1724 L 2807,1729 L 2807,1730 L 2801,1736 L 2801,1737 L 2796,1742 L 2796,1743 L 2795,1744 L 2794,1744 L 2794,1745 L 2787,1752 L 2787,1753 L 2780,1760 L 2780,1761 L 2776,1765 L 2776,1766 L 2770,1772 L 2770,1773 L 2764,1779 L 2764,1780 L 2760,1784 L 2760,1785 L 2752,1793 L 2752,1794 L 2746,1800 L 2746,1801 L 2736,1811 L 2736,1812 L 2730,1818 L 2730,1819 L 2724,1825 L 2724,1826 L 2716,1834 L 2716,1835 L 2708,1843 L 2708,1844 L 2703,1849 L 2703,1850 L 2699,1854 L 2699,1855 L 2696,1858 L 2696,1859 L 2689,1866 L 2689,1867 L 2682,1874 L 2682,1875 L 2673,1884 L 2673,1885 L 2668,1890 L 2668,1891 L 2662,1897 L 2662,1898 L 2656,1904 L 2656,1905 L 2649,1912 L 2649,1913 L 2645,1917 L 2645,1918 L 2640,1923 L 2640,1924 L 2635,1929 L 2635,1930 L 2629,1936 L 2629,1937 L 2621,1945 L 2621,1946 L 2614,1953 L 2614,1954 L 2608,1960 L 2608,1961 L 2604,1965 L 2604,1966 L 2598,1972 L 2598,1973 L 2593,1978 L 2593,1979 L 2588,1984 L 2588,1985 L 2583,1990 L 2583,1991 L 2578,1996 L 2578,1997 L 2572,2003 L 2572,2004 L 2566,2010 L 2566,2011 L 2560,2017 L 2560,2018 L 2554,2024 L 2554,2025 L 2549,2030 L 2549,2031 L 2543,2037 L 2543,2038 L 2537,2044 L 2537,2045 L 2532,2050 L 2532,2051 L 2526,2057 L 2526,2058 L 2520,2064 L 2520,2065 L 2515,2070 L 2515,2071 L 2509,2077 L 2509,2078 L 2504,2083 L 2504,2084 L 2498,2090 L 2498,2091 L 2492,2097 L 2492,2098 L 2484,2106 L 2484,2107 L 2480,2111 L 2480,2112 L 2474,2118 L 2474,2119 L 2468,2125 L 2468,2126 L 2461,2133 L 2461,2134 L 2455,2140 L 2455,2141 L 2450,2146 L 2450,2147 L 2446,2151 L 2446,2152 L 2440,2158 L 2440,2159 L 2434,2165 L 2434,2166 L 2427,2173 L 2427,2174 L 2422,2179 L 2422,2180 L 2418,2184 L 2418,2185 L 2412,2191 L 2412,2192 L 2406,2198 L 2406,2199 L 2400,2205 L 2400,2206 L 2395,2211 L 2395,2212 L 2390,2217 L 2390,2218 L 2384,2224 L 2384,2225 L 2379,2230 L 2379,2231 L 2374,2236 L 2374,2237 L 2368,2243 L 2368,2244 L 2363,2249 L 2363,2250 L 2357,2256 L 2357,2257 L 2352,2262 L 2352,2263 L 2346,2269 L 2346,2270 L 2341,2275 L 2341,2276 L 2336,2281 L 2336,2282 L 2329,2289 L 2329,2290 L 2323,2296 L 2323,2297 L 2315,2305 L 2315,2306 L 2303,2318 L 2302,2318 L 2292,2328 L 2291,2328 L 2283,2336 L 2282,2336 L 2277,2341 L 2276,2341 L 2273,2344 L 2272,2344 L 2269,2347 L 2268,2347 L 2265,2350 L 2270,2350 L 2271,2349 L 2291,2349 L 2292,2348 L 2314,2348 L 2315,2347 L 2337,2347 L 2338,2346 L 2362,2346 L 2363,2345 L 2390,2345 L 2391,2344 L 2416,2344 L 2417,2343 L 2443,2343 L 2444,2342 L 2469,2342 L 2470,2341 L 2495,2341 L 2496,2340 L 2525,2340 L 2526,2339 L 2548,2339 L 2549,2338 L 2570,2338 L 2571,2337 L 2595,2337 L 2596,2336 L 2619,2336 L 2620,2335 L 2641,2335 L 2642,2334 L 2663,2334 L 2664,2333 L 2687,2333 L 2688,2332 L 2711,2332 L 2712,2331 L 2735,2331 L 2736,2330 L 2759,2330 L 2760,2329 L 2785,2329 L 2786,2328 L 2809,2328 L 2810,2327 L 2835,2327 L 2836,2326 L 2859,2326 L 2860,2325 L 2883,2325 L 2884,2324 L 2908,2324 L 2909,2323 L 2934,2323 L 2935,2322 L 2959,2322 L 2960,2321 L 2980,2321 L 2981,2320 L 3005,2320 L 3006,2319 L 3030,2319 L 3031,2318 L 3055,2318 L 3056,2317 L 3071,2317 L 3071,1440 L 3070,1439 L 3070,1425 Z M 2995,1628 L 2996,1629 L 2996,2243 L 2994,2245 L 2976,2245 L 2975,2246 L 2951,2246 L 2950,2247 L 2928,2247 L 2927,2248 L 2905,2248 L 2904,2249 L 2880,2249 L 2879,2250 L 2856,2250 L 2855,2251 L 2832,2251 L 2831,2252 L 2810,2252 L 2809,2253 L 2788,2253 L 2787,2254 L 2760,2254 L 2759,2255 L 2736,2255 L 2735,2256 L 2709,2256 L 2708,2257 L 2685,2257 L 2684,2258 L 2657,2258 L 2656,2259 L 2635,2259 L 2634,2260 L 2604,2260 L 2603,2261 L 2581,2261 L 2580,2262 L 2556,2262 L 2555,2263 L 2533,2263 L 2532,2264 L 2510,2264 L 2509,2265 L 2488,2265 L 2487,2266 L 2468,2266 L 2467,2267 L 2448,2267 L 2447,2266 L 2451,2262 L 2451,2261 L 2458,2254 L 2458,2253 L 2464,2247 L 2464,2246 L 2469,2241 L 2469,2240 L 2475,2234 L 2475,2233 L 2479,2229 L 2479,2228 L 2485,2222 L 2485,2221 L 2491,2215 L 2491,2214 L 2496,2209 L 2496,2208 L 2503,2201 L 2503,2200 L 2509,2194 L 2509,2193 L 2515,2187 L 2515,2186 L 2520,2181 L 2520,2180 L 2526,2174 L 2526,2173 L 2532,2167 L 2532,2166 L 2537,2161 L 2537,2160 L 2542,2155 L 2542,2154 L 2548,2148 L 2548,2147 L 2555,2140 L 2555,2139 L 2561,2133 L 2561,2132 L 2567,2126 L 2567,2125 L 2573,2119 L 2573,2118 L 2578,2113 L 2578,2112 L 2584,2106 L 2584,2105 L 2591,2098 L 2591,2097 L 2596,2092 L 2596,2091 L 2601,2086 L 2601,2085 L 2607,2079 L 2607,2078 L 2612,2073 L 2612,2072 L 2618,2066 L 2618,2065 L 2624,2059 L 2624,2058 L 2631,2051 L 2631,2050 L 2636,2045 L 2636,2044 L 2641,2039 L 2641,2038 L 2648,2031 L 2648,2030 L 2653,2025 L 2653,2024 L 2659,2018 L 2659,2017 L 2663,2013 L 2663,2012 L 2669,2006 L 2669,2005 L 2675,1999 L 2675,1998 L 2681,1992 L 2681,1991 L 2687,1985 L 2687,1984 L 2695,1976 L 2695,1975 L 2701,1969 L 2701,1968 L 2707,1962 L 2707,1961 L 2713,1955 L 2713,1954 L 2719,1948 L 2719,1947 L 2725,1941 L 2725,1940 L 2731,1934 L 2731,1933 L 2737,1927 L 2737,1926 L 2745,1918 L 2745,1917 L 2751,1911 L 2751,1910 L 2756,1905 L 2756,1904 L 2762,1898 L 2762,1897 L 2767,1892 L 2767,1891 L 2772,1886 L 2772,1885 L 2779,1878 L 2779,1877 L 2785,1871 L 2785,1870 L 2791,1864 L 2791,1863 L 2797,1857 L 2797,1856 L 2804,1849 L 2804,1848 L 2811,1841 L 2811,1840 L 2818,1833 L 2818,1832 L 2825,1825 L 2825,1824 L 2831,1818 L 2831,1817 L 2836,1812 L 2836,1811 L 2843,1804 L 2843,1803 L 2849,1797 L 2849,1796 L 2855,1790 L 2855,1789 L 2861,1783 L 2861,1782 L 2866,1777 L 2866,1776 L 2872,1770 L 2872,1769 L 2878,1763 L 2878,1762 L 2884,1756 L 2884,1755 L 2890,1749 L 2890,1748 L 2896,1742 L 2896,1741 L 2903,1734 L 2903,1733 L 2907,1729 L 2907,1728 L 2914,1721 L 2914,1720 L 2920,1714 L 2920,1713 L 2926,1707 L 2926,1706 L 2931,1701 L 2931,1700 L 2937,1694 L 2937,1693 L 2943,1687 L 2943,1686 L 2951,1678 L 2951,1677 L 2959,1669 L 2959,1668 L 2967,1660 L 2967,1659 L 2973,1653 L 2973,1652 L 2979,1646 L 2979,1645 L 2985,1639 L 2985,1638 L 2991,1632 L 2991,1631 L 2992,1630 L 2993,1630 Z M 1394,1032 L 1393,1033 L 1389,1033 L 1388,1034 L 1384,1034 L 1383,1035 L 1380,1035 L 1379,1036 L 1376,1036 L 1375,1037 L 1371,1037 L 1370,1038 L 1368,1038 L 1367,1039 L 1363,1039 L 1362,1040 L 1360,1040 L 1359,1041 L 1356,1041 L 1355,1042 L 1352,1042 L 1351,1043 L 1349,1043 L 1348,1044 L 1346,1044 L 1345,1045 L 1343,1045 L 1342,1046 L 1340,1046 L 1339,1047 L 1337,1047 L 1336,1048 L 1334,1048 L 1333,1049 L 1331,1049 L 1330,1050 L 1328,1050 L 1327,1051 L 1325,1051 L 1324,1052 L 1323,1052 L 1322,1053 L 1320,1053 L 1319,1054 L 1318,1054 L 1317,1055 L 1315,1055 L 1314,1056 L 1312,1056 L 1311,1057 L 1310,1057 L 1309,1058 L 1308,1058 L 1307,1059 L 1305,1059 L 1304,1060 L 1303,1060 L 1302,1061 L 1301,1061 L 1300,1062 L 1299,1062 L 1298,1063 L 1296,1063 L 1295,1064 L 1294,1064 L 1293,1065 L 1292,1065 L 1291,1066 L 1290,1066 L 1289,1067 L 1288,1067 L 1287,1068 L 1286,1068 L 1285,1069 L 1284,1069 L 1283,1070 L 1282,1070 L 1281,1071 L 1280,1071 L 1279,1072 L 1277,1072 L 1275,1074 L 1274,1074 L 1273,1075 L 1271,1075 L 1269,1077 L 1268,1077 L 1267,1078 L 1266,1078 L 1265,1079 L 1264,1079 L 1263,1080 L 1262,1080 L 1261,1081 L 1260,1081 L 1259,1082 L 1258,1082 L 1256,1084 L 1255,1084 L 1254,1085 L 1253,1085 L 1252,1086 L 1251,1086 L 1249,1088 L 1248,1088 L 1247,1089 L 1246,1089 L 1244,1091 L 1243,1091 L 1242,1092 L 1241,1092 L 1239,1094 L 1238,1094 L 1236,1096 L 1235,1096 L 1233,1098 L 1232,1098 L 1230,1100 L 1229,1100 L 1227,1102 L 1226,1102 L 1224,1104 L 1223,1104 L 1221,1106 L 1220,1106 L 1218,1108 L 1217,1108 L 1215,1110 L 1214,1110 L 1212,1112 L 1211,1112 L 1207,1116 L 1206,1116 L 1204,1118 L 1203,1118 L 1199,1122 L 1198,1122 L 1194,1126 L 1193,1126 L 1187,1132 L 1186,1132 L 1181,1137 L 1180,1137 L 1173,1144 L 1172,1144 L 1172,1145 L 1169,1148 L 1168,1148 L 1168,1149 L 1165,1152 L 1164,1152 L 1164,1153 L 1161,1156 L 1160,1156 L 1160,1157 L 1157,1160 L 1156,1160 L 1156,1161 L 1155,1162 L 1154,1162 L 1144,1172 L 1144,1173 L 1143,1174 L 1142,1174 L 1142,1175 L 1137,1180 L 1137,1181 L 1132,1186 L 1132,1187 L 1127,1192 L 1127,1193 L 1123,1197 L 1123,1198 L 1120,1201 L 1120,1202 L 1117,1205 L 1117,1206 L 1114,1209 L 1114,1210 L 1111,1213 L 1111,1214 L 1109,1216 L 1109,1217 L 1107,1219 L 1107,1220 L 1105,1222 L 1105,1223 L 1103,1225 L 1103,1226 L 1101,1228 L 1101,1229 L 1099,1231 L 1099,1232 L 1097,1234 L 1097,1235 L 1095,1237 L 1095,1238 L 1093,1240 L 1093,1241 L 1092,1242 L 1092,1243 L 1090,1245 L 1090,1246 L 1089,1247 L 1089,1248 L 1087,1250 L 1087,1251 L 1086,1252 L 1086,1253 L 1085,1254 L 1085,1255 L 1083,1257 L 1083,1258 L 1082,1259 L 1082,1260 L 1080,1262 L 1080,1263 L 1079,1264 L 1079,1265 L 1078,1266 L 1078,1267 L 1077,1268 L 1077,1269 L 1076,1270 L 1076,1271 L 1075,1272 L 1075,1273 L 1074,1274 L 1074,1275 L 1073,1276 L 1073,1277 L 1072,1278 L 1072,1279 L 1071,1280 L 1071,1281 L 1070,1282 L 1070,1283 L 1069,1284 L 1069,1285 L 1068,1286 L 1068,1287 L 1067,1288 L 1067,1289 L 1066,1290 L 1066,1292 L 1065,1293 L 1065,1294 L 1064,1295 L 1064,1296 L 1063,1297 L 1063,1298 L 1062,1299 L 1062,1301 L 1061,1302 L 1061,1303 L 1060,1304 L 1060,1305 L 1059,1306 L 1059,1308 L 1058,1309 L 1058,1310 L 1057,1311 L 1057,1313 L 1056,1314 L 1056,1315 L 1055,1316 L 1055,1318 L 1054,1319 L 1054,1320 L 1053,1321 L 1053,1323 L 1052,1324 L 1052,1326 L 1051,1327 L 1051,1329 L 1050,1330 L 1050,1332 L 1049,1333 L 1049,1335 L 1048,1336 L 1048,1337 L 1047,1338 L 1047,1340 L 1046,1341 L 1046,1343 L 1045,1344 L 1045,1347 L 1044,1348 L 1044,1350 L 1043,1351 L 1043,1353 L 1042,1354 L 1042,1357 L 1041,1358 L 1041,1361 L 1040,1362 L 1040,1365 L 1039,1366 L 1039,1369 L 1038,1370 L 1038,1373 L 1037,1374 L 1037,1377 L 1036,1378 L 1036,1381 L 1035,1382 L 1035,1386 L 1034,1387 L 1034,1390 L 1033,1391 L 1033,1395 L 1032,1396 L 1032,1400 L 1031,1401 L 1031,1406 L 1030,1407 L 1030,1412 L 1029,1413 L 1029,1418 L 1028,1419 L 1028,1425 L 1027,1426 L 1027,1434 L 1026,1435 L 1026,1444 L 1025,1445 L 1025,1457 L 1024,1458 L 1024,1718 L 1028,1718 L 1029,1717 L 1054,1717 L 1055,1716 L 1076,1716 L 1077,1715 L 1100,1715 L 1101,1714 L 1127,1714 L 1128,1713 L 1150,1713 L 1151,1712 L 1172,1712 L 1173,1711 L 1195,1711 L 1196,1710 L 1218,1710 L 1219,1709 L 1239,1709 L 1240,1708 L 1265,1708 L 1266,1707 L 1292,1707 L 1293,1706 L 1314,1706 L 1315,1705 L 1339,1705 L 1340,1704 L 1363,1704 L 1364,1703 L 1388,1703 L 1389,1702 L 1412,1702 L 1413,1701 L 1434,1701 L 1435,1700 L 1459,1700 L 1460,1699 L 1483,1699 L 1484,1698 L 1508,1698 L 1509,1697 L 1530,1697 L 1531,1696 L 1554,1696 L 1555,1695 L 1578,1695 L 1579,1694 L 1599,1694 L 1600,1693 L 1623,1693 L 1624,1692 L 1643,1692 L 1644,1691 L 1666,1691 L 1667,1690 L 1690,1690 L 1691,1689 L 1713,1689 L 1714,1688 L 1738,1688 L 1739,1687 L 1762,1687 L 1763,1686 L 1783,1686 L 1784,1685 L 1807,1685 L 1808,1684 L 1833,1684 L 1834,1683 L 1859,1683 L 1860,1682 L 1884,1682 L 1885,1681 L 1911,1681 L 1912,1680 L 1935,1680 L 1936,1679 L 1959,1679 L 1960,1678 L 1982,1678 L 1983,1677 L 2007,1677 L 2008,1676 L 2052,1676 L 2053,1677 L 2073,1677 L 2074,1678 L 2086,1678 L 2087,1679 L 2095,1679 L 2096,1680 L 2101,1680 L 2102,1681 L 2105,1681 L 2105,1680 L 2084,1659 L 2083,1659 L 2070,1646 L 2069,1646 L 2060,1637 L 2059,1637 L 2049,1627 L 2048,1627 L 2047,1626 L 2047,1625 L 2046,1625 L 2038,1617 L 2037,1617 L 2027,1607 L 2026,1607 L 2014,1595 L 2013,1595 L 2001,1583 L 2000,1583 L 1999,1582 L 1999,1581 L 1998,1581 L 1989,1572 L 1988,1572 L 1977,1561 L 1976,1561 L 1967,1552 L 1966,1552 L 1956,1542 L 1955,1542 L 1945,1532 L 1944,1532 L 1933,1521 L 1932,1521 L 1922,1511 L 1921,1511 L 1910,1500 L 1909,1500 L 1900,1491 L 1899,1491 L 1892,1484 L 1891,1484 L 1878,1471 L 1877,1471 L 1863,1457 L 1862,1457 L 1853,1448 L 1852,1448 L 1839,1435 L 1838,1435 L 1830,1427 L 1829,1427 L 1821,1419 L 1820,1419 L 1806,1405 L 1805,1405 L 1792,1392 L 1791,1392 L 1779,1380 L 1778,1380 L 1767,1369 L 1766,1369 L 1759,1362 L 1758,1362 L 1748,1352 L 1747,1352 L 1730,1335 L 1729,1335 L 1719,1325 L 1718,1325 L 1705,1312 L 1704,1312 L 1696,1304 L 1695,1304 L 1686,1295 L 1685,1295 L 1676,1286 L 1675,1286 L 1655,1266 L 1654,1266 L 1644,1256 L 1643,1256 L 1634,1247 L 1633,1247 L 1625,1239 L 1624,1239 L 1613,1228 L 1612,1228 L 1598,1214 L 1597,1214 L 1583,1200 L 1582,1200 L 1572,1190 L 1571,1190 L 1558,1177 L 1557,1177 L 1548,1168 L 1547,1168 L 1537,1158 L 1536,1158 L 1524,1146 L 1523,1146 L 1509,1132 L 1508,1132 L 1494,1118 L 1493,1118 L 1482,1107 L 1481,1107 L 1470,1096 L 1469,1096 L 1459,1086 L 1458,1086 L 1447,1075 L 1446,1075 L 1437,1066 L 1436,1066 L 1435,1065 L 1435,1064 L 1434,1064 L 1420,1050 L 1419,1050 L 1401,1032 Z M 1376,1115 L 1377,1114 L 1378,1114 L 1387,1123 L 1388,1123 L 1400,1135 L 1401,1135 L 1414,1148 L 1415,1148 L 1416,1149 L 1416,1150 L 1417,1151 L 1418,1151 L 1429,1162 L 1430,1162 L 1438,1170 L 1439,1170 L 1449,1180 L 1450,1180 L 1462,1192 L 1463,1192 L 1474,1203 L 1475,1203 L 1491,1219 L 1492,1219 L 1500,1227 L 1501,1227 L 1510,1236 L 1511,1236 L 1512,1237 L 1512,1238 L 1513,1238 L 1520,1245 L 1521,1245 L 1532,1256 L 1533,1256 L 1550,1273 L 1551,1273 L 1552,1274 L 1552,1275 L 1554,1277 L 1555,1277 L 1556,1278 L 1556,1279 L 1557,1279 L 1571,1293 L 1572,1293 L 1579,1300 L 1580,1300 L 1589,1309 L 1590,1309 L 1603,1322 L 1604,1322 L 1616,1334 L 1617,1334 L 1626,1343 L 1627,1343 L 1638,1354 L 1639,1354 L 1646,1361 L 1647,1361 L 1654,1368 L 1655,1368 L 1656,1369 L 1656,1370 L 1657,1370 L 1669,1382 L 1670,1382 L 1683,1395 L 1684,1395 L 1699,1410 L 1700,1410 L 1712,1422 L 1713,1422 L 1722,1431 L 1723,1431 L 1731,1439 L 1732,1439 L 1744,1451 L 1745,1451 L 1755,1461 L 1756,1461 L 1769,1474 L 1770,1474 L 1781,1485 L 1782,1485 L 1790,1493 L 1791,1493 L 1792,1494 L 1792,1495 L 1793,1495 L 1805,1507 L 1806,1507 L 1808,1509 L 1808,1510 L 1809,1510 L 1818,1519 L 1819,1519 L 1820,1520 L 1820,1521 L 1821,1521 L 1835,1535 L 1836,1535 L 1846,1545 L 1847,1545 L 1848,1546 L 1848,1547 L 1849,1547 L 1859,1557 L 1860,1557 L 1874,1571 L 1875,1571 L 1883,1579 L 1884,1579 L 1892,1587 L 1893,1587 L 1902,1596 L 1903,1596 L 1904,1597 L 1904,1598 L 1905,1598 L 1911,1604 L 1910,1605 L 1907,1605 L 1906,1606 L 1882,1606 L 1881,1607 L 1858,1607 L 1857,1608 L 1835,1608 L 1834,1609 L 1812,1609 L 1811,1610 L 1784,1610 L 1783,1611 L 1764,1611 L 1763,1612 L 1741,1612 L 1740,1613 L 1719,1613 L 1718,1614 L 1694,1614 L 1693,1615 L 1670,1615 L 1669,1616 L 1643,1616 L 1642,1617 L 1619,1617 L 1618,1618 L 1592,1618 L 1591,1619 L 1568,1619 L 1567,1620 L 1544,1620 L 1543,1621 L 1520,1621 L 1519,1622 L 1493,1622 L 1492,1623 L 1469,1623 L 1468,1624 L 1448,1624 L 1447,1625 L 1427,1625 L 1426,1626 L 1403,1626 L 1402,1627 L 1381,1627 L 1380,1628 L 1360,1628 L 1359,1629 L 1337,1629 L 1336,1630 L 1314,1630 L 1313,1631 L 1288,1631 L 1287,1632 L 1267,1632 L 1266,1633 L 1244,1633 L 1243,1634 L 1216,1634 L 1215,1635 L 1192,1635 L 1191,1636 L 1168,1636 L 1167,1637 L 1145,1637 L 1144,1638 L 1120,1638 L 1119,1639 L 1101,1639 L 1100,1638 L 1100,1448 L 1101,1447 L 1101,1437 L 1102,1436 L 1102,1429 L 1103,1428 L 1103,1422 L 1104,1421 L 1104,1416 L 1105,1415 L 1105,1411 L 1106,1410 L 1106,1405 L 1107,1404 L 1107,1400 L 1108,1399 L 1108,1396 L 1109,1395 L 1109,1392 L 1110,1391 L 1110,1388 L 1111,1387 L 1111,1384 L 1112,1383 L 1112,1381 L 1113,1380 L 1113,1377 L 1114,1376 L 1114,1374 L 1115,1373 L 1115,1370 L 1116,1369 L 1116,1367 L 1117,1366 L 1117,1364 L 1118,1363 L 1118,1361 L 1119,1360 L 1119,1358 L 1120,1357 L 1120,1355 L 1121,1354 L 1121,1352 L 1122,1351 L 1122,1349 L 1123,1348 L 1123,1347 L 1124,1346 L 1124,1344 L 1125,1343 L 1125,1341 L 1126,1340 L 1126,1339 L 1127,1338 L 1127,1336 L 1128,1335 L 1128,1334 L 1129,1333 L 1129,1331 L 1130,1330 L 1130,1329 L 1131,1328 L 1131,1327 L 1132,1326 L 1132,1325 L 1133,1324 L 1133,1322 L 1134,1321 L 1134,1320 L 1135,1319 L 1135,1318 L 1136,1317 L 1136,1316 L 1137,1315 L 1137,1314 L 1138,1313 L 1138,1312 L 1139,1311 L 1139,1310 L 1140,1309 L 1140,1308 L 1141,1307 L 1141,1306 L 1142,1305 L 1142,1304 L 1143,1303 L 1143,1302 L 1145,1300 L 1145,1299 L 1146,1298 L 1146,1297 L 1147,1296 L 1147,1295 L 1149,1293 L 1149,1292 L 1150,1291 L 1150,1290 L 1151,1289 L 1151,1288 L 1153,1286 L 1153,1285 L 1154,1284 L 1154,1283 L 1156,1281 L 1156,1280 L 1157,1279 L 1157,1278 L 1159,1276 L 1159,1275 L 1161,1273 L 1161,1272 L 1163,1270 L 1163,1269 L 1166,1266 L 1166,1265 L 1168,1263 L 1168,1262 L 1170,1260 L 1170,1259 L 1174,1255 L 1174,1254 L 1177,1251 L 1177,1250 L 1180,1247 L 1180,1246 L 1184,1242 L 1184,1241 L 1187,1238 L 1187,1237 L 1193,1231 L 1193,1230 L 1203,1220 L 1203,1219 L 1225,1197 L 1226,1197 L 1233,1190 L 1234,1190 L 1240,1184 L 1241,1184 L 1246,1179 L 1247,1179 L 1250,1176 L 1251,1176 L 1254,1173 L 1255,1173 L 1258,1170 L 1259,1170 L 1261,1168 L 1262,1168 L 1264,1166 L 1265,1166 L 1267,1164 L 1268,1164 L 1270,1162 L 1271,1162 L 1273,1160 L 1274,1160 L 1276,1158 L 1277,1158 L 1278,1157 L 1279,1157 L 1281,1155 L 1282,1155 L 1283,1154 L 1284,1154 L 1286,1152 L 1287,1152 L 1288,1151 L 1289,1151 L 1290,1150 L 1291,1150 L 1293,1148 L 1294,1148 L 1295,1147 L 1296,1147 L 1297,1146 L 1298,1146 L 1300,1144 L 1301,1144 L 1302,1143 L 1303,1143 L 1304,1142 L 1305,1142 L 1306,1141 L 1307,1141 L 1308,1140 L 1309,1140 L 1310,1139 L 1311,1139 L 1312,1138 L 1313,1138 L 1314,1137 L 1315,1137 L 1316,1136 L 1317,1136 L 1318,1135 L 1319,1135 L 1320,1134 L 1322,1134 L 1323,1133 L 1324,1133 L 1325,1132 L 1326,1132 L 1327,1131 L 1329,1131 L 1330,1130 L 1331,1130 L 1332,1129 L 1333,1129 L 1334,1128 L 1336,1128 L 1337,1127 L 1338,1127 L 1339,1126 L 1341,1126 L 1342,1125 L 1343,1125 L 1344,1124 L 1346,1124 L 1347,1123 L 1349,1123 L 1350,1122 L 1352,1122 L 1353,1121 L 1355,1121 L 1356,1120 L 1358,1120 L 1359,1119 L 1361,1119 L 1362,1118 L 1364,1118 L 1365,1117 L 1368,1117 L 1369,1116 L 1372,1116 L 1373,1115 Z M 2355,1024 L 2354,1025 L 2354,1028 L 2355,1029 L 2355,1043 L 2356,1044 L 2356,1058 L 2357,1059 L 2357,1074 L 2358,1075 L 2358,1089 L 2359,1090 L 2359,1103 L 2360,1104 L 2360,1119 L 2361,1120 L 2361,1134 L 2362,1135 L 2362,1151 L 2363,1152 L 2363,1167 L 2364,1168 L 2364,1181 L 2365,1182 L 2365,1196 L 2366,1197 L 2366,1212 L 2367,1213 L 2367,1227 L 2368,1228 L 2368,1243 L 2369,1244 L 2369,1260 L 2370,1261 L 2370,1276 L 2371,1277 L 2371,1292 L 2372,1293 L 2372,1309 L 2373,1310 L 2373,1324 L 2374,1325 L 2374,1340 L 2375,1341 L 2375,1355 L 2376,1356 L 2376,1371 L 2377,1372 L 2377,1387 L 2378,1388 L 2378,1404 L 2379,1405 L 2379,1421 L 2380,1422 L 2380,1436 L 2381,1437 L 2381,1452 L 2382,1453 L 2382,1468 L 2383,1469 L 2383,1484 L 2384,1485 L 2384,1500 L 2385,1501 L 2385,1516 L 2386,1517 L 2386,1532 L 2387,1533 L 2387,1549 L 2388,1550 L 2388,1565 L 2389,1566 L 2389,1583 L 2390,1584 L 2390,1598 L 2391,1599 L 2391,1613 L 2392,1614 L 2392,1629 L 2393,1630 L 2393,1646 L 2394,1647 L 2394,1663 L 2395,1664 L 2395,1679 L 2396,1680 L 2396,1695 L 2397,1696 L 2397,1711 L 2398,1712 L 2398,1725 L 2399,1726 L 2399,1739 L 2400,1740 L 2400,1754 L 2401,1755 L 2401,1770 L 2402,1771 L 2402,1787 L 2403,1788 L 2403,1803 L 2404,1804 L 2404,1819 L 2405,1820 L 2405,1834 L 2406,1835 L 2406,1849 L 2407,1850 L 2407,1863 L 2408,1864 L 2408,1879 L 2409,1880 L 2409,1893 L 2410,1894 L 2410,1909 L 2411,1910 L 2411,1923 L 2412,1924 L 2412,1939 L 2413,1940 L 2413,1953 L 2414,1954 L 2414,1967 L 2415,1968 L 2415,1982 L 2416,1983 L 2416,1996 L 2417,1997 L 2417,2010 L 2418,2011 L 2418,2069 L 2417,2070 L 2417,2080 L 2416,2081 L 2416,2090 L 2415,2091 L 2415,2094 L 2423,2086 L 2423,2085 L 2427,2081 L 2427,2080 L 2433,2074 L 2433,2073 L 2438,2068 L 2438,2067 L 2443,2062 L 2443,2061 L 2447,2057 L 2447,2056 L 2453,2050 L 2453,2049 L 2460,2042 L 2460,2041 L 2467,2034 L 2467,2033 L 2473,2027 L 2473,2026 L 2479,2020 L 2479,2019 L 2484,2014 L 2484,2013 L 2490,2007 L 2490,2006 L 2497,1999 L 2497,1998 L 2503,1992 L 2503,1991 L 2510,1984 L 2510,1983 L 2515,1978 L 2515,1977 L 2521,1971 L 2521,1970 L 2527,1964 L 2527,1963 L 2533,1957 L 2533,1956 L 2539,1950 L 2539,1949 L 2545,1943 L 2545,1942 L 2552,1935 L 2552,1934 L 2557,1929 L 2557,1928 L 2563,1922 L 2563,1921 L 2569,1915 L 2569,1914 L 2575,1908 L 2575,1907 L 2581,1901 L 2581,1900 L 2587,1894 L 2587,1893 L 2594,1886 L 2594,1885 L 2601,1878 L 2601,1877 L 2608,1870 L 2608,1869 L 2614,1863 L 2614,1862 L 2619,1857 L 2619,1856 L 2626,1849 L 2626,1848 L 2632,1842 L 2632,1841 L 2638,1835 L 2638,1834 L 2643,1829 L 2643,1828 L 2649,1822 L 2649,1821 L 2655,1815 L 2655,1814 L 2663,1806 L 2663,1805 L 2669,1799 L 2669,1798 L 2674,1793 L 2674,1792 L 2679,1787 L 2679,1786 L 2686,1779 L 2686,1778 L 2695,1769 L 2695,1768 L 2701,1762 L 2701,1761 L 2706,1756 L 2706,1755 L 2711,1750 L 2711,1749 L 2717,1743 L 2717,1742 L 2724,1735 L 2724,1734 L 2729,1729 L 2729,1728 L 2734,1723 L 2734,1722 L 2739,1717 L 2739,1716 L 2747,1708 L 2747,1707 L 2753,1701 L 2753,1700 L 2759,1694 L 2759,1693 L 2763,1689 L 2763,1688 L 2769,1682 L 2769,1681 L 2775,1675 L 2775,1674 L 2780,1669 L 2780,1668 L 2785,1663 L 2785,1662 L 2790,1657 L 2790,1656 L 2795,1651 L 2795,1650 L 2800,1645 L 2800,1644 L 2806,1638 L 2806,1637 L 2813,1630 L 2813,1629 L 2820,1622 L 2820,1621 L 2827,1614 L 2827,1613 L 2833,1607 L 2833,1606 L 2839,1600 L 2839,1599 L 2845,1593 L 2845,1592 L 2850,1587 L 2850,1586 L 2854,1582 L 2854,1581 L 2860,1575 L 2860,1574 L 2865,1569 L 2865,1568 L 2871,1562 L 2871,1561 L 2879,1553 L 2879,1552 L 2887,1544 L 2887,1543 L 2892,1538 L 2892,1537 L 2896,1533 L 2896,1532 L 2901,1527 L 2901,1526 L 2908,1519 L 2908,1518 L 2915,1511 L 2915,1510 L 2920,1505 L 2920,1504 L 2925,1499 L 2925,1498 L 2931,1492 L 2931,1491 L 2940,1482 L 2940,1481 L 2947,1474 L 2947,1473 L 2952,1468 L 2952,1467 L 2959,1460 L 2959,1459 L 2964,1454 L 2964,1453 L 2970,1447 L 2970,1446 L 2976,1440 L 2976,1439 L 2983,1432 L 2983,1431 L 2989,1425 L 2989,1424 L 2996,1417 L 2996,1416 L 3003,1409 L 3003,1408 L 3012,1399 L 3012,1398 L 3017,1393 L 3017,1392 L 3022,1387 L 3022,1386 L 3029,1379 L 3029,1378 L 3035,1372 L 3035,1371 L 3047,1359 L 3047,1358 L 3052,1353 L 3052,1348 L 3051,1347 L 3051,1344 L 3050,1343 L 3050,1340 L 3049,1339 L 3049,1337 L 3048,1336 L 3048,1334 L 3047,1333 L 3047,1331 L 3046,1330 L 3046,1328 L 3045,1327 L 3045,1326 L 3044,1325 L 3044,1323 L 3043,1322 L 3043,1321 L 3042,1320 L 3042,1318 L 3041,1317 L 3041,1316 L 3040,1315 L 3040,1313 L 3039,1312 L 3039,1311 L 3038,1310 L 3038,1309 L 3037,1308 L 3037,1306 L 3036,1305 L 3036,1304 L 3035,1303 L 3035,1302 L 3034,1301 L 3034,1299 L 3033,1298 L 3033,1297 L 3032,1296 L 3032,1295 L 3031,1294 L 3031,1293 L 3030,1292 L 3030,1291 L 3029,1290 L 3029,1288 L 3028,1287 L 3028,1286 L 3027,1285 L 3027,1284 L 3026,1283 L 3026,1282 L 3025,1281 L 3025,1280 L 3024,1279 L 3024,1278 L 3023,1277 L 3023,1276 L 3022,1275 L 3022,1274 L 3021,1273 L 3021,1272 L 3020,1271 L 3020,1270 L 3019,1269 L 3019,1268 L 3018,1267 L 3018,1266 L 3017,1265 L 3017,1264 L 3015,1262 L 3015,1261 L 3014,1260 L 3014,1259 L 3013,1258 L 3013,1257 L 3011,1255 L 3011,1254 L 3010,1253 L 3010,1252 L 3009,1251 L 3009,1250 L 3007,1248 L 3007,1247 L 3005,1245 L 3005,1244 L 3004,1243 L 3004,1242 L 3002,1240 L 3002,1239 L 3001,1238 L 3001,1237 L 2999,1235 L 2999,1234 L 2997,1232 L 2997,1231 L 2995,1229 L 2995,1228 L 2993,1226 L 2993,1225 L 2991,1223 L 2991,1222 L 2988,1219 L 2988,1218 L 2986,1216 L 2986,1215 L 2984,1213 L 2984,1212 L 2981,1209 L 2981,1208 L 2977,1204 L 2977,1203 L 2974,1200 L 2974,1199 L 2969,1194 L 2969,1193 L 2965,1189 L 2965,1188 L 2960,1183 L 2960,1182 L 2956,1178 L 2956,1177 L 2919,1140 L 2918,1140 L 2913,1135 L 2912,1135 L 2907,1130 L 2906,1130 L 2902,1126 L 2901,1126 L 2895,1120 L 2894,1120 L 2890,1116 L 2889,1116 L 2887,1114 L 2886,1114 L 2883,1111 L 2882,1111 L 2880,1109 L 2879,1109 L 2877,1107 L 2876,1107 L 2874,1105 L 2873,1105 L 2871,1103 L 2870,1103 L 2868,1101 L 2867,1101 L 2865,1099 L 2864,1099 L 2862,1097 L 2861,1097 L 2860,1096 L 2859,1096 L 2857,1094 L 2856,1094 L 2854,1092 L 2853,1092 L 2851,1090 L 2850,1090 L 2848,1088 L 2847,1088 L 2845,1086 L 2844,1086 L 2843,1085 L 2842,1085 L 2840,1083 L 2839,1083 L 2838,1082 L 2837,1082 L 2835,1080 L 2834,1080 L 2833,1079 L 2832,1079 L 2831,1078 L 2830,1078 L 2829,1077 L 2828,1077 L 2827,1076 L 2826,1076 L 2825,1075 L 2824,1075 L 2823,1074 L 2822,1074 L 2821,1073 L 2820,1073 L 2819,1072 L 2818,1072 L 2817,1071 L 2816,1071 L 2815,1070 L 2814,1070 L 2813,1069 L 2811,1069 L 2810,1068 L 2809,1068 L 2808,1067 L 2807,1067 L 2806,1066 L 2805,1066 L 2804,1065 L 2803,1065 L 2802,1064 L 2801,1064 L 2800,1063 L 2798,1063 L 2797,1062 L 2796,1062 L 2795,1061 L 2794,1061 L 2793,1060 L 2792,1060 L 2791,1059 L 2790,1059 L 2789,1058 L 2787,1058 L 2786,1057 L 2785,1057 L 2784,1056 L 2783,1056 L 2782,1055 L 2780,1055 L 2779,1054 L 2778,1054 L 2777,1053 L 2775,1053 L 2774,1052 L 2772,1052 L 2771,1051 L 2769,1051 L 2768,1050 L 2767,1050 L 2766,1049 L 2764,1049 L 2763,1048 L 2761,1048 L 2760,1047 L 2758,1047 L 2757,1046 L 2754,1046 L 2753,1045 L 2751,1045 L 2750,1044 L 2747,1044 L 2746,1043 L 2744,1043 L 2743,1042 L 2740,1042 L 2739,1041 L 2736,1041 L 2735,1040 L 2732,1040 L 2731,1039 L 2728,1039 L 2727,1038 L 2724,1038 L 2723,1037 L 2720,1037 L 2719,1036 L 2716,1036 L 2715,1035 L 2712,1035 L 2711,1034 L 2707,1034 L 2706,1033 L 2703,1033 L 2702,1032 L 2698,1032 L 2697,1031 L 2693,1031 L 2692,1030 L 2687,1030 L 2686,1029 L 2680,1029 L 2679,1028 L 2673,1028 L 2672,1027 L 2664,1027 L 2663,1026 L 2654,1026 L 2653,1025 L 2641,1025 L 2640,1024 Z M 2436,1099 L 2636,1099 L 2637,1100 L 2650,1100 L 2651,1101 L 2660,1101 L 2661,1102 L 2668,1102 L 2669,1103 L 2675,1103 L 2676,1104 L 2681,1104 L 2682,1105 L 2686,1105 L 2687,1106 L 2691,1106 L 2692,1107 L 2696,1107 L 2697,1108 L 2701,1108 L 2702,1109 L 2705,1109 L 2706,1110 L 2709,1110 L 2710,1111 L 2713,1111 L 2714,1112 L 2717,1112 L 2718,1113 L 2720,1113 L 2721,1114 L 2724,1114 L 2725,1115 L 2727,1115 L 2728,1116 L 2730,1116 L 2731,1117 L 2733,1117 L 2734,1118 L 2736,1118 L 2737,1119 L 2739,1119 L 2740,1120 L 2741,1120 L 2742,1121 L 2744,1121 L 2745,1122 L 2747,1122 L 2748,1123 L 2749,1123 L 2750,1124 L 2752,1124 L 2753,1125 L 2754,1125 L 2755,1126 L 2757,1126 L 2758,1127 L 2759,1127 L 2760,1128 L 2761,1128 L 2762,1129 L 2764,1129 L 2765,1130 L 2766,1130 L 2767,1131 L 2768,1131 L 2769,1132 L 2770,1132 L 2771,1133 L 2773,1133 L 2774,1134 L 2775,1134 L 2776,1135 L 2777,1135 L 2778,1136 L 2779,1136 L 2780,1137 L 2781,1137 L 2782,1138 L 2783,1138 L 2784,1139 L 2785,1139 L 2786,1140 L 2787,1140 L 2788,1141 L 2789,1141 L 2790,1142 L 2791,1142 L 2792,1143 L 2793,1143 L 2794,1144 L 2795,1144 L 2797,1146 L 2798,1146 L 2799,1147 L 2800,1147 L 2802,1149 L 2803,1149 L 2804,1150 L 2805,1150 L 2807,1152 L 2808,1152 L 2809,1153 L 2810,1153 L 2812,1155 L 2813,1155 L 2814,1156 L 2815,1156 L 2817,1158 L 2818,1158 L 2819,1159 L 2820,1159 L 2822,1161 L 2823,1161 L 2825,1163 L 2826,1163 L 2829,1166 L 2830,1166 L 2832,1168 L 2833,1168 L 2835,1170 L 2836,1170 L 2838,1172 L 2839,1172 L 2842,1175 L 2843,1175 L 2846,1178 L 2847,1178 L 2851,1182 L 2852,1182 L 2857,1187 L 2858,1187 L 2865,1194 L 2866,1194 L 2885,1213 L 2886,1213 L 2891,1218 L 2891,1219 L 2904,1232 L 2904,1233 L 2911,1240 L 2911,1241 L 2915,1245 L 2915,1246 L 2919,1250 L 2919,1251 L 2921,1253 L 2921,1254 L 2924,1257 L 2924,1258 L 2927,1261 L 2927,1262 L 2929,1264 L 2929,1265 L 2931,1267 L 2931,1268 L 2933,1270 L 2933,1271 L 2935,1273 L 2935,1274 L 2937,1276 L 2937,1277 L 2939,1279 L 2939,1280 L 2941,1282 L 2941,1283 L 2942,1284 L 2942,1285 L 2944,1287 L 2944,1288 L 2945,1289 L 2945,1290 L 2946,1291 L 2946,1292 L 2948,1294 L 2948,1295 L 2949,1296 L 2949,1297 L 2950,1298 L 2950,1299 L 2952,1301 L 2952,1302 L 2953,1303 L 2953,1304 L 2954,1305 L 2954,1306 L 2955,1307 L 2955,1308 L 2956,1309 L 2956,1310 L 2957,1311 L 2957,1312 L 2958,1313 L 2958,1314 L 2959,1315 L 2959,1316 L 2960,1317 L 2960,1319 L 2961,1320 L 2961,1321 L 2962,1322 L 2962,1323 L 2963,1324 L 2963,1325 L 2964,1326 L 2964,1327 L 2965,1328 L 2965,1329 L 2966,1330 L 2966,1332 L 2967,1333 L 2967,1335 L 2964,1338 L 2964,1339 L 2961,1342 L 2961,1343 L 2956,1348 L 2956,1349 L 2948,1357 L 2948,1358 L 2938,1368 L 2938,1369 L 2931,1376 L 2931,1377 L 2926,1382 L 2926,1383 L 2920,1389 L 2920,1390 L 2914,1396 L 2914,1397 L 2908,1403 L 2908,1404 L 2903,1409 L 2903,1410 L 2899,1414 L 2899,1415 L 2893,1421 L 2893,1422 L 2887,1428 L 2887,1429 L 2879,1437 L 2879,1438 L 2873,1444 L 2873,1445 L 2866,1452 L 2866,1453 L 2861,1458 L 2861,1459 L 2856,1464 L 2856,1465 L 2851,1470 L 2851,1471 L 2845,1477 L 2845,1478 L 2839,1484 L 2839,1485 L 2833,1491 L 2833,1492 L 2829,1496 L 2829,1497 L 2824,1502 L 2824,1503 L 2818,1509 L 2818,1510 L 2811,1517 L 2811,1518 L 2805,1524 L 2805,1525 L 2799,1531 L 2799,1532 L 2793,1538 L 2793,1539 L 2788,1544 L 2788,1545 L 2782,1551 L 2782,1552 L 2776,1558 L 2776,1559 L 2770,1565 L 2770,1566 L 2765,1571 L 2765,1572 L 2760,1577 L 2760,1578 L 2753,1585 L 2753,1586 L 2745,1594 L 2745,1595 L 2739,1601 L 2739,1602 L 2733,1608 L 2733,1609 L 2726,1616 L 2726,1617 L 2720,1623 L 2720,1624 L 2712,1632 L 2712,1633 L 2708,1637 L 2708,1638 L 2701,1645 L 2701,1646 L 2696,1651 L 2696,1652 L 2688,1660 L 2688,1661 L 2681,1668 L 2681,1669 L 2673,1677 L 2673,1678 L 2668,1683 L 2668,1684 L 2662,1690 L 2662,1691 L 2656,1697 L 2656,1698 L 2652,1702 L 2652,1703 L 2645,1710 L 2645,1711 L 2639,1717 L 2639,1718 L 2633,1724 L 2633,1725 L 2627,1731 L 2627,1732 L 2621,1738 L 2621,1739 L 2614,1746 L 2614,1747 L 2608,1753 L 2608,1754 L 2604,1758 L 2604,1759 L 2598,1765 L 2598,1766 L 2592,1772 L 2592,1773 L 2585,1780 L 2585,1781 L 2580,1786 L 2580,1787 L 2575,1792 L 2575,1793 L 2570,1798 L 2570,1799 L 2565,1804 L 2565,1805 L 2558,1812 L 2558,1813 L 2552,1819 L 2552,1820 L 2545,1827 L 2545,1828 L 2540,1833 L 2540,1834 L 2533,1841 L 2533,1842 L 2527,1848 L 2527,1849 L 2522,1854 L 2522,1855 L 2517,1860 L 2517,1861 L 2512,1866 L 2512,1867 L 2507,1872 L 2507,1873 L 2502,1878 L 2502,1879 L 2496,1885 L 2496,1886 L 2485,1897 L 2484,1896 L 2484,1888 L 2483,1887 L 2483,1872 L 2482,1871 L 2482,1853 L 2481,1852 L 2481,1835 L 2480,1834 L 2480,1818 L 2479,1817 L 2479,1803 L 2478,1802 L 2478,1789 L 2477,1788 L 2477,1773 L 2476,1772 L 2476,1756 L 2475,1755 L 2475,1740 L 2474,1739 L 2474,1724 L 2473,1723 L 2473,1707 L 2472,1706 L 2472,1692 L 2471,1691 L 2471,1676 L 2470,1675 L 2470,1660 L 2469,1659 L 2469,1644 L 2468,1643 L 2468,1628 L 2467,1627 L 2467,1612 L 2466,1611 L 2466,1592 L 2465,1591 L 2465,1578 L 2464,1577 L 2464,1562 L 2463,1561 L 2463,1546 L 2462,1545 L 2462,1532 L 2461,1531 L 2461,1516 L 2460,1515 L 2460,1501 L 2459,1500 L 2459,1486 L 2458,1485 L 2458,1472 L 2457,1471 L 2457,1455 L 2456,1454 L 2456,1438 L 2455,1437 L 2455,1423 L 2454,1422 L 2454,1408 L 2453,1407 L 2453,1392 L 2452,1391 L 2452,1376 L 2451,1375 L 2451,1360 L 2450,1359 L 2450,1344 L 2449,1343 L 2449,1326 L 2448,1325 L 2448,1309 L 2447,1308 L 2447,1292 L 2446,1291 L 2446,1275 L 2445,1274 L 2445,1259 L 2444,1258 L 2444,1241 L 2443,1240 L 2443,1223 L 2442,1222 L 2442,1205 L 2441,1204 L 2441,1187 L 2440,1186 L 2440,1172 L 2439,1171 L 2439,1159 L 2438,1158 L 2438,1146 L 2437,1145 L 2437,1130 L 2436,1129 L 2436,1116 L 2435,1115 L 2435,1104 L 2434,1103 L 2434,1101 Z M 1479,1024 L 1485,1030 L 1486,1030 L 1495,1039 L 1496,1039 L 1502,1045 L 1503,1045 L 1504,1046 L 1504,1047 L 1505,1047 L 1512,1054 L 1513,1054 L 1523,1064 L 1524,1064 L 1534,1074 L 1535,1074 L 1546,1085 L 1547,1085 L 1548,1086 L 1548,1087 L 1549,1087 L 1563,1101 L 1564,1101 L 1572,1109 L 1573,1109 L 1583,1119 L 1584,1119 L 1593,1128 L 1594,1128 L 1619,1153 L 1620,1153 L 1630,1163 L 1631,1163 L 1640,1172 L 1641,1172 L 1648,1179 L 1649,1179 L 1661,1191 L 1662,1191 L 1678,1207 L 1679,1207 L 1691,1219 L 1692,1219 L 1701,1228 L 1702,1228 L 1712,1238 L 1713,1238 L 1720,1245 L 1721,1245 L 1738,1262 L 1739,1262 L 1752,1275 L 1753,1275 L 1763,1285 L 1764,1285 L 1773,1294 L 1774,1294 L 1781,1301 L 1782,1301 L 1794,1313 L 1795,1313 L 1806,1324 L 1807,1324 L 1808,1325 L 1808,1326 L 1809,1326 L 1818,1335 L 1819,1335 L 1834,1350 L 1835,1350 L 1844,1359 L 1845,1359 L 1859,1373 L 1860,1373 L 1874,1387 L 1875,1387 L 1885,1397 L 1886,1397 L 1896,1407 L 1897,1407 L 1910,1420 L 1911,1420 L 1912,1421 L 1912,1422 L 1913,1422 L 1924,1433 L 1925,1433 L 1940,1448 L 1941,1448 L 1950,1457 L 1951,1457 L 1952,1458 L 1952,1459 L 1953,1459 L 1961,1467 L 1962,1467 L 1972,1477 L 1973,1477 L 1985,1489 L 1986,1489 L 1996,1499 L 1997,1499 L 2008,1510 L 2009,1510 L 2016,1517 L 2017,1517 L 2027,1527 L 2028,1527 L 2038,1537 L 2039,1537 L 2051,1549 L 2052,1549 L 2061,1558 L 2062,1558 L 2071,1567 L 2072,1567 L 2073,1568 L 2073,1569 L 2074,1569 L 2083,1578 L 2084,1578 L 2096,1590 L 2097,1590 L 2108,1601 L 2109,1601 L 2120,1612 L 2121,1612 L 2130,1621 L 2131,1621 L 2139,1629 L 2140,1629 L 2149,1638 L 2150,1638 L 2158,1646 L 2159,1646 L 2168,1655 L 2169,1655 L 2177,1663 L 2178,1663 L 2188,1673 L 2189,1673 L 2200,1684 L 2201,1684 L 2210,1693 L 2211,1693 L 2221,1703 L 2222,1703 L 2230,1711 L 2231,1711 L 2232,1712 L 2232,1713 L 2233,1713 L 2242,1722 L 2243,1722 L 2252,1731 L 2253,1731 L 2262,1740 L 2263,1740 L 2270,1747 L 2271,1747 L 2280,1756 L 2281,1756 L 2294,1769 L 2295,1769 L 2312,1786 L 2312,1787 L 2313,1787 L 2314,1788 L 2314,1789 L 2334,1809 L 2334,1810 L 2342,1818 L 2342,1819 L 2344,1821 L 2344,1810 L 2343,1809 L 2343,1794 L 2342,1793 L 2342,1778 L 2341,1777 L 2341,1762 L 2340,1761 L 2340,1746 L 2339,1745 L 2339,1731 L 2338,1730 L 2338,1717 L 2337,1716 L 2337,1700 L 2336,1699 L 2336,1684 L 2335,1683 L 2335,1671 L 2334,1670 L 2334,1656 L 2333,1655 L 2333,1639 L 2332,1638 L 2332,1622 L 2331,1621 L 2331,1605 L 2330,1604 L 2330,1591 L 2329,1590 L 2329,1575 L 2328,1574 L 2328,1560 L 2327,1559 L 2327,1544 L 2326,1543 L 2326,1525 L 2325,1524 L 2325,1508 L 2324,1507 L 2324,1490 L 2323,1489 L 2323,1474 L 2322,1473 L 2322,1460 L 2321,1459 L 2321,1442 L 2320,1441 L 2320,1426 L 2319,1425 L 2319,1408 L 2318,1407 L 2318,1390 L 2317,1389 L 2317,1373 L 2316,1372 L 2316,1356 L 2315,1355 L 2315,1339 L 2314,1338 L 2314,1323 L 2313,1322 L 2313,1304 L 2312,1303 L 2312,1288 L 2311,1287 L 2311,1272 L 2310,1271 L 2310,1256 L 2309,1255 L 2309,1240 L 2308,1239 L 2308,1226 L 2307,1225 L 2307,1211 L 2306,1210 L 2306,1197 L 2305,1196 L 2305,1179 L 2304,1178 L 2304,1164 L 2303,1163 L 2303,1151 L 2302,1150 L 2302,1138 L 2301,1137 L 2301,1123 L 2300,1122 L 2300,1108 L 2299,1107 L 2299,1094 L 2298,1093 L 2298,1077 L 2297,1076 L 2297,1061 L 2296,1060 L 2296,1048 L 2295,1047 L 2295,1034 L 2294,1033 L 2294,1024 Z M 1675,1100 L 1676,1099 L 2223,1099 L 2225,1101 L 2225,1114 L 2226,1115 L 2226,1132 L 2227,1133 L 2227,1149 L 2228,1150 L 2228,1167 L 2229,1168 L 2229,1184 L 2230,1185 L 2230,1201 L 2231,1202 L 2231,1219 L 2232,1220 L 2232,1238 L 2233,1239 L 2233,1253 L 2234,1254 L 2234,1271 L 2235,1272 L 2235,1284 L 2236,1285 L 2236,1300 L 2237,1301 L 2237,1314 L 2238,1315 L 2238,1330 L 2239,1331 L 2239,1345 L 2240,1346 L 2240,1361 L 2241,1362 L 2241,1378 L 2242,1379 L 2242,1395 L 2243,1396 L 2243,1411 L 2244,1412 L 2244,1426 L 2245,1427 L 2245,1441 L 2246,1442 L 2246,1457 L 2247,1458 L 2247,1471 L 2248,1472 L 2248,1487 L 2249,1488 L 2249,1506 L 2250,1507 L 2250,1523 L 2251,1524 L 2251,1540 L 2252,1541 L 2252,1555 L 2253,1556 L 2253,1570 L 2254,1571 L 2254,1584 L 2255,1585 L 2255,1601 L 2256,1602 L 2256,1619 L 2257,1620 L 2257,1633 L 2256,1634 L 2246,1624 L 2245,1624 L 2235,1614 L 2234,1614 L 2221,1601 L 2220,1601 L 2209,1590 L 2208,1590 L 2197,1579 L 2196,1579 L 2185,1568 L 2184,1568 L 2174,1558 L 2173,1558 L 2165,1550 L 2164,1550 L 2154,1540 L 2153,1540 L 2139,1526 L 2138,1526 L 2124,1512 L 2123,1512 L 2113,1502 L 2112,1502 L 2111,1501 L 2111,1500 L 2110,1500 L 2101,1491 L 2100,1491 L 2091,1482 L 2090,1482 L 2078,1470 L 2077,1470 L 2076,1469 L 2076,1468 L 2075,1468 L 2063,1456 L 2062,1456 L 2052,1446 L 2051,1446 L 2042,1437 L 2041,1437 L 2032,1428 L 2031,1428 L 2021,1418 L 2020,1418 L 2009,1407 L 2008,1407 L 2007,1406 L 2007,1405 L 2006,1405 L 1994,1393 L 1993,1393 L 1980,1380 L 1979,1380 L 1967,1368 L 1966,1368 L 1956,1358 L 1955,1358 L 1945,1348 L 1944,1348 L 1927,1331 L 1926,1331 L 1913,1318 L 1912,1318 L 1901,1307 L 1900,1307 L 1891,1298 L 1890,1298 L 1882,1290 L 1881,1290 L 1868,1277 L 1867,1277 L 1858,1268 L 1857,1268 L 1851,1262 L 1850,1262 L 1837,1249 L 1836,1249 L 1825,1238 L 1824,1238 L 1814,1228 L 1813,1228 L 1802,1217 L 1801,1217 L 1790,1206 L 1789,1206 L 1781,1198 L 1780,1198 L 1771,1189 L 1770,1189 L 1758,1177 L 1757,1177 L 1740,1160 L 1739,1160 L 1729,1150 L 1728,1150 L 1727,1149 L 1727,1148 L 1726,1148 L 1716,1138 L 1715,1138 L 1707,1130 L 1706,1130 L 1694,1118 L 1693,1118 L 1683,1108 L 1682,1108 L 1675,1101 Z" fill="white" fill-rule="evenodd" /></svg>
