<?xml version="1.0" encoding="utf-8" ?>
<svg baseProfile="full" height="4096" version="1.1" viewBox="0 0 4096 4096" width="4096" xmlns="http://www.w3.org/2000/svg" xmlns:ev="http://www.w3.org/2001/xml-events" xmlns:xlink="http://www.w3.org/1999/xlink"><defs /><rect fill="white" height="100%" width="100%" x="0" y="0" /><path d="M 1478,939 L 1477,940 L 1450,940 L 1449,941 L 1435,941 L 1434,942 L 1424,942 L 1423,943 L 1416,943 L 1415,944 L 1407,944 L 1406,945 L 1400,945 L 1399,946 L 1394,946 L 1393,947 L 1388,947 L 1387,948 L 1382,948 L 1381,949 L 1376,949 L 1375,950 L 1372,950 L 1371,951 L 1367,951 L 1366,952 L 1362,952 L 1361,953 L 1358,953 L 1357,954 L 1354,954 L 1353,955 L 1350,955 L 1349,956 L 1346,956 L 1345,957 L 1342,957 L 1341,958 L 1338,958 L 1337,959 L 1335,959 L 1334,960 L 1331,960 L 1330,961 L 1328,961 L 1327,962 L 1325,962 L 1324,963 L 1321,963 L 1320,964 L 1318,964 L 1317,965 L 1315,965 L 1314,966 L 1312,966 L 1311,967 L 1309,967 L 1308,968 L 1306,968 L 1305,969 L 1303,969 L 1302,970 L 1300,970 L 1299,971 L 1297,971 L 1296,972 L 1294,972 L 1293,973 L 1292,973 L 1291,974 L 1289,974 L 1288,975 L 1286,975 L 1285,976 L 1284,976 L 1283,977 L 1281,977 L 1280,978 L 1279,978 L 1278,979 L 1276,979 L 1275,980 L 1274,980 L 1273,981 L 1271,981 L 1270,982 L 1269,982 L 1268,983 L 1266,983 L 1265,984 L 1264,984 L 1263,985 L 1262,985 L 1261,986 L 1259,986 L 1258,987 L 1257,987 L 1256,988 L 1255,988 L 1254,989 L 1253,989 L 1252,990 L 1250,990 L 1249,991 L 1248,991 L 1247,992 L 1246,992 L 1245,993 L 1244,993 L 1243,994 L 1242,994 L 1241,995 L 1240,995 L 1239,996 L 1238,996 L 1237,997 L 1236,997 L 1235,998 L 1234,998 L 1233,999 L 1232,999 L 1231,1000 L 1230,1000 L 1229,1001 L 1228,1001 L 1227,1002 L 1226,1002 L 1225,1003 L 1224,1003 L 1223,1004 L 1222,1004 L 1220,1006 L 1219,1006 L 1218,1007 L 1217,1007 L 1216,1008 L 1215,1008 L 1214,1009 L 1213,1009 L 1211,1011 L 1210,1011 L 1209,1012 L 1208,1012 L 1207,1013 L 1206,1013 L 1204,1015 L 1203,1015 L 1202,1016 L 1201,1016 L 1199,1018 L 1198,1018 L 1196,1020 L 1195,1020 L 1194,1021 L 1193,1021 L 1191,1023 L 1190,1023 L 1188,1025 L 1187,1025 L 1185,1027 L 1184,1027 L 1182,1029 L 1181,1029 L 1179,1031 L 1178,1031 L 1176,1033 L 1175,1033 L 1172,1036 L 1171,1036 L 1169,1038 L 1168,1038 L 1166,1040 L 1165,1040 L 1161,1044 L 1160,1044 L 1158,1046 L 1157,1046 L 1154,1049 L 1153,1049 L 1150,1052 L 1149,1052 L 1146,1055 L 1145,1055 L 1141,1059 L 1140,1059 L 1135,1064 L 1134,1064 L 1130,1068 L 1129,1068 L 1122,1075 L 1121,1075 L 1108,1088 L 1107,1088 L 1085,1110 L 1085,1111 L 1075,1121 L 1075,1122 L 1069,1128 L 1069,1129 L 1064,1134 L 1064,1135 L 1060,1139 L 1060,1140 L 1056,1144 L 1056,1145 L 1052,1149 L 1052,1150 L 1049,1153 L 1049,1154 L 1045,1158 L 1045,1159 L 1043,1161 L 1043,1162 L 1040,1165 L 1040,1166 L 1037,1169 L 1037,1170 L 1035,1172 L 1035,1173 L 1033,1175 L 1033,1176 L 1031,1178 L 1031,1179 L 1028,1182 L 1028,1183 L 1027,1184 L 1027,1185 L 1025,1187 L 1025,1188 L 1023,1190 L 1023,1191 L 1021,1193 L 1021,1194 L 1019,1196 L 1019,1197 L 1018,1198 L 1018,1199 L 1017,1200 L 1017,1201 L 1015,1203 L 1015,1204 L 1014,1205 L 1014,1206 L 1012,1208 L 1012,1209 L 1011,1210 L 1011,1211 L 1010,1212 L 1010,1213 L 1009,1214 L 1009,1215 L 1008,1216 L 1008,1217 L 1006,1219 L 1006,1220 L 1005,1221 L 1005,1222 L 1004,1223 L 1004,1224 L 1003,1225 L 1003,1226 L 1002,1227 L 1002,1228 L 1001,1229 L 1001,1230 L 1000,1231 L 1000,1232 L 999,1233 L 999,1234 L 998,1235 L 998,1236 L 997,1237 L 997,1238 L 996,1239 L 996,1240 L 995,1241 L 995,1242 L 994,1243 L 994,1244 L 993,1245 L 993,1246 L 992,1247 L 992,1248 L 991,1249 L 991,1250 L 990,1251 L 990,1252 L 989,1253 L 989,1255 L 988,1256 L 988,1257 L 987,1258 L 987,1259 L 986,1260 L 986,1261 L 985,1262 L 985,1263 L 984,1264 L 984,1266 L 983,1267 L 983,1268 L 982,1269 L 982,1271 L 981,1272 L 981,1273 L 980,1274 L 980,1276 L 979,1277 L 979,1278 L 978,1279 L 978,1281 L 977,1282 L 977,1283 L 976,1284 L 976,1286 L 975,1287 L 975,1289 L 974,1290 L 974,1292 L 973,1293 L 973,1294 L 972,1295 L 972,1297 L 971,1298 L 971,1300 L 970,1301 L 970,1303 L 969,1304 L 969,1306 L 968,1307 L 968,1309 L 967,1310 L 967,1311 L 966,1312 L 966,1315 L 965,1316 L 965,1318 L 964,1319 L 964,1321 L 963,1322 L 963,1325 L 962,1326 L 962,1328 L 961,1329 L 961,1332 L 960,1333 L 960,1335 L 959,1336 L 959,1339 L 958,1340 L 958,1343 L 957,1344 L 957,1346 L 956,1347 L 956,1350 L 955,1351 L 955,1354 L 954,1355 L 954,1358 L 953,1359 L 953,1362 L 952,1363 L 952,1367 L 951,1368 L 951,1371 L 950,1372 L 950,1376 L 949,1377 L 949,1381 L 948,1382 L 948,1387 L 947,1388 L 947,1393 L 946,1394 L 946,1399 L 945,1400 L 945,1407 L 944,1408 L 944,1414 L 943,1415 L 943,1423 L 942,1424 L 942,1434 L 941,1435 L 941,1447 L 940,1448 L 940,1471 L 939,1472 L 939,2623 L 940,2624 L 940,2649 L 941,2650 L 941,2663 L 942,2664 L 942,2675 L 943,2676 L 943,2684 L 944,2685 L 944,2693 L 945,2694 L 945,2700 L 946,2701 L 946,2706 L 947,2707 L 947,2712 L 948,2713 L 948,2718 L 949,2719 L 949,2723 L 950,2724 L 950,2728 L 951,2729 L 951,2732 L 952,2733 L 952,2737 L 953,2738 L 953,2741 L 954,2742 L 954,2745 L 955,2746 L 955,2749 L 956,2750 L 956,2753 L 957,2754 L 957,2757 L 958,2758 L 958,2761 L 959,2762 L 959,2765 L 960,2766 L 960,2768 L 961,2769 L 961,2771 L 962,2772 L 962,2775 L 963,2776 L 963,2778 L 964,2779 L 964,2781 L 965,2782 L 965,2785 L 966,2786 L 966,2788 L 967,2789 L 967,2791 L 968,2792 L 968,2794 L 969,2795 L 969,2797 L 970,2798 L 970,2800 L 971,2801 L 971,2803 L 972,2804 L 972,2806 L 973,2807 L 973,2809 L 974,2810 L 974,2811 L 975,2812 L 975,2814 L 976,2815 L 976,2817 L 977,2818 L 977,2819 L 978,2820 L 978,2822 L 979,2823 L 979,2824 L 980,2825 L 980,2827 L 981,2828 L 981,2829 L 982,2830 L 982,2831 L 983,2832 L 983,2833 L 984,2834 L 984,2836 L 985,2837 L 985,2838 L 986,2839 L 986,2840 L 987,2841 L 987,2842 L 988,2843 L 988,2844 L 989,2845 L 989,2846 L 990,2847 L 990,2849 L 991,2850 L 991,2851 L 992,2852 L 992,2853 L 993,2854 L 993,2855 L 994,2856 L 994,2857 L 995,2858 L 995,2859 L 996,2860 L 996,2861 L 997,2862 L 997,2863 L 998,2864 L 998,2865 L 1000,2867 L 1000,2868 L 1001,2869 L 1001,2870 L 1002,2871 L 1002,2872 L 1003,2873 L 1003,2874 L 1004,2875 L 1004,2876 L 1005,2877 L 1005,2878 L 1007,2880 L 1007,2881 L 1008,2882 L 1008,2883 L 1009,2884 L 1009,2885 L 1011,2887 L 1011,2888 L 1012,2889 L 1012,2890 L 1014,2892 L 1014,2893 L 1015,2894 L 1015,2895 L 1017,2897 L 1017,2898 L 1019,2900 L 1019,2901 L 1020,2902 L 1020,2903 L 1022,2905 L 1022,2906 L 1024,2908 L 1024,2909 L 1025,2910 L 1025,2911 L 1028,2914 L 1028,2915 L 1029,2916 L 1029,2917 L 1031,2919 L 1031,2920 L 1033,2922 L 1033,2923 L 1036,2926 L 1036,2927 L 1038,2929 L 1038,2930 L 1041,2933 L 1041,2934 L 1044,2937 L 1044,2938 L 1047,2941 L 1047,2942 L 1050,2945 L 1050,2946 L 1054,2950 L 1054,2951 L 1058,2955 L 1058,2956 L 1064,2962 L 1064,2963 L 1072,2971 L 1072,2972 L 1086,2986 L 1086,2987 L 1102,3003 L 1103,3003 L 1104,3004 L 1104,3005 L 1105,3005 L 1116,3016 L 1117,3016 L 1125,3024 L 1126,3024 L 1131,3029 L 1132,3029 L 1137,3034 L 1138,3034 L 1142,3038 L 1143,3038 L 1147,3042 L 1148,3042 L 1151,3045 L 1152,3045 L 1154,3047 L 1155,3047 L 1158,3050 L 1159,3050 L 1162,3053 L 1163,3053 L 1165,3055 L 1166,3055 L 1169,3058 L 1170,3058 L 1172,3060 L 1173,3060 L 1176,3063 L 1177,3063 L 1179,3065 L 1180,3065 L 1182,3067 L 1183,3067 L 1186,3070 L 1187,3070 L 1188,3071 L 1189,3071 L 1192,3074 L 1193,3074 L 1194,3075 L 1195,3075 L 1197,3077 L 1198,3077 L 1200,3079 L 1201,3079 L 1202,3080 L 1203,3080 L 1205,3082 L 1206,3082 L 1207,3083 L 1208,3083 L 1209,3084 L 1210,3084 L 1212,3086 L 1213,3086 L 1214,3087 L 1215,3087 L 1216,3088 L 1217,3088 L 1218,3089 L 1219,3089 L 1220,3090 L 1221,3090 L 1223,3092 L 1224,3092 L 1225,3093 L 1226,3093 L 1227,3094 L 1228,3094 L 1229,3095 L 1230,3095 L 1231,3096 L 1232,3096 L 1233,3097 L 1234,3097 L 1235,3098 L 1236,3098 L 1237,3099 L 1238,3099 L 1239,3100 L 1240,3100 L 1241,3101 L 1242,3101 L 1243,3102 L 1244,3102 L 1245,3103 L 1246,3103 L 1247,3104 L 1248,3104 L 1249,3105 L 1251,3105 L 1252,3106 L 1253,3106 L 1254,3107 L 1255,3107 L 1256,3108 L 1257,3108 L 1258,3109 L 1259,3109 L 1260,3110 L 1262,3110 L 1263,3111 L 1264,3111 L 1265,3112 L 1266,3112 L 1267,3113 L 1269,3113 L 1270,3114 L 1271,3114 L 1272,3115 L 1274,3115 L 1275,3116 L 1276,3116 L 1277,3117 L 1278,3117 L 1279,3118 L 1281,3118 L 1282,3119 L 1284,3119 L 1285,3120 L 1287,3120 L 1288,3121 L 1289,3121 L 1290,3122 L 1292,3122 L 1293,3123 L 1295,3123 L 1296,3124 L 1297,3124 L 1298,3125 L 1300,3125 L 1301,3126 L 1303,3126 L 1304,3127 L 1306,3127 L 1307,3128 L 1309,3128 L 1310,3129 L 1313,3129 L 1314,3130 L 1316,3130 L 1317,3131 L 1319,3131 L 1320,3132 L 1322,3132 L 1323,3133 L 1325,3133 L 1326,3134 L 1329,3134 L 1330,3135 L 1333,3135 L 1334,3136 L 1336,3136 L 1337,3137 L 1340,3137 L 1341,3138 L 1343,3138 L 1344,3139 L 1347,3139 L 1348,3140 L 1351,3140 L 1352,3141 L 1355,3141 L 1356,3142 L 1359,3142 L 1360,3143 L 1363,3143 L 1364,3144 L 1367,3144 L 1368,3145 L 1372,3145 L 1373,3146 L 1377,3146 L 1378,3147 L 1382,3147 L 1383,3148 L 1388,3148 L 1389,3149 L 1393,3149 L 1394,3150 L 1400,3150 L 1401,3151 L 1408,3151 L 1409,3152 L 1419,3152 L 1420,3153 L 1431,3153 L 1432,3154 L 1450,3154 L 1451,3155 L 2643,3155 L 2644,3154 L 2661,3154 L 2662,3153 L 2674,3153 L 2675,3152 L 2684,3152 L 2685,3151 L 2693,3151 L 2694,3150 L 2700,3150 L 2701,3149 L 2706,3149 L 2707,3148 L 2711,3148 L 2712,3147 L 2717,3147 L 2718,3146 L 2722,3146 L 2723,3145 L 2727,3145 L 2728,3144 L 2731,3144 L 2732,3143 L 2736,3143 L 2737,3142 L 2740,3142 L 2741,3141 L 2744,3141 L 2745,3140 L 2747,3140 L 2748,3139 L 2751,3139 L 2752,3138 L 2755,3138 L 2756,3137 L 2758,3137 L 2759,3136 L 2762,3136 L 2763,3135 L 2765,3135 L 2766,3134 L 2769,3134 L 2770,3133 L 2772,3133 L 2773,3132 L 2776,3132 L 2777,3131 L 2779,3131 L 2780,3130 L 2782,3130 L 2783,3129 L 2785,3129 L 2786,3128 L 2788,3128 L 2789,3127 L 2791,3127 L 2792,3126 L 2794,3126 L 2795,3125 L 2797,3125 L 2798,3124 L 2799,3124 L 2800,3123 L 2802,3123 L 2803,3122 L 2805,3122 L 2806,3121 L 2808,3121 L 2809,3120 L 2811,3120 L 2812,3119 L 2813,3119 L 2814,3118 L 2815,3118 L 2816,3117 L 2818,3117 L 2819,3116 L 2820,3116 L 2821,3115 L 2822,3115 L 2823,3114 L 2825,3114 L 2826,3113 L 2827,3113 L 2828,3112 L 2829,3112 L 2830,3111 L 2831,3111 L 2832,3110 L 2834,3110 L 2835,3109 L 2836,3109 L 2837,3108 L 2838,3108 L 2839,3107 L 2840,3107 L 2841,3106 L 2842,3106 L 2843,3105 L 2844,3105 L 2845,3104 L 2846,3104 L 2847,3103 L 2849,3103 L 2850,3102 L 2851,3102 L 2852,3101 L 2853,3101 L 2854,3100 L 2855,3100 L 2856,3099 L 2857,3099 L 2858,3098 L 2859,3098 L 2860,3097 L 2861,3097 L 2862,3096 L 2863,3096 L 2864,3095 L 2865,3095 L 2866,3094 L 2867,3094 L 2868,3093 L 2869,3093 L 2870,3092 L 2871,3092 L 2872,3091 L 2873,3091 L 2874,3090 L 2875,3090 L 2876,3089 L 2877,3089 L 2878,3088 L 2879,3088 L 2880,3087 L 2881,3087 L 2883,3085 L 2884,3085 L 2885,3084 L 2886,3084 L 2887,3083 L 2888,3083 L 2890,3081 L 2891,3081 L 2892,3080 L 2893,3080 L 2894,3079 L 2895,3079 L 2897,3077 L 2898,3077 L 2900,3075 L 2901,3075 L 2902,3074 L 2903,3074 L 2905,3072 L 2906,3072 L 2907,3071 L 2908,3071 L 2910,3069 L 2911,3069 L 2913,3067 L 2914,3067 L 2916,3065 L 2917,3065 L 2919,3063 L 2920,3063 L 2922,3061 L 2923,3061 L 2925,3059 L 2926,3059 L 2929,3056 L 2930,3056 L 2932,3054 L 2933,3054 L 2936,3051 L 2937,3051 L 2940,3048 L 2941,3048 L 2944,3045 L 2945,3045 L 2948,3042 L 2949,3042 L 2953,3038 L 2954,3038 L 2958,3034 L 2959,3034 L 2963,3030 L 2964,3030 L 2970,3024 L 2971,3024 L 2978,3017 L 2979,3017 L 2990,3006 L 2991,3006 L 2991,3005 L 2993,3003 L 2994,3003 L 2994,3002 L 2995,3001 L 2996,3001 L 2996,3000 L 2998,2998 L 2999,2998 L 2999,2997 L 3022,2974 L 3022,2973 L 3029,2966 L 3029,2965 L 3035,2959 L 3035,2958 L 3039,2954 L 3039,2953 L 3044,2948 L 3044,2947 L 3048,2943 L 3048,2942 L 3051,2939 L 3051,2938 L 3054,2935 L 3054,2934 L 3056,2932 L 3056,2931 L 3059,2928 L 3059,2927 L 3061,2925 L 3061,2924 L 3063,2922 L 3063,2921 L 3065,2919 L 3065,2918 L 3067,2916 L 3067,2915 L 3069,2913 L 3069,2912 L 3071,2910 L 3071,2909 L 3073,2907 L 3073,2906 L 3074,2905 L 3074,2904 L 3076,2902 L 3076,2901 L 3078,2899 L 3078,2898 L 3079,2897 L 3079,2896 L 3081,2894 L 3081,2893 L 3082,2892 L 3082,2891 L 3083,2890 L 3083,2889 L 3085,2887 L 3085,2886 L 3086,2885 L 3086,2884 L 3087,2883 L 3087,2882 L 3088,2881 L 3088,2880 L 3090,2878 L 3090,2877 L 3091,2876 L 3091,2875 L 3092,2874 L 3092,2873 L 3094,2871 L 3094,2869 L 3095,2868 L 3095,2867 L 3096,2866 L 3096,2865 L 3097,2864 L 3097,2863 L 3098,2862 L 3098,2861 L 3099,2860 L 3099,2859 L 3100,2858 L 3100,2857 L 3102,2855 L 3102,2853 L 3103,2852 L 3103,2851 L 3104,2850 L 3104,2849 L 3105,2848 L 3105,2847 L 3106,2846 L 3106,2845 L 3107,2844 L 3107,2843 L 3108,2842 L 3108,2841 L 3109,2840 L 3109,2838 L 3110,2837 L 3110,2836 L 3111,2835 L 3111,2834 L 3112,2833 L 3112,2832 L 3113,2831 L 3113,2829 L 3114,2828 L 3114,2827 L 3115,2826 L 3115,2825 L 3116,2824 L 3116,2822 L 3117,2821 L 3117,2820 L 3118,2819 L 3118,2817 L 3119,2816 L 3119,2815 L 3120,2814 L 3120,2812 L 3121,2811 L 3121,2810 L 3122,2809 L 3122,2807 L 3123,2806 L 3123,2804 L 3124,2803 L 3124,2801 L 3125,2800 L 3125,2799 L 3126,2798 L 3126,2796 L 3127,2795 L 3127,2793 L 3128,2792 L 3128,2790 L 3129,2789 L 3129,2787 L 3130,2786 L 3130,2784 L 3131,2783 L 3131,2781 L 3132,2780 L 3132,2777 L 3133,2776 L 3133,2774 L 3134,2773 L 3134,2771 L 3135,2770 L 3135,2767 L 3136,2766 L 3136,2764 L 3137,2763 L 3137,2760 L 3138,2759 L 3138,2756 L 3139,2755 L 3139,2752 L 3140,2751 L 3140,2748 L 3141,2747 L 3141,2744 L 3142,2743 L 3142,2740 L 3143,2739 L 3143,2735 L 3144,2734 L 3144,2731 L 3145,2730 L 3145,2726 L 3146,2725 L 3146,2721 L 3147,2720 L 3147,2715 L 3148,2714 L 3148,2709 L 3149,2708 L 3149,2703 L 3150,2702 L 3150,2696 L 3151,2695 L 3151,2687 L 3152,2686 L 3152,2678 L 3153,2677 L 3153,2667 L 3154,2666 L 3154,2654 L 3155,2653 L 3155,2622 L 3156,2621 L 3156,1479 L 3155,1478 L 3155,1448 L 3154,1447 L 3154,1434 L 3153,1433 L 3153,1424 L 3152,1423 L 3152,1415 L 3151,1414 L 3151,1408 L 3150,1407 L 3150,1400 L 3149,1399 L 3149,1394 L 3148,1393 L 3148,1388 L 3147,1387 L 3147,1383 L 3146,1382 L 3146,1378 L 3145,1377 L 3145,1373 L 3144,1372 L 3144,1368 L 3143,1367 L 3143,1364 L 3142,1363 L 3142,1360 L 3141,1359 L 3141,1356 L 3140,1355 L 3140,1352 L 3139,1351 L 3139,1348 L 3138,1347 L 3138,1344 L 3137,1343 L 3137,1340 L 3136,1339 L 3136,1336 L 3135,1335 L 3135,1333 L 3134,1332 L 3134,1329 L 3133,1328 L 3133,1326 L 3132,1325 L 3132,1323 L 3131,1322 L 3131,1319 L 3130,1318 L 3130,1316 L 3129,1315 L 3129,1313 L 3128,1312 L 3128,1310 L 3127,1309 L 3127,1307 L 3126,1306 L 3126,1304 L 3125,1303 L 3125,1301 L 3124,1300 L 3124,1298 L 3123,1297 L 3123,1295 L 3122,1294 L 3122,1293 L 3121,1292 L 3121,1290 L 3120,1289 L 3120,1287 L 3119,1286 L 3119,1285 L 3118,1284 L 3118,1282 L 3117,1281 L 3117,1279 L 3116,1278 L 3116,1277 L 3115,1276 L 3115,1274 L 3114,1273 L 3114,1272 L 3113,1271 L 3113,1270 L 3112,1269 L 3112,1267 L 3111,1266 L 3111,1265 L 3110,1264 L 3110,1262 L 3109,1261 L 3109,1260 L 3108,1259 L 3108,1258 L 3107,1257 L 3107,1256 L 3106,1255 L 3106,1254 L 3105,1253 L 3105,1251 L 3104,1250 L 3104,1249 L 3103,1248 L 3103,1247 L 3102,1246 L 3102,1245 L 3101,1244 L 3101,1243 L 3100,1242 L 3100,1241 L 3099,1240 L 3099,1239 L 3098,1238 L 3098,1237 L 3097,1236 L 3097,1235 L 3096,1234 L 3096,1233 L 3095,1232 L 3095,1231 L 3094,1230 L 3094,1229 L 3093,1228 L 3093,1227 L 3092,1226 L 3092,1225 L 3091,1224 L 3091,1223 L 3090,1222 L 3090,1221 L 3089,1220 L 3089,1219 L 3088,1218 L 3088,1217 L 3087,1216 L 3087,1215 L 3085,1213 L 3085,1212 L 3084,1211 L 3084,1210 L 3083,1209 L 3083,1208 L 3082,1207 L 3082,1206 L 3081,1205 L 3081,1204 L 3080,1203 L 3080,1202 L 3078,1200 L 3078,1199 L 3077,1198 L 3077,1197 L 3075,1195 L 3075,1194 L 3074,1193 L 3074,1192 L 3072,1190 L 3072,1189 L 3071,1188 L 3071,1187 L 3069,1185 L 3069,1184 L 3066,1181 L 3066,1180 L 3064,1178 L 3064,1177 L 3062,1175 L 3062,1174 L 3059,1171 L 3059,1170 L 3056,1167 L 3056,1166 L 3054,1164 L 3054,1163 L 3051,1160 L 3051,1159 L 3048,1156 L 3048,1155 L 3046,1153 L 3046,1152 L 3041,1147 L 3041,1146 L 3037,1142 L 3037,1141 L 3032,1136 L 3032,1135 L 3026,1129 L 3026,1128 L 3020,1122 L 3020,1121 L 3007,1108 L 3007,1107 L 2988,1088 L 2987,1088 L 2975,1076 L 2974,1076 L 2969,1071 L 2968,1071 L 2962,1065 L 2961,1065 L 2956,1060 L 2955,1060 L 2951,1056 L 2950,1056 L 2947,1053 L 2946,1053 L 2942,1049 L 2941,1049 L 2939,1047 L 2938,1047 L 2935,1044 L 2934,1044 L 2930,1040 L 2929,1040 L 2927,1038 L 2926,1038 L 2924,1036 L 2923,1036 L 2921,1034 L 2920,1034 L 2917,1031 L 2916,1031 L 2914,1029 L 2913,1029 L 2911,1027 L 2910,1027 L 2908,1025 L 2907,1025 L 2905,1023 L 2904,1023 L 2902,1021 L 2901,1021 L 2900,1020 L 2899,1020 L 2897,1018 L 2896,1018 L 2894,1016 L 2893,1016 L 2892,1015 L 2891,1015 L 2889,1013 L 2888,1013 L 2887,1012 L 2886,1012 L 2884,1010 L 2883,1010 L 2882,1009 L 2881,1009 L 2880,1008 L 2879,1008 L 2878,1007 L 2877,1007 L 2876,1006 L 2875,1006 L 2873,1004 L 2872,1004 L 2871,1003 L 2870,1003 L 2869,1002 L 2868,1002 L 2867,1001 L 2866,1001 L 2865,1000 L 2864,1000 L 2863,999 L 2862,999 L 2861,998 L 2860,998 L 2859,997 L 2858,997 L 2857,996 L 2856,996 L 2855,995 L 2854,995 L 2853,994 L 2852,994 L 2851,993 L 2850,993 L 2849,992 L 2847,992 L 2846,991 L 2845,991 L 2844,990 L 2843,990 L 2842,989 L 2841,989 L 2840,988 L 2839,988 L 2838,987 L 2837,987 L 2836,986 L 2834,986 L 2833,985 L 2832,985 L 2831,984 L 2830,984 L 2829,983 L 2827,983 L 2826,982 L 2825,982 L 2824,981 L 2822,981 L 2821,980 L 2820,980 L 2819,979 L 2818,979 L 2817,978 L 2815,978 L 2814,977 L 2813,977 L 2812,976 L 2810,976 L 2809,975 L 2807,975 L 2806,974 L 2805,974 L 2804,973 L 2802,973 L 2801,972 L 2799,972 L 2798,971 L 2796,971 L 2795,970 L 2794,970 L 2793,969 L 2791,969 L 2790,968 L 2788,968 L 2787,967 L 2784,967 L 2783,966 L 2781,966 L 2780,965 L 2778,965 L 2777,964 L 2775,964 L 2774,963 L 2772,963 L 2771,962 L 2768,962 L 2767,961 L 2765,961 L 2764,960 L 2762,960 L 2761,959 L 2758,959 L 2757,958 L 2755,958 L 2754,957 L 2751,957 L 2750,956 L 2747,956 L 2746,955 L 2743,955 L 2742,954 L 2739,954 L 2738,953 L 2735,953 L 2734,952 L 2731,952 L 2730,951 L 2726,951 L 2725,950 L 2722,950 L 2721,949 L 2717,949 L 2716,948 L 2712,948 L 2711,947 L 2706,947 L 2705,946 L 2700,946 L 2699,945 L 2692,945 L 2691,944 L 2685,944 L 2684,943 L 2676,943 L 2675,942 L 2665,942 L 2664,941 L 2648,941 L 2647,940 L 2624,940 L 2623,939 Z M 1764,2394 L 1765,2393 L 1766,2393 L 1769,2396 L 1770,2396 L 1774,2400 L 1775,2400 L 1780,2405 L 1781,2405 L 1785,2409 L 1786,2409 L 1790,2413 L 1791,2413 L 1795,2417 L 1796,2417 L 1800,2421 L 1801,2421 L 1805,2425 L 1806,2425 L 1810,2429 L 1811,2429 L 1816,2434 L 1817,2434 L 1821,2438 L 1822,2438 L 1826,2442 L 1827,2442 L 1832,2447 L 1833,2447 L 1837,2451 L 1838,2451 L 1842,2455 L 1843,2455 L 1847,2459 L 1848,2459 L 1852,2463 L 1853,2463 L 1857,2467 L 1858,2467 L 1862,2471 L 1863,2471 L 1867,2475 L 1868,2475 L 1872,2479 L 1873,2479 L 1877,2483 L 1878,2483 L 1882,2487 L 1883,2487 L 1887,2491 L 1888,2491 L 1892,2495 L 1893,2495 L 1897,2499 L 1898,2499 L 1902,2503 L 1903,2503 L 1907,2507 L 1908,2507 L 1912,2511 L 1913,2511 L 1917,2515 L 1918,2515 L 1922,2519 L 1923,2519 L 1926,2522 L 1927,2522 L 1931,2526 L 1932,2526 L 1936,2530 L 1937,2530 L 1941,2534 L 1942,2534 L 1945,2537 L 1946,2537 L 1950,2541 L 1951,2541 L 1954,2544 L 1955,2544 L 1958,2547 L 1959,2547 L 1964,2552 L 1965,2552 L 1969,2556 L 1970,2556 L 1973,2559 L 1974,2559 L 1978,2563 L 1979,2563 L 1983,2567 L 1984,2567 L 1988,2571 L 1989,2571 L 1993,2575 L 1994,2575 L 1998,2579 L 1999,2579 L 2002,2582 L 2003,2582 L 2007,2586 L 2008,2586 L 2011,2589 L 2012,2589 L 2016,2593 L 2017,2593 L 2021,2597 L 2022,2597 L 2026,2601 L 2027,2601 L 2032,2606 L 2033,2606 L 2036,2609 L 2037,2609 L 2041,2613 L 2042,2613 L 2046,2617 L 2047,2617 L 2052,2622 L 2053,2622 L 2057,2626 L 2058,2626 L 2062,2630 L 2063,2630 L 2068,2635 L 2069,2635 L 2073,2639 L 2074,2639 L 2078,2643 L 2079,2643 L 2083,2647 L 2084,2647 L 2088,2651 L 2089,2651 L 2093,2655 L 2094,2655 L 2098,2659 L 2099,2659 L 2103,2663 L 2104,2663 L 2108,2667 L 2109,2667 L 2113,2671 L 2114,2671 L 2118,2675 L 2119,2675 L 2122,2678 L 2123,2678 L 2128,2683 L 2129,2683 L 2133,2687 L 2134,2687 L 2137,2690 L 2138,2690 L 2143,2695 L 2144,2695 L 2148,2699 L 2149,2699 L 2153,2703 L 2154,2703 L 2158,2707 L 2159,2707 L 2164,2712 L 2165,2712 L 2169,2716 L 2170,2716 L 2174,2720 L 2175,2720 L 2181,2726 L 2182,2726 L 2187,2731 L 2188,2731 L 2193,2736 L 2194,2736 L 2201,2743 L 2202,2743 L 2208,2749 L 2209,2749 L 2214,2754 L 2215,2754 L 2222,2761 L 2223,2761 L 2229,2767 L 2230,2767 L 2237,2774 L 2238,2774 L 2243,2779 L 2244,2779 L 2250,2785 L 2251,2785 L 2259,2793 L 2260,2793 L 2268,2801 L 2269,2801 L 2278,2810 L 2279,2810 L 2294,2825 L 2295,2825 L 2309,2839 L 2310,2839 L 2326,2855 L 2327,2855 L 2342,2870 L 2343,2870 L 2360,2887 L 2361,2887 L 2374,2900 L 2375,2900 L 2376,2901 L 2376,2902 L 2377,2902 L 2396,2921 L 2397,2921 L 2419,2943 L 2420,2943 L 2442,2965 L 2443,2965 L 2461,2983 L 2462,2983 L 2481,3002 L 2482,3002 L 2503,3023 L 2504,3023 L 2505,3024 L 2505,3025 L 2506,3025 L 2529,3048 L 2530,3048 L 2543,3061 L 2543,3062 L 2542,3063 L 1797,3063 L 1795,3061 L 1795,3039 L 1794,3038 L 1794,3018 L 1793,3017 L 1793,2996 L 1792,2995 L 1792,2974 L 1791,2973 L 1791,2952 L 1790,2951 L 1790,2933 L 1789,2932 L 1789,2915 L 1788,2914 L 1788,2893 L 1787,2892 L 1787,2875 L 1786,2874 L 1786,2854 L 1785,2853 L 1785,2832 L 1784,2831 L 1784,2808 L 1783,2807 L 1783,2784 L 1782,2783 L 1782,2763 L 1781,2762 L 1781,2742 L 1780,2741 L 1780,2717 L 1779,2716 L 1779,2695 L 1778,2694 L 1778,2672 L 1777,2671 L 1777,2648 L 1776,2647 L 1776,2622 L 1775,2621 L 1775,2597 L 1774,2596 L 1774,2576 L 1773,2575 L 1773,2555 L 1772,2554 L 1772,2534 L 1771,2533 L 1771,2512 L 1770,2511 L 1770,2491 L 1769,2490 L 1769,2469 L 1768,2468 L 1768,2448 L 1767,2447 L 1767,2430 L 1766,2429 L 1766,2413 L 1765,2412 L 1765,2396 L 1764,2395 Z M 3058,2392 L 3059,2391 L 3061,2391 L 3062,2392 L 3062,2613 L 3063,2614 L 3063,2615 L 3062,2616 L 3062,2645 L 3061,2646 L 3061,2657 L 3060,2658 L 3060,2667 L 3059,2668 L 3059,2675 L 3058,2676 L 3058,2682 L 3057,2683 L 3057,2689 L 3056,2690 L 3056,2695 L 3055,2696 L 3055,2700 L 3054,2701 L 3054,2705 L 3053,2706 L 3053,2711 L 3052,2712 L 3052,2715 L 3051,2716 L 3051,2719 L 3050,2720 L 3050,2723 L 3049,2724 L 3049,2728 L 3048,2729 L 3048,2731 L 3047,2732 L 3047,2735 L 3046,2736 L 3046,2738 L 3045,2739 L 3045,2742 L 3044,2743 L 3044,2745 L 3043,2746 L 3043,2749 L 3042,2750 L 3042,2752 L 3041,2753 L 3041,2755 L 3040,2756 L 3040,2758 L 3039,2759 L 3039,2761 L 3038,2762 L 3038,2764 L 3037,2765 L 3037,2767 L 3036,2768 L 3036,2769 L 3035,2770 L 3035,2772 L 3034,2773 L 3034,2775 L 3033,2776 L 3033,2777 L 3032,2778 L 3032,2780 L 3031,2781 L 3031,2783 L 3030,2784 L 3030,2785 L 3029,2786 L 3029,2787 L 3028,2788 L 3028,2790 L 3027,2791 L 3027,2792 L 3026,2793 L 3026,2794 L 3025,2795 L 3025,2797 L 3024,2798 L 3024,2799 L 3023,2800 L 3023,2801 L 3022,2802 L 3022,2803 L 3021,2804 L 3021,2805 L 3020,2806 L 3020,2808 L 3019,2809 L 3019,2810 L 3018,2811 L 3018,2812 L 3017,2813 L 3017,2814 L 3016,2815 L 3016,2816 L 3015,2817 L 3015,2818 L 3014,2819 L 3014,2820 L 3013,2821 L 3013,2822 L 3012,2823 L 3012,2824 L 3011,2825 L 3011,2826 L 3009,2828 L 3009,2829 L 3008,2830 L 3008,2831 L 3007,2832 L 3007,2833 L 3006,2834 L 3006,2835 L 3004,2837 L 3004,2838 L 3003,2839 L 3003,2840 L 3001,2842 L 3001,2843 L 3000,2844 L 3000,2845 L 2999,2846 L 2999,2847 L 2996,2850 L 2996,2851 L 2995,2852 L 2995,2853 L 2993,2855 L 2993,2856 L 2991,2858 L 2991,2859 L 2989,2861 L 2989,2862 L 2988,2863 L 2988,2864 L 2986,2866 L 2986,2867 L 2983,2870 L 2983,2871 L 2980,2874 L 2980,2875 L 2978,2877 L 2978,2878 L 2976,2880 L 2976,2881 L 2973,2884 L 2973,2885 L 2970,2888 L 2970,2889 L 2966,2893 L 2966,2894 L 2962,2898 L 2962,2899 L 2956,2905 L 2956,2906 L 2949,2913 L 2949,2914 L 2917,2946 L 2916,2946 L 2907,2955 L 2906,2955 L 2900,2961 L 2899,2961 L 2895,2965 L 2894,2965 L 2891,2968 L 2890,2968 L 2887,2971 L 2886,2971 L 2883,2974 L 2882,2974 L 2879,2977 L 2878,2977 L 2875,2980 L 2874,2980 L 2872,2982 L 2871,2982 L 2869,2984 L 2868,2984 L 2866,2986 L 2865,2986 L 2863,2988 L 2862,2988 L 2860,2990 L 2859,2990 L 2857,2992 L 2856,2992 L 2854,2994 L 2853,2994 L 2851,2996 L 2850,2996 L 2849,2997 L 2848,2997 L 2846,2999 L 2845,2999 L 2844,3000 L 2843,3000 L 2841,3002 L 2840,3002 L 2839,3003 L 2838,3003 L 2837,3004 L 2836,3004 L 2834,3006 L 2833,3006 L 2832,3007 L 2831,3007 L 2830,3008 L 2829,3008 L 2828,3009 L 2827,3009 L 2825,3011 L 2823,3011 L 2821,3013 L 2819,3013 L 2818,3014 L 2817,3014 L 2815,3016 L 2813,3016 L 2812,3017 L 2811,3017 L 2810,3018 L 2809,3018 L 2808,3019 L 2807,3019 L 2806,3020 L 2805,3020 L 2804,3021 L 2803,3021 L 2802,3022 L 2800,3022 L 2799,3023 L 2798,3023 L 2797,3024 L 2796,3024 L 2795,3025 L 2794,3025 L 2793,3026 L 2791,3026 L 2790,3027 L 2789,3027 L 2788,3028 L 2787,3028 L 2786,3029 L 2785,3029 L 2784,3030 L 2782,3030 L 2781,3031 L 2780,3031 L 2779,3032 L 2777,3032 L 2776,3033 L 2774,3033 L 2773,3034 L 2772,3034 L 2771,3035 L 2769,3035 L 2768,3036 L 2767,3036 L 2766,3037 L 2764,3037 L 2763,3038 L 2761,3038 L 2760,3039 L 2758,3039 L 2757,3040 L 2755,3040 L 2754,3041 L 2752,3041 L 2751,3042 L 2749,3042 L 2748,3043 L 2745,3043 L 2744,3044 L 2742,3044 L 2741,3045 L 2738,3045 L 2737,3046 L 2734,3046 L 2733,3047 L 2731,3047 L 2730,3048 L 2727,3048 L 2726,3049 L 2723,3049 L 2722,3050 L 2719,3050 L 2718,3051 L 2714,3051 L 2713,3052 L 2710,3052 L 2709,3053 L 2706,3053 L 2705,3054 L 2701,3054 L 2700,3055 L 2696,3055 L 2695,3056 L 2690,3056 L 2689,3057 L 2684,3057 L 2683,3058 L 2677,3058 L 2676,3059 L 2669,3059 L 2668,3060 L 2667,3060 L 2665,3058 L 2664,3058 L 2646,3040 L 2645,3040 L 2644,3039 L 2644,3038 L 2643,3038 L 2617,3012 L 2616,3012 L 2615,3011 L 2615,3010 L 2614,3010 L 2588,2984 L 2587,2984 L 2565,2962 L 2564,2962 L 2563,2961 L 2563,2960 L 2562,2960 L 2540,2938 L 2539,2938 L 2538,2937 L 2538,2936 L 2537,2936 L 2535,2934 L 2535,2933 L 2534,2933 L 2513,2912 L 2512,2912 L 2490,2890 L 2489,2890 L 2463,2864 L 2462,2864 L 2444,2846 L 2443,2846 L 2442,2845 L 2442,2844 L 2441,2844 L 2439,2842 L 2439,2841 L 2438,2841 L 2417,2820 L 2416,2820 L 2415,2819 L 2415,2818 L 2414,2818 L 2388,2792 L 2387,2792 L 2386,2791 L 2386,2790 L 2385,2789 L 2384,2789 L 2383,2788 L 2383,2787 L 2381,2785 L 2380,2785 L 2353,2758 L 2352,2758 L 2351,2757 L 2351,2756 L 2350,2756 L 2329,2735 L 2328,2735 L 2327,2734 L 2327,2733 L 2326,2732 L 2325,2732 L 2297,2704 L 2296,2704 L 2274,2682 L 2273,2682 L 2272,2681 L 2272,2680 L 2270,2678 L 2269,2678 L 2241,2650 L 2240,2650 L 2239,2649 L 2239,2648 L 2238,2648 L 2210,2620 L 2209,2620 L 2207,2618 L 2207,2617 L 2206,2616 L 2205,2616 L 2177,2588 L 2176,2588 L 2175,2587 L 2175,2586 L 2174,2585 L 2173,2585 L 2171,2583 L 2171,2582 L 2170,2582 L 2132,2544 L 2131,2544 L 2129,2542 L 2129,2541 L 2128,2541 L 2127,2540 L 2127,2539 L 2124,2536 L 2123,2536 L 2121,2534 L 2121,2533 L 2120,2533 L 2119,2532 L 2119,2531 L 2118,2530 L 2117,2530 L 2106,2519 L 2105,2519 L 2097,2511 L 2096,2511 L 2086,2501 L 2085,2501 L 2078,2494 L 2079,2493 L 2082,2493 L 2083,2492 L 2095,2492 L 2096,2491 L 2106,2491 L 2107,2490 L 2119,2490 L 2120,2489 L 2131,2489 L 2132,2488 L 2142,2488 L 2143,2487 L 2153,2487 L 2154,2486 L 2163,2486 L 2164,2485 L 2173,2485 L 2174,2484 L 2184,2484 L 2185,2483 L 2194,2483 L 2195,2482 L 2205,2482 L 2206,2481 L 2215,2481 L 2216,2480 L 2225,2480 L 2226,2479 L 2235,2479 L 2236,2478 L 2245,2478 L 2246,2477 L 2255,2477 L 2256,2476 L 2265,2476 L 2266,2475 L 2273,2475 L 2274,2474 L 2282,2474 L 2283,2473 L 2291,2473 L 2292,2472 L 2300,2472 L 2301,2471 L 2308,2471 L 2309,2470 L 2316,2470 L 2317,2469 L 2324,2469 L 2325,2468 L 2332,2468 L 2333,2467 L 2340,2467 L 2341,2466 L 2348,2466 L 2349,2465 L 2356,2465 L 2357,2464 L 2362,2464 L 2363,2463 L 2370,2463 L 2371,2462 L 2377,2462 L 2378,2461 L 2383,2461 L 2384,2460 L 2391,2460 L 2392,2459 L 2398,2459 L 2399,2458 L 2405,2458 L 2406,2457 L 2413,2457 L 2414,2456 L 2420,2456 L 2421,2455 L 2428,2455 L 2429,2454 L 2436,2454 L 2437,2453 L 2444,2453 L 2445,2452 L 2452,2452 L 2453,2451 L 2460,2451 L 2461,2450 L 2469,2450 L 2470,2449 L 2479,2449 L 2480,2448 L 2487,2448 L 2488,2447 L 2497,2447 L 2498,2446 L 2506,2446 L 2507,2445 L 2514,2445 L 2515,2444 L 2523,2444 L 2524,2443 L 2532,2443 L 2533,2442 L 2540,2442 L 2541,2441 L 2548,2441 L 2549,2440 L 2557,2440 L 2558,2439 L 2565,2439 L 2566,2438 L 2573,2438 L 2574,2437 L 2581,2437 L 2582,2436 L 2589,2436 L 2590,2435 L 2598,2435 L 2599,2434 L 2606,2434 L 2607,2433 L 2613,2433 L 2614,2432 L 2621,2432 L 2622,2431 L 2629,2431 L 2630,2430 L 2637,2430 L 2638,2429 L 2644,2429 L 2645,2428 L 2652,2428 L 2653,2427 L 2660,2427 L 2661,2426 L 2668,2426 L 2669,2425 L 2676,2425 L 2677,2424 L 2685,2424 L 2686,2423 L 2693,2423 L 2694,2422 L 2702,2422 L 2703,2421 L 2711,2421 L 2712,2420 L 2719,2420 L 2720,2419 L 2727,2419 L 2728,2418 L 2738,2418 L 2739,2417 L 2748,2417 L 2749,2416 L 2759,2416 L 2760,2415 L 2771,2415 L 2772,2414 L 2783,2414 L 2784,2413 L 2794,2413 L 2795,2412 L 2807,2412 L 2808,2411 L 2818,2411 L 2819,2410 L 2830,2410 L 2831,2409 L 2842,2409 L 2843,2408 L 2855,2408 L 2856,2407 L 2867,2407 L 2868,2406 L 2879,2406 L 2880,2405 L 2891,2405 L 2892,2404 L 2903,2404 L 2904,2403 L 2914,2403 L 2915,2402 L 2927,2402 L 2928,2401 L 2939,2401 L 2940,2400 L 2951,2400 L 2952,2399 L 2964,2399 L 2965,2398 L 2975,2398 L 2976,2397 L 2987,2397 L 2988,2396 L 2999,2396 L 3000,2395 L 3012,2395 L 3013,2394 L 3026,2394 L 3027,2393 L 3042,2393 L 3043,2392 Z M 1605,2099 L 1606,2100 L 1606,2102 L 1607,2103 L 1607,2116 L 1608,2117 L 1608,2127 L 1609,2128 L 1609,2137 L 1610,2138 L 1610,2147 L 1611,2148 L 1611,2156 L 1612,2157 L 1612,2167 L 1613,2168 L 1613,2175 L 1614,2176 L 1614,2185 L 1615,2186 L 1615,2194 L 1616,2195 L 1616,2202 L 1617,2203 L 1617,2211 L 1618,2212 L 1618,2219 L 1619,2220 L 1619,2227 L 1620,2228 L 1620,2235 L 1621,2236 L 1621,2243 L 1622,2244 L 1622,2251 L 1623,2252 L 1623,2258 L 1624,2259 L 1624,2266 L 1625,2267 L 1625,2273 L 1626,2274 L 1626,2281 L 1627,2282 L 1627,2288 L 1628,2289 L 1628,2295 L 1629,2296 L 1629,2303 L 1630,2304 L 1630,2311 L 1631,2312 L 1631,2317 L 1632,2318 L 1632,2324 L 1633,2325 L 1633,2331 L 1634,2332 L 1634,2338 L 1635,2339 L 1635,2345 L 1636,2346 L 1636,2351 L 1637,2352 L 1637,2359 L 1638,2360 L 1638,2366 L 1639,2367 L 1639,2372 L 1640,2373 L 1640,2379 L 1641,2380 L 1641,2386 L 1642,2387 L 1642,2393 L 1643,2394 L 1643,2399 L 1644,2400 L 1644,2407 L 1645,2408 L 1645,2413 L 1646,2414 L 1646,2420 L 1647,2421 L 1647,2427 L 1648,2428 L 1648,2434 L 1649,2435 L 1649,2441 L 1650,2442 L 1650,2448 L 1651,2449 L 1651,2455 L 1652,2456 L 1652,2461 L 1653,2462 L 1653,2468 L 1654,2469 L 1654,2475 L 1655,2476 L 1655,2482 L 1656,2483 L 1656,2489 L 1657,2490 L 1657,2495 L 1658,2496 L 1658,2502 L 1659,2503 L 1659,2508 L 1660,2509 L 1660,2515 L 1661,2516 L 1661,2522 L 1662,2523 L 1662,2528 L 1663,2529 L 1663,2535 L 1664,2536 L 1664,2541 L 1665,2542 L 1665,2548 L 1666,2549 L 1666,2555 L 1667,2556 L 1667,2562 L 1668,2563 L 1668,2569 L 1669,2570 L 1669,2575 L 1670,2576 L 1670,2583 L 1671,2584 L 1671,2590 L 1672,2591 L 1672,2597 L 1673,2598 L 1673,2605 L 1674,2606 L 1674,2613 L 1675,2614 L 1675,2621 L 1676,2622 L 1676,2628 L 1677,2629 L 1677,2636 L 1678,2637 L 1678,2644 L 1679,2645 L 1679,2653 L 1680,2654 L 1680,2662 L 1681,2663 L 1681,2671 L 1682,2672 L 1682,2679 L 1683,2680 L 1683,2688 L 1684,2689 L 1684,2697 L 1685,2698 L 1685,2706 L 1686,2707 L 1686,2716 L 1687,2717 L 1687,2725 L 1688,2726 L 1688,2734 L 1689,2735 L 1689,2744 L 1690,2745 L 1690,2755 L 1691,2756 L 1691,2764 L 1692,2765 L 1692,2775 L 1693,2776 L 1693,2787 L 1694,2788 L 1694,2799 L 1695,2800 L 1695,2811 L 1696,2812 L 1696,2825 L 1697,2826 L 1697,2838 L 1698,2839 L 1698,2853 L 1699,2854 L 1699,2867 L 1700,2868 L 1700,2882 L 1701,2883 L 1701,2898 L 1702,2899 L 1702,2913 L 1703,2914 L 1703,2927 L 1704,2928 L 1704,2941 L 1705,2942 L 1705,2957 L 1706,2958 L 1706,2973 L 1707,2974 L 1707,2989 L 1708,2990 L 1708,3007 L 1709,3008 L 1709,3027 L 1710,3028 L 1710,3047 L 1711,3048 L 1711,3061 L 1709,3063 L 1472,3063 L 1471,3062 L 1453,3062 L 1452,3061 L 1440,3061 L 1439,3060 L 1430,3060 L 1429,3059 L 1422,3059 L 1421,3058 L 1416,3058 L 1415,3057 L 1409,3057 L 1408,3056 L 1403,3056 L 1402,3055 L 1397,3055 L 1396,3054 L 1392,3054 L 1391,3053 L 1387,3053 L 1386,3052 L 1382,3052 L 1381,3051 L 1378,3051 L 1377,3050 L 1374,3050 L 1373,3049 L 1370,3049 L 1369,3048 L 1366,3048 L 1365,3047 L 1362,3047 L 1361,3046 L 1359,3046 L 1358,3045 L 1355,3045 L 1354,3044 L 1352,3044 L 1351,3043 L 1349,3043 L 1348,3042 L 1346,3042 L 1345,3041 L 1343,3041 L 1342,3040 L 1340,3040 L 1339,3039 L 1336,3039 L 1335,3038 L 1334,3038 L 1333,3037 L 1331,3037 L 1330,3036 L 1328,3036 L 1327,3035 L 1325,3035 L 1324,3034 L 1323,3034 L 1322,3033 L 1320,3033 L 1319,3032 L 1317,3032 L 1316,3031 L 1315,3031 L 1314,3030 L 1312,3030 L 1311,3029 L 1310,3029 L 1309,3028 L 1308,3028 L 1307,3027 L 1305,3027 L 1304,3026 L 1303,3026 L 1302,3025 L 1301,3025 L 1300,3024 L 1298,3024 L 1297,3023 L 1296,3023 L 1295,3022 L 1294,3022 L 1293,3021 L 1292,3021 L 1291,3020 L 1290,3020 L 1289,3019 L 1288,3019 L 1287,3018 L 1286,3018 L 1285,3017 L 1283,3017 L 1282,3016 L 1281,3016 L 1280,3015 L 1279,3015 L 1277,3013 L 1276,3013 L 1275,3012 L 1274,3012 L 1273,3011 L 1272,3011 L 1271,3010 L 1270,3010 L 1269,3009 L 1268,3009 L 1267,3008 L 1266,3008 L 1265,3007 L 1264,3007 L 1262,3005 L 1261,3005 L 1260,3004 L 1259,3004 L 1258,3003 L 1257,3003 L 1255,3001 L 1254,3001 L 1253,3000 L 1252,3000 L 1251,2999 L 1250,2999 L 1248,2997 L 1247,2997 L 1245,2995 L 1244,2995 L 1242,2993 L 1241,2993 L 1240,2992 L 1239,2992 L 1237,2990 L 1236,2990 L 1234,2988 L 1233,2988 L 1231,2986 L 1230,2986 L 1227,2983 L 1226,2983 L 1224,2981 L 1223,2981 L 1221,2979 L 1220,2979 L 1217,2976 L 1216,2976 L 1214,2974 L 1213,2974 L 1210,2971 L 1209,2971 L 1206,2968 L 1205,2968 L 1201,2964 L 1200,2964 L 1197,2961 L 1196,2961 L 1191,2956 L 1190,2956 L 1185,2951 L 1184,2951 L 1183,2950 L 1183,2949 L 1182,2949 L 1147,2914 L 1147,2913 L 1139,2905 L 1139,2904 L 1133,2898 L 1133,2897 L 1129,2893 L 1129,2892 L 1126,2889 L 1126,2888 L 1122,2884 L 1122,2883 L 1119,2880 L 1119,2879 L 1116,2876 L 1116,2875 L 1114,2873 L 1114,2872 L 1111,2869 L 1111,2868 L 1109,2866 L 1109,2865 L 1107,2863 L 1107,2862 L 1105,2860 L 1105,2859 L 1103,2857 L 1103,2856 L 1101,2854 L 1101,2853 L 1100,2852 L 1100,2851 L 1098,2849 L 1098,2848 L 1097,2847 L 1097,2846 L 1095,2844 L 1095,2843 L 1093,2841 L 1093,2840 L 1092,2839 L 1092,2838 L 1091,2837 L 1091,2836 L 1089,2834 L 1089,2833 L 1088,2832 L 1088,2831 L 1087,2830 L 1087,2829 L 1085,2827 L 1085,2826 L 1084,2825 L 1084,2824 L 1083,2823 L 1083,2822 L 1082,2821 L 1082,2820 L 1081,2819 L 1081,2818 L 1080,2817 L 1080,2816 L 1079,2815 L 1079,2814 L 1078,2813 L 1078,2812 L 1077,2811 L 1077,2810 L 1076,2809 L 1076,2808 L 1075,2807 L 1075,2806 L 1074,2805 L 1074,2804 L 1073,2803 L 1073,2801 L 1072,2800 L 1072,2799 L 1071,2798 L 1071,2797 L 1070,2796 L 1070,2794 L 1069,2793 L 1069,2792 L 1068,2791 L 1068,2789 L 1067,2788 L 1067,2787 L 1066,2786 L 1066,2784 L 1065,2783 L 1065,2782 L 1064,2781 L 1064,2780 L 1063,2779 L 1063,2777 L 1062,2776 L 1062,2774 L 1061,2773 L 1061,2771 L 1060,2770 L 1060,2769 L 1059,2768 L 1059,2766 L 1058,2765 L 1058,2763 L 1057,2762 L 1057,2760 L 1056,2759 L 1056,2757 L 1055,2756 L 1055,2754 L 1054,2753 L 1054,2750 L 1053,2749 L 1053,2747 L 1052,2746 L 1052,2744 L 1051,2743 L 1051,2739 L 1055,2735 L 1055,2734 L 1061,2728 L 1061,2727 L 1067,2721 L 1067,2720 L 1072,2715 L 1072,2714 L 1079,2707 L 1079,2706 L 1085,2700 L 1085,2699 L 1091,2693 L 1091,2692 L 1097,2686 L 1097,2685 L 1103,2679 L 1103,2678 L 1110,2671 L 1110,2670 L 1115,2665 L 1115,2664 L 1120,2659 L 1120,2658 L 1127,2651 L 1127,2650 L 1133,2644 L 1133,2643 L 1139,2637 L 1139,2636 L 1145,2630 L 1145,2629 L 1152,2622 L 1152,2621 L 1158,2615 L 1158,2614 L 1163,2609 L 1163,2608 L 1170,2601 L 1170,2600 L 1177,2593 L 1177,2592 L 1183,2586 L 1183,2585 L 1191,2577 L 1191,2576 L 1197,2570 L 1197,2569 L 1204,2562 L 1204,2561 L 1211,2554 L 1211,2553 L 1217,2547 L 1217,2546 L 1223,2540 L 1223,2539 L 1229,2533 L 1229,2532 L 1235,2526 L 1235,2525 L 1241,2519 L 1241,2518 L 1246,2513 L 1246,2512 L 1253,2505 L 1253,2504 L 1260,2497 L 1260,2496 L 1265,2491 L 1265,2490 L 1271,2484 L 1271,2483 L 1278,2476 L 1278,2475 L 1286,2467 L 1286,2466 L 1292,2460 L 1292,2459 L 1299,2452 L 1299,2451 L 1306,2444 L 1306,2443 L 1312,2437 L 1312,2436 L 1320,2428 L 1320,2427 L 1327,2420 L 1327,2419 L 1333,2413 L 1333,2412 L 1340,2405 L 1340,2404 L 1347,2397 L 1347,2396 L 1353,2390 L 1353,2389 L 1359,2383 L 1359,2382 L 1366,2375 L 1366,2374 L 1371,2369 L 1371,2368 L 1377,2362 L 1377,2361 L 1383,2355 L 1383,2354 L 1390,2347 L 1390,2346 L 1396,2340 L 1396,2339 L 1403,2332 L 1403,2331 L 1408,2326 L 1408,2325 L 1415,2318 L 1415,2317 L 1421,2311 L 1421,2310 L 1428,2303 L 1428,2302 L 1433,2297 L 1433,2296 L 1439,2290 L 1439,2289 L 1445,2283 L 1445,2282 L 1451,2276 L 1451,2275 L 1456,2270 L 1456,2269 L 1463,2262 L 1463,2261 L 1470,2254 L 1470,2253 L 1477,2246 L 1477,2245 L 1484,2238 L 1484,2237 L 1490,2231 L 1490,2230 L 1495,2225 L 1495,2224 L 1503,2216 L 1503,2215 L 1511,2207 L 1511,2206 L 1519,2198 L 1519,2197 L 1526,2190 L 1526,2189 L 1535,2180 L 1535,2179 L 1543,2171 L 1543,2170 L 1550,2163 L 1550,2162 L 1557,2155 L 1557,2154 L 1563,2148 L 1563,2147 L 1570,2140 L 1570,2139 L 1576,2133 L 1576,2132 L 1583,2125 L 1583,2124 L 1589,2118 L 1589,2117 L 1595,2111 L 1595,2110 L 1600,2105 L 1600,2104 Z M 1697,1763 L 1698,1762 L 1699,1762 L 1700,1763 L 1700,1764 L 1697,1767 L 1697,1768 L 1694,1771 L 1694,1772 L 1690,1776 L 1690,1777 L 1686,1781 L 1686,1782 L 1682,1786 L 1682,1787 L 1679,1790 L 1679,1791 L 1675,1795 L 1675,1796 L 1671,1800 L 1671,1801 L 1667,1805 L 1667,1806 L 1664,1809 L 1664,1810 L 1660,1814 L 1660,1815 L 1656,1819 L 1656,1820 L 1653,1823 L 1653,1824 L 1650,1827 L 1650,1828 L 1647,1831 L 1647,1832 L 1644,1835 L 1644,1836 L 1641,1839 L 1641,1840 L 1639,1842 L 1639,1843 L 1636,1846 L 1636,1847 L 1633,1850 L 1633,1851 L 1630,1854 L 1630,1855 L 1627,1858 L 1627,1859 L 1624,1862 L 1624,1863 L 1621,1866 L 1621,1867 L 1618,1870 L 1618,1871 L 1616,1873 L 1616,1874 L 1612,1878 L 1612,1879 L 1610,1881 L 1610,1882 L 1607,1885 L 1607,1886 L 1605,1888 L 1605,1889 L 1602,1892 L 1602,1893 L 1599,1896 L 1599,1897 L 1597,1899 L 1597,1900 L 1593,1904 L 1593,1905 L 1591,1907 L 1591,1908 L 1588,1911 L 1588,1912 L 1586,1914 L 1586,1915 L 1584,1917 L 1584,1918 L 1581,1921 L 1581,1922 L 1578,1925 L 1578,1926 L 1576,1928 L 1576,1929 L 1573,1932 L 1573,1933 L 1570,1936 L 1570,1937 L 1568,1939 L 1568,1940 L 1565,1943 L 1565,1944 L 1563,1946 L 1563,1947 L 1560,1950 L 1560,1951 L 1557,1954 L 1557,1955 L 1555,1957 L 1555,1958 L 1552,1961 L 1552,1962 L 1550,1964 L 1550,1965 L 1547,1968 L 1547,1969 L 1544,1972 L 1544,1973 L 1541,1976 L 1541,1977 L 1539,1979 L 1539,1980 L 1536,1983 L 1536,1984 L 1533,1987 L 1533,1988 L 1531,1990 L 1531,1991 L 1528,1994 L 1528,1995 L 1525,1998 L 1525,1999 L 1522,2002 L 1522,2003 L 1520,2005 L 1520,2006 L 1517,2009 L 1517,2010 L 1514,2013 L 1514,2014 L 1511,2017 L 1511,2018 L 1509,2020 L 1509,2021 L 1506,2024 L 1506,2025 L 1504,2027 L 1504,2028 L 1501,2031 L 1501,2032 L 1498,2035 L 1498,2036 L 1496,2038 L 1496,2039 L 1493,2042 L 1493,2043 L 1490,2046 L 1490,2047 L 1488,2049 L 1488,2050 L 1485,2053 L 1485,2054 L 1483,2056 L 1483,2057 L 1480,2060 L 1480,2061 L 1477,2064 L 1477,2065 L 1475,2067 L 1475,2068 L 1472,2071 L 1472,2072 L 1469,2075 L 1469,2076 L 1467,2078 L 1467,2079 L 1464,2082 L 1464,2083 L 1462,2085 L 1462,2086 L 1459,2089 L 1459,2090 L 1456,2093 L 1456,2094 L 1454,2096 L 1454,2097 L 1452,2099 L 1452,2100 L 1449,2103 L 1449,2104 L 1447,2106 L 1447,2107 L 1444,2110 L 1444,2111 L 1442,2113 L 1442,2114 L 1440,2116 L 1440,2117 L 1437,2120 L 1437,2121 L 1435,2123 L 1435,2124 L 1433,2126 L 1433,2127 L 1431,2129 L 1431,2130 L 1428,2133 L 1428,2134 L 1425,2137 L 1425,2138 L 1423,2140 L 1423,2141 L 1421,2143 L 1421,2144 L 1419,2146 L 1419,2147 L 1416,2150 L 1416,2151 L 1414,2153 L 1414,2154 L 1411,2157 L 1411,2158 L 1408,2161 L 1408,2162 L 1406,2164 L 1406,2165 L 1404,2167 L 1404,2168 L 1401,2171 L 1401,2172 L 1399,2174 L 1399,2175 L 1396,2178 L 1396,2179 L 1393,2182 L 1393,2183 L 1391,2185 L 1391,2186 L 1389,2188 L 1389,2189 L 1387,2191 L 1387,2192 L 1384,2195 L 1384,2196 L 1382,2198 L 1382,2199 L 1379,2202 L 1379,2203 L 1377,2205 L 1377,2206 L 1374,2209 L 1374,2210 L 1372,2212 L 1372,2213 L 1369,2216 L 1369,2217 L 1366,2220 L 1366,2221 L 1364,2223 L 1364,2224 L 1361,2227 L 1361,2228 L 1359,2230 L 1359,2231 L 1356,2234 L 1356,2235 L 1353,2238 L 1353,2239 L 1351,2241 L 1351,2242 L 1348,2245 L 1348,2246 L 1345,2249 L 1345,2250 L 1342,2253 L 1342,2254 L 1340,2256 L 1340,2257 L 1336,2261 L 1336,2262 L 1334,2264 L 1334,2265 L 1331,2268 L 1331,2269 L 1328,2272 L 1328,2273 L 1325,2276 L 1325,2277 L 1322,2280 L 1322,2281 L 1320,2283 L 1320,2284 L 1316,2288 L 1316,2289 L 1313,2292 L 1313,2293 L 1310,2296 L 1310,2297 L 1307,2300 L 1307,2301 L 1304,2304 L 1304,2305 L 1300,2309 L 1300,2310 L 1297,2313 L 1297,2314 L 1293,2318 L 1293,2319 L 1290,2322 L 1290,2323 L 1287,2326 L 1287,2327 L 1283,2331 L 1283,2332 L 1279,2336 L 1279,2337 L 1275,2341 L 1275,2342 L 1271,2346 L 1271,2347 L 1267,2351 L 1267,2352 L 1263,2356 L 1263,2357 L 1259,2361 L 1259,2362 L 1255,2366 L 1255,2367 L 1250,2372 L 1250,2373 L 1246,2377 L 1246,2378 L 1241,2383 L 1241,2384 L 1236,2389 L 1236,2390 L 1231,2395 L 1231,2396 L 1224,2403 L 1224,2404 L 1219,2409 L 1219,2410 L 1212,2417 L 1212,2418 L 1206,2424 L 1206,2425 L 1200,2431 L 1200,2432 L 1194,2438 L 1194,2439 L 1187,2446 L 1187,2447 L 1180,2454 L 1180,2455 L 1174,2461 L 1174,2462 L 1168,2468 L 1168,2469 L 1162,2475 L 1162,2476 L 1156,2482 L 1156,2483 L 1150,2489 L 1150,2490 L 1144,2496 L 1144,2497 L 1137,2504 L 1137,2505 L 1131,2511 L 1131,2512 L 1125,2518 L 1125,2519 L 1118,2526 L 1118,2527 L 1112,2533 L 1112,2534 L 1106,2540 L 1106,2541 L 1100,2547 L 1100,2548 L 1092,2556 L 1092,2557 L 1086,2563 L 1086,2564 L 1079,2571 L 1079,2572 L 1072,2579 L 1072,2580 L 1066,2586 L 1066,2587 L 1059,2594 L 1059,2595 L 1053,2601 L 1053,2602 L 1046,2609 L 1046,2610 L 1040,2616 L 1040,2617 L 1034,2623 L 1033,2623 L 1032,2622 L 1032,2616 L 1033,2615 L 1033,1792 L 1034,1791 L 1037,1791 L 1038,1790 L 1059,1790 L 1060,1789 L 1081,1789 L 1082,1788 L 1105,1788 L 1106,1787 L 1127,1787 L 1128,1786 L 1151,1786 L 1152,1785 L 1175,1785 L 1176,1784 L 1197,1784 L 1198,1783 L 1219,1783 L 1220,1782 L 1242,1782 L 1243,1781 L 1265,1781 L 1266,1780 L 1287,1780 L 1288,1779 L 1311,1779 L 1312,1778 L 1331,1778 L 1332,1777 L 1358,1777 L 1359,1776 L 1379,1776 L 1380,1775 L 1404,1775 L 1405,1774 L 1429,1774 L 1430,1773 L 1452,1773 L 1453,1772 L 1476,1772 L 1477,1771 L 1502,1771 L 1503,1770 L 1525,1770 L 1526,1769 L 1551,1769 L 1552,1768 L 1575,1768 L 1576,1767 L 1600,1767 L 1601,1766 L 1623,1766 L 1624,1765 L 1647,1765 L 1648,1764 L 1669,1764 L 1670,1763 Z M 2025,1682 L 2026,1681 L 2069,1681 L 2070,1682 L 2082,1682 L 2083,1683 L 2091,1683 L 2092,1684 L 2099,1684 L 2100,1685 L 2106,1685 L 2107,1686 L 2111,1686 L 2112,1687 L 2117,1687 L 2118,1688 L 2123,1688 L 2124,1689 L 2127,1689 L 2128,1690 L 2132,1690 L 2133,1691 L 2136,1691 L 2137,1692 L 2140,1692 L 2141,1693 L 2143,1693 L 2144,1694 L 2147,1694 L 2148,1695 L 2151,1695 L 2152,1696 L 2154,1696 L 2155,1697 L 2158,1697 L 2159,1698 L 2161,1698 L 2162,1699 L 2164,1699 L 2165,1700 L 2167,1700 L 2168,1701 L 2170,1701 L 2171,1702 L 2172,1702 L 2173,1703 L 2175,1703 L 2176,1704 L 2178,1704 L 2179,1705 L 2181,1705 L 2182,1706 L 2183,1706 L 2184,1707 L 2186,1707 L 2187,1708 L 2188,1708 L 2189,1709 L 2190,1709 L 2191,1710 L 2193,1710 L 2194,1711 L 2195,1711 L 2196,1712 L 2197,1712 L 2198,1713 L 2200,1713 L 2201,1714 L 2202,1714 L 2203,1715 L 2204,1715 L 2205,1716 L 2206,1716 L 2207,1717 L 2208,1717 L 2209,1718 L 2210,1718 L 2211,1719 L 2212,1719 L 2213,1720 L 2214,1720 L 2216,1722 L 2217,1722 L 2218,1723 L 2219,1723 L 2220,1724 L 2221,1724 L 2222,1725 L 2223,1725 L 2224,1726 L 2225,1726 L 2226,1727 L 2227,1727 L 2229,1729 L 2230,1729 L 2231,1730 L 2232,1730 L 2234,1732 L 2235,1732 L 2237,1734 L 2238,1734 L 2239,1735 L 2240,1735 L 2241,1736 L 2242,1736 L 2244,1738 L 2245,1738 L 2248,1741 L 2249,1741 L 2251,1743 L 2252,1743 L 2253,1744 L 2254,1744 L 2256,1746 L 2257,1746 L 2259,1748 L 2260,1748 L 2263,1751 L 2264,1751 L 2266,1753 L 2267,1753 L 2270,1756 L 2271,1756 L 2275,1760 L 2276,1760 L 2280,1764 L 2281,1764 L 2285,1768 L 2286,1768 L 2293,1775 L 2294,1775 L 2320,1801 L 2320,1802 L 2326,1808 L 2326,1809 L 2331,1814 L 2331,1815 L 2336,1820 L 2336,1821 L 2339,1824 L 2339,1825 L 2343,1829 L 2343,1830 L 2345,1832 L 2345,1833 L 2348,1836 L 2348,1837 L 2350,1839 L 2350,1840 L 2352,1842 L 2352,1843 L 2354,1845 L 2354,1846 L 2356,1848 L 2356,1849 L 2358,1851 L 2358,1852 L 2359,1853 L 2359,1854 L 2361,1856 L 2361,1857 L 2362,1858 L 2362,1859 L 2364,1861 L 2364,1862 L 2365,1863 L 2365,1864 L 2366,1865 L 2366,1866 L 2368,1868 L 2368,1869 L 2369,1870 L 2369,1871 L 2370,1872 L 2370,1873 L 2371,1874 L 2371,1875 L 2373,1877 L 2373,1878 L 2374,1879 L 2374,1880 L 2375,1881 L 2375,1882 L 2376,1883 L 2376,1884 L 2377,1885 L 2377,1887 L 2379,1889 L 2379,1891 L 2380,1892 L 2380,1893 L 2381,1894 L 2381,1895 L 2382,1896 L 2382,1897 L 2383,1898 L 2383,1900 L 2384,1901 L 2384,1902 L 2385,1903 L 2385,1904 L 2386,1905 L 2386,1907 L 2387,1908 L 2387,1909 L 2388,1910 L 2388,1912 L 2389,1913 L 2389,1914 L 2390,1915 L 2390,1917 L 2391,1918 L 2391,1920 L 2392,1921 L 2392,1922 L 2393,1923 L 2393,1925 L 2394,1926 L 2394,1928 L 2395,1929 L 2395,1931 L 2396,1932 L 2396,1934 L 2397,1935 L 2397,1937 L 2398,1938 L 2398,1940 L 2399,1941 L 2399,1943 L 2400,1944 L 2400,1947 L 2401,1948 L 2401,1950 L 2402,1951 L 2402,1954 L 2403,1955 L 2403,1957 L 2404,1958 L 2404,1961 L 2405,1962 L 2405,1966 L 2406,1967 L 2406,1971 L 2407,1972 L 2407,1975 L 2408,1976 L 2408,1980 L 2409,1981 L 2409,1986 L 2410,1987 L 2410,1993 L 2411,1994 L 2411,1999 L 2412,2000 L 2412,2008 L 2413,2009 L 2413,2018 L 2414,2019 L 2414,2039 L 2415,2040 L 2415,2055 L 2414,2056 L 2414,2076 L 2413,2077 L 2413,2087 L 2412,2088 L 2412,2095 L 2411,2096 L 2411,2102 L 2410,2103 L 2410,2108 L 2409,2109 L 2409,2114 L 2408,2115 L 2408,2120 L 2407,2121 L 2407,2124 L 2406,2125 L 2406,2128 L 2405,2129 L 2405,2133 L 2404,2134 L 2404,2137 L 2403,2138 L 2403,2140 L 2402,2141 L 2402,2144 L 2401,2145 L 2401,2148 L 2400,2149 L 2400,2151 L 2399,2152 L 2399,2154 L 2398,2155 L 2398,2157 L 2397,2158 L 2397,2161 L 2396,2162 L 2396,2163 L 2395,2164 L 2395,2166 L 2394,2167 L 2394,2169 L 2393,2170 L 2393,2172 L 2392,2173 L 2392,2175 L 2391,2176 L 2391,2177 L 2390,2178 L 2390,2180 L 2389,2181 L 2389,2182 L 2388,2183 L 2388,2185 L 2387,2186 L 2387,2187 L 2386,2188 L 2386,2189 L 2385,2190 L 2385,2192 L 2384,2193 L 2384,2194 L 2383,2195 L 2383,2196 L 2382,2197 L 2382,2199 L 2380,2201 L 2380,2203 L 2379,2204 L 2379,2205 L 2378,2206 L 2378,2207 L 2377,2208 L 2377,2209 L 2376,2210 L 2376,2211 L 2375,2212 L 2375,2213 L 2374,2214 L 2374,2215 L 2373,2216 L 2373,2217 L 2372,2218 L 2372,2219 L 2370,2221 L 2370,2222 L 2369,2223 L 2369,2224 L 2368,2225 L 2368,2226 L 2366,2228 L 2366,2229 L 2365,2230 L 2365,2231 L 2364,2232 L 2364,2233 L 2362,2235 L 2362,2236 L 2360,2238 L 2360,2239 L 2359,2240 L 2359,2241 L 2357,2243 L 2357,2244 L 2355,2246 L 2355,2247 L 2353,2249 L 2353,2250 L 2351,2252 L 2351,2253 L 2349,2255 L 2349,2256 L 2346,2259 L 2346,2260 L 2344,2262 L 2344,2263 L 2341,2266 L 2341,2267 L 2337,2271 L 2337,2272 L 2335,2274 L 2335,2275 L 2330,2280 L 2330,2281 L 2325,2286 L 2325,2287 L 2315,2297 L 2315,2298 L 2298,2315 L 2297,2315 L 2288,2324 L 2287,2324 L 2281,2330 L 2280,2330 L 2276,2334 L 2275,2334 L 2271,2338 L 2270,2338 L 2267,2341 L 2266,2341 L 2263,2344 L 2262,2344 L 2260,2346 L 2259,2346 L 2257,2348 L 2256,2348 L 2253,2351 L 2252,2351 L 2250,2353 L 2249,2353 L 2248,2354 L 2247,2354 L 2245,2356 L 2244,2356 L 2242,2358 L 2241,2358 L 2239,2360 L 2238,2360 L 2237,2361 L 2236,2361 L 2234,2363 L 2233,2363 L 2231,2365 L 2230,2365 L 2229,2366 L 2228,2366 L 2227,2367 L 2226,2367 L 2225,2368 L 2224,2368 L 2222,2370 L 2221,2370 L 2220,2371 L 2219,2371 L 2218,2372 L 2217,2372 L 2216,2373 L 2215,2373 L 2214,2374 L 2213,2374 L 2212,2375 L 2211,2375 L 2210,2376 L 2209,2376 L 2208,2377 L 2207,2377 L 2206,2378 L 2205,2378 L 2204,2379 L 2203,2379 L 2202,2380 L 2201,2380 L 2200,2381 L 2199,2381 L 2198,2382 L 2196,2382 L 2195,2383 L 2194,2383 L 2193,2384 L 2192,2384 L 2191,2385 L 2189,2385 L 2188,2386 L 2187,2386 L 2186,2387 L 2184,2387 L 2183,2388 L 2182,2388 L 2181,2389 L 2180,2389 L 2179,2390 L 2177,2390 L 2176,2391 L 2174,2391 L 2173,2392 L 2171,2392 L 2170,2393 L 2168,2393 L 2167,2394 L 2166,2394 L 2165,2395 L 2163,2395 L 2162,2396 L 2160,2396 L 2159,2397 L 2157,2397 L 2156,2398 L 2153,2398 L 2152,2399 L 2150,2399 L 2149,2400 L 2146,2400 L 2145,2401 L 2143,2401 L 2142,2402 L 2139,2402 L 2138,2403 L 2135,2403 L 2134,2404 L 2131,2404 L 2130,2405 L 2126,2405 L 2125,2406 L 2122,2406 L 2121,2407 L 2116,2407 L 2115,2408 L 2111,2408 L 2110,2409 L 2105,2409 L 2104,2410 L 2098,2410 L 2097,2411 L 2090,2411 L 2089,2412 L 2080,2412 L 2079,2413 L 2067,2413 L 2066,2414 L 2028,2414 L 2027,2413 L 2014,2413 L 2013,2412 L 2004,2412 L 2003,2411 L 1997,2411 L 1996,2410 L 1990,2410 L 1989,2409 L 1984,2409 L 1983,2408 L 1979,2408 L 1978,2407 L 1974,2407 L 1973,2406 L 1970,2406 L 1969,2405 L 1965,2405 L 1964,2404 L 1961,2404 L 1960,2403 L 1957,2403 L 1956,2402 L 1954,2402 L 1953,2401 L 1950,2401 L 1949,2400 L 1946,2400 L 1945,2399 L 1943,2399 L 1942,2398 L 1940,2398 L 1939,2397 L 1937,2397 L 1936,2396 L 1934,2396 L 1933,2395 L 1931,2395 L 1930,2394 L 1928,2394 L 1927,2393 L 1925,2393 L 1924,2392 L 1922,2392 L 1921,2391 L 1920,2391 L 1919,2390 L 1917,2390 L 1916,2389 L 1914,2389 L 1913,2388 L 1912,2388 L 1911,2387 L 1909,2387 L 1908,2386 L 1907,2386 L 1906,2385 L 1905,2385 L 1904,2384 L 1902,2384 L 1901,2383 L 1900,2383 L 1899,2382 L 1898,2382 L 1897,2381 L 1896,2381 L 1895,2380 L 1894,2380 L 1893,2379 L 1891,2379 L 1890,2378 L 1889,2378 L 1888,2377 L 1887,2377 L 1886,2376 L 1885,2376 L 1884,2375 L 1883,2375 L 1882,2374 L 1881,2374 L 1880,2373 L 1879,2373 L 1877,2371 L 1876,2371 L 1875,2370 L 1874,2370 L 1873,2369 L 1872,2369 L 1871,2368 L 1870,2368 L 1869,2367 L 1868,2367 L 1866,2365 L 1865,2365 L 1864,2364 L 1863,2364 L 1861,2362 L 1860,2362 L 1859,2361 L 1858,2361 L 1857,2360 L 1856,2360 L 1854,2358 L 1853,2358 L 1851,2356 L 1850,2356 L 1848,2354 L 1847,2354 L 1845,2352 L 1844,2352 L 1842,2350 L 1841,2350 L 1839,2348 L 1838,2348 L 1835,2345 L 1834,2345 L 1832,2343 L 1831,2343 L 1828,2340 L 1827,2340 L 1823,2336 L 1822,2336 L 1819,2333 L 1818,2333 L 1814,2329 L 1813,2329 L 1807,2323 L 1806,2323 L 1797,2314 L 1796,2314 L 1791,2309 L 1791,2308 L 1790,2308 L 1787,2305 L 1787,2304 L 1786,2304 L 1785,2303 L 1785,2302 L 1784,2302 L 1783,2301 L 1783,2300 L 1772,2289 L 1772,2288 L 1766,2282 L 1766,2281 L 1762,2277 L 1762,2276 L 1759,2273 L 1759,2272 L 1755,2268 L 1755,2267 L 1752,2264 L 1752,2263 L 1750,2261 L 1750,2260 L 1747,2257 L 1747,2256 L 1745,2254 L 1745,2253 L 1743,2251 L 1743,2250 L 1740,2247 L 1740,2246 L 1739,2245 L 1739,2244 L 1737,2242 L 1737,2241 L 1735,2239 L 1735,2238 L 1734,2237 L 1734,2236 L 1733,2235 L 1733,2234 L 1731,2232 L 1731,2231 L 1730,2230 L 1730,2229 L 1728,2227 L 1728,2226 L 1727,2225 L 1727,2224 L 1726,2223 L 1726,2222 L 1725,2221 L 1725,2220 L 1723,2218 L 1723,2217 L 1722,2216 L 1722,2215 L 1721,2214 L 1721,2213 L 1720,2212 L 1720,2211 L 1719,2210 L 1719,2209 L 1718,2208 L 1718,2207 L 1717,2206 L 1717,2204 L 1716,2203 L 1716,2202 L 1715,2201 L 1715,2200 L 1714,2199 L 1714,2198 L 1713,2197 L 1713,2196 L 1712,2195 L 1712,2194 L 1711,2193 L 1711,2192 L 1710,2191 L 1710,2189 L 1709,2188 L 1709,2187 L 1708,2186 L 1708,2184 L 1707,2183 L 1707,2182 L 1706,2181 L 1706,2179 L 1705,2178 L 1705,2177 L 1704,2176 L 1704,2174 L 1703,2173 L 1703,2172 L 1702,2171 L 1702,2168 L 1701,2167 L 1701,2166 L 1700,2165 L 1700,2163 L 1699,2162 L 1699,2160 L 1698,2159 L 1698,2157 L 1697,2156 L 1697,2154 L 1696,2153 L 1696,2150 L 1695,2149 L 1695,2146 L 1694,2145 L 1694,2143 L 1693,2142 L 1693,2139 L 1692,2138 L 1692,2135 L 1691,2134 L 1691,2131 L 1690,2130 L 1690,2127 L 1689,2126 L 1689,2122 L 1688,2121 L 1688,2117 L 1687,2116 L 1687,2112 L 1686,2111 L 1686,2106 L 1685,2105 L 1685,2100 L 1684,2099 L 1684,2093 L 1683,2092 L 1683,2084 L 1682,2083 L 1682,2072 L 1681,2071 L 1681,2023 L 1682,2022 L 1682,2012 L 1683,2011 L 1683,2004 L 1684,2003 L 1684,1996 L 1685,1995 L 1685,1990 L 1686,1989 L 1686,1984 L 1687,1983 L 1687,1979 L 1688,1978 L 1688,1974 L 1689,1973 L 1689,1970 L 1690,1969 L 1690,1965 L 1691,1964 L 1691,1961 L 1692,1960 L 1692,1957 L 1693,1956 L 1693,1953 L 1694,1952 L 1694,1950 L 1695,1949 L 1695,1946 L 1696,1945 L 1696,1943 L 1697,1942 L 1697,1940 L 1698,1939 L 1698,1936 L 1699,1935 L 1699,1934 L 1700,1933 L 1700,1930 L 1701,1929 L 1701,1928 L 1702,1927 L 1702,1925 L 1703,1924 L 1703,1922 L 1704,1921 L 1704,1920 L 1705,1919 L 1705,1917 L 1706,1916 L 1706,1914 L 1707,1913 L 1707,1912 L 1708,1911 L 1708,1909 L 1709,1908 L 1709,1907 L 1710,1906 L 1710,1904 L 1711,1903 L 1711,1902 L 1712,1901 L 1712,1900 L 1713,1899 L 1713,1898 L 1714,1897 L 1714,1895 L 1715,1894 L 1715,1893 L 1716,1892 L 1716,1891 L 1717,1890 L 1717,1889 L 1718,1888 L 1718,1887 L 1719,1886 L 1719,1885 L 1720,1884 L 1720,1883 L 1721,1882 L 1721,1881 L 1722,1880 L 1722,1879 L 1723,1878 L 1723,1877 L 1724,1876 L 1724,1875 L 1726,1873 L 1726,1872 L 1727,1871 L 1727,1870 L 1728,1869 L 1728,1868 L 1730,1866 L 1730,1865 L 1731,1864 L 1731,1863 L 1732,1862 L 1732,1861 L 1734,1859 L 1734,1858 L 1735,1857 L 1735,1856 L 1737,1854 L 1737,1853 L 1739,1851 L 1739,1850 L 1740,1849 L 1740,1848 L 1742,1846 L 1742,1845 L 1744,1843 L 1744,1842 L 1746,1840 L 1746,1839 L 1748,1837 L 1748,1836 L 1751,1833 L 1751,1832 L 1753,1830 L 1753,1829 L 1755,1827 L 1755,1826 L 1759,1822 L 1759,1821 L 1763,1817 L 1763,1816 L 1767,1812 L 1767,1811 L 1775,1803 L 1775,1802 L 1800,1777 L 1801,1777 L 1809,1769 L 1810,1769 L 1816,1763 L 1817,1763 L 1821,1759 L 1822,1759 L 1825,1756 L 1826,1756 L 1829,1753 L 1830,1753 L 1833,1750 L 1834,1750 L 1836,1748 L 1837,1748 L 1840,1745 L 1841,1745 L 1843,1743 L 1844,1743 L 1846,1741 L 1847,1741 L 1849,1739 L 1850,1739 L 1852,1737 L 1853,1737 L 1854,1736 L 1855,1736 L 1857,1734 L 1858,1734 L 1859,1733 L 1860,1733 L 1862,1731 L 1863,1731 L 1864,1730 L 1865,1730 L 1866,1729 L 1867,1729 L 1869,1727 L 1870,1727 L 1871,1726 L 1872,1726 L 1873,1725 L 1874,1725 L 1875,1724 L 1876,1724 L 1877,1723 L 1878,1723 L 1879,1722 L 1880,1722 L 1882,1720 L 1883,1720 L 1884,1719 L 1886,1719 L 1887,1718 L 1888,1718 L 1889,1717 L 1890,1717 L 1891,1716 L 1892,1716 L 1893,1715 L 1894,1715 L 1895,1714 L 1896,1714 L 1897,1713 L 1899,1713 L 1900,1712 L 1901,1712 L 1902,1711 L 1903,1711 L 1904,1710 L 1906,1710 L 1907,1709 L 1908,1709 L 1909,1708 L 1911,1708 L 1912,1707 L 1913,1707 L 1914,1706 L 1916,1706 L 1917,1705 L 1919,1705 L 1920,1704 L 1921,1704 L 1922,1703 L 1924,1703 L 1925,1702 L 1927,1702 L 1928,1701 L 1930,1701 L 1931,1700 L 1933,1700 L 1934,1699 L 1935,1699 L 1936,1698 L 1938,1698 L 1939,1697 L 1942,1697 L 1943,1696 L 1945,1696 L 1946,1695 L 1948,1695 L 1949,1694 L 1952,1694 L 1953,1693 L 1956,1693 L 1957,1692 L 1959,1692 L 1960,1691 L 1964,1691 L 1965,1690 L 1968,1690 L 1969,1689 L 1972,1689 L 1973,1688 L 1977,1688 L 1978,1687 L 1983,1687 L 1984,1686 L 1988,1686 L 1989,1685 L 1995,1685 L 1996,1684 L 2002,1684 L 2003,1683 L 2011,1683 L 2012,1682 Z M 3061,1457 L 3062,1458 L 3062,2304 L 3061,2305 L 3052,2305 L 3051,2306 L 3032,2306 L 3031,2307 L 3011,2307 L 3010,2308 L 2989,2308 L 2988,2309 L 2968,2309 L 2967,2310 L 2948,2310 L 2947,2311 L 2926,2311 L 2925,2312 L 2903,2312 L 2902,2313 L 2880,2313 L 2879,2314 L 2858,2314 L 2857,2315 L 2836,2315 L 2835,2316 L 2814,2316 L 2813,2317 L 2792,2317 L 2791,2318 L 2770,2318 L 2769,2319 L 2748,2319 L 2747,2320 L 2723,2320 L 2722,2321 L 2699,2321 L 2698,2322 L 2675,2322 L 2674,2323 L 2652,2323 L 2651,2324 L 2629,2324 L 2628,2325 L 2606,2325 L 2605,2326 L 2581,2326 L 2580,2327 L 2555,2327 L 2554,2328 L 2528,2328 L 2527,2329 L 2500,2329 L 2499,2330 L 2472,2330 L 2471,2331 L 2444,2331 L 2443,2332 L 2412,2332 L 2411,2333 L 2396,2333 L 2395,2332 L 2395,2331 L 2399,2327 L 2399,2326 L 2404,2321 L 2404,2320 L 2407,2317 L 2407,2316 L 2411,2312 L 2411,2311 L 2415,2307 L 2415,2306 L 2418,2303 L 2418,2302 L 2422,2298 L 2422,2297 L 2426,2293 L 2426,2292 L 2430,2288 L 2430,2287 L 2433,2284 L 2433,2283 L 2437,2279 L 2437,2278 L 2441,2274 L 2441,2273 L 2444,2270 L 2444,2269 L 2447,2266 L 2447,2265 L 2450,2262 L 2450,2261 L 2453,2258 L 2453,2257 L 2456,2254 L 2456,2253 L 2459,2250 L 2459,2249 L 2462,2246 L 2462,2245 L 2464,2243 L 2464,2242 L 2468,2238 L 2468,2237 L 2470,2235 L 2470,2234 L 2473,2231 L 2473,2230 L 2476,2227 L 2476,2226 L 2479,2223 L 2479,2222 L 2482,2219 L 2482,2218 L 2485,2215 L 2485,2214 L 2487,2212 L 2487,2211 L 2490,2208 L 2490,2207 L 2493,2204 L 2493,2203 L 2495,2201 L 2495,2200 L 2498,2197 L 2498,2196 L 2501,2193 L 2501,2192 L 2503,2190 L 2503,2189 L 2506,2186 L 2506,2185 L 2509,2182 L 2509,2181 L 2511,2179 L 2511,2178 L 2514,2175 L 2514,2174 L 2517,2171 L 2517,2170 L 2520,2167 L 2520,2166 L 2522,2164 L 2522,2163 L 2524,2161 L 2524,2160 L 2527,2157 L 2527,2156 L 2530,2153 L 2530,2152 L 2533,2149 L 2533,2148 L 2535,2146 L 2535,2145 L 2538,2142 L 2538,2141 L 2540,2139 L 2540,2138 L 2543,2135 L 2543,2134 L 2546,2131 L 2546,2130 L 2548,2128 L 2548,2127 L 2551,2124 L 2551,2123 L 2554,2120 L 2554,2119 L 2557,2116 L 2557,2115 L 2559,2113 L 2559,2112 L 2562,2109 L 2562,2108 L 2565,2105 L 2565,2104 L 2568,2101 L 2568,2100 L 2570,2098 L 2570,2097 L 2573,2094 L 2573,2093 L 2576,2090 L 2576,2089 L 2579,2086 L 2579,2085 L 2581,2083 L 2581,2082 L 2584,2079 L 2584,2078 L 2587,2075 L 2587,2074 L 2590,2071 L 2590,2070 L 2592,2068 L 2592,2067 L 2595,2064 L 2595,2063 L 2598,2060 L 2598,2059 L 2600,2057 L 2600,2056 L 2603,2053 L 2603,2052 L 2606,2049 L 2606,2048 L 2608,2046 L 2608,2045 L 2611,2042 L 2611,2041 L 2614,2038 L 2614,2037 L 2616,2035 L 2616,2034 L 2619,2031 L 2619,2030 L 2622,2027 L 2622,2026 L 2624,2024 L 2624,2023 L 2627,2020 L 2627,2019 L 2630,2016 L 2630,2015 L 2632,2013 L 2632,2012 L 2635,2009 L 2635,2008 L 2638,2005 L 2638,2004 L 2640,2002 L 2640,2001 L 2643,1998 L 2643,1997 L 2645,1995 L 2645,1994 L 2647,1992 L 2647,1991 L 2650,1988 L 2650,1987 L 2652,1985 L 2652,1984 L 2655,1981 L 2655,1980 L 2658,1977 L 2658,1976 L 2660,1974 L 2660,1973 L 2662,1971 L 2662,1970 L 2665,1967 L 2665,1966 L 2667,1964 L 2667,1963 L 2669,1961 L 2669,1960 L 2671,1958 L 2671,1957 L 2674,1954 L 2674,1953 L 2676,1951 L 2676,1950 L 2679,1947 L 2679,1946 L 2682,1943 L 2682,1942 L 2684,1940 L 2684,1939 L 2686,1937 L 2686,1936 L 2688,1934 L 2688,1933 L 2691,1930 L 2691,1929 L 2693,1927 L 2693,1926 L 2696,1923 L 2696,1922 L 2698,1920 L 2698,1919 L 2700,1917 L 2700,1916 L 2703,1913 L 2703,1912 L 2705,1910 L 2705,1909 L 2708,1906 L 2708,1905 L 2710,1903 L 2710,1902 L 2713,1899 L 2713,1898 L 2715,1896 L 2715,1895 L 2717,1893 L 2717,1892 L 2720,1889 L 2720,1888 L 2722,1886 L 2722,1885 L 2725,1882 L 2725,1881 L 2727,1879 L 2727,1878 L 2730,1875 L 2730,1874 L 2732,1872 L 2732,1871 L 2735,1868 L 2735,1867 L 2737,1865 L 2737,1864 L 2740,1861 L 2740,1860 L 2742,1858 L 2742,1857 L 2745,1854 L 2745,1853 L 2748,1850 L 2748,1849 L 2751,1846 L 2751,1845 L 2753,1843 L 2753,1842 L 2756,1839 L 2756,1838 L 2759,1835 L 2759,1834 L 2760,1833 L 2760,1832 L 2763,1829 L 2763,1828 L 2766,1825 L 2766,1824 L 2768,1822 L 2768,1821 L 2771,1818 L 2771,1817 L 2774,1814 L 2774,1813 L 2776,1811 L 2776,1810 L 2779,1807 L 2779,1806 L 2782,1803 L 2782,1802 L 2784,1800 L 2784,1799 L 2787,1796 L 2787,1795 L 2790,1792 L 2790,1791 L 2793,1788 L 2793,1787 L 2795,1785 L 2795,1784 L 2798,1781 L 2798,1780 L 2801,1777 L 2801,1776 L 2804,1773 L 2804,1772 L 2807,1769 L 2807,1768 L 2809,1766 L 2809,1765 L 2812,1762 L 2812,1761 L 2815,1758 L 2815,1757 L 2818,1754 L 2818,1753 L 2821,1750 L 2821,1749 L 2823,1747 L 2823,1746 L 2827,1742 L 2827,1741 L 2830,1738 L 2830,1737 L 2832,1735 L 2832,1734 L 2836,1730 L 2836,1729 L 2839,1726 L 2839,1725 L 2842,1722 L 2842,1721 L 2846,1717 L 2846,1716 L 2850,1712 L 2850,1711 L 2853,1708 L 2853,1707 L 2856,1704 L 2856,1703 L 2860,1699 L 2860,1698 L 2864,1694 L 2864,1693 L 2867,1690 L 2867,1689 L 2871,1685 L 2871,1684 L 2874,1681 L 2874,1680 L 2879,1675 L 2879,1674 L 2883,1670 L 2883,1669 L 2887,1665 L 2887,1664 L 2891,1660 L 2891,1659 L 2895,1655 L 2895,1654 L 2899,1650 L 2899,1649 L 2903,1645 L 2903,1644 L 2908,1639 L 2908,1638 L 2912,1634 L 2912,1633 L 2917,1628 L 2917,1627 L 2921,1623 L 2921,1622 L 2926,1617 L 2926,1616 L 2931,1611 L 2931,1610 L 2936,1605 L 2936,1604 L 2942,1598 L 2942,1597 L 2946,1593 L 2946,1592 L 2953,1585 L 2953,1584 L 2958,1579 L 2958,1578 L 2963,1573 L 2963,1572 L 2967,1568 L 2967,1567 L 2973,1561 L 2973,1560 L 2979,1554 L 2979,1553 L 2984,1548 L 2984,1547 L 2990,1541 L 2990,1540 L 2995,1535 L 2995,1534 L 3000,1529 L 3000,1528 L 3006,1522 L 3006,1521 L 3011,1516 L 3011,1515 L 3018,1508 L 3018,1507 L 3023,1502 L 3023,1501 L 3029,1495 L 3029,1494 L 3034,1489 L 3034,1488 L 3041,1481 L 3041,1480 L 3046,1475 L 3046,1474 L 3051,1469 L 3051,1468 L 3055,1464 L 3055,1463 Z M 1389,1044 L 1390,1043 L 1392,1043 L 1400,1051 L 1401,1051 L 1411,1061 L 1412,1061 L 1421,1070 L 1422,1070 L 1433,1081 L 1434,1081 L 1435,1082 L 1435,1083 L 1436,1083 L 1448,1095 L 1449,1095 L 1457,1103 L 1458,1103 L 1468,1113 L 1469,1113 L 1478,1122 L 1479,1122 L 1489,1132 L 1490,1132 L 1499,1141 L 1500,1141 L 1510,1151 L 1511,1151 L 1521,1161 L 1522,1161 L 1523,1162 L 1523,1163 L 1524,1163 L 1532,1171 L 1533,1171 L 1545,1183 L 1546,1183 L 1556,1193 L 1557,1193 L 1566,1202 L 1567,1202 L 1578,1213 L 1579,1213 L 1589,1223 L 1590,1223 L 1602,1235 L 1603,1235 L 1612,1244 L 1613,1244 L 1622,1253 L 1623,1253 L 1624,1254 L 1624,1255 L 1625,1255 L 1633,1263 L 1634,1263 L 1644,1273 L 1645,1273 L 1655,1283 L 1656,1283 L 1666,1293 L 1667,1293 L 1675,1301 L 1676,1301 L 1686,1311 L 1687,1311 L 1697,1321 L 1698,1321 L 1706,1329 L 1707,1329 L 1716,1338 L 1717,1338 L 1728,1349 L 1729,1349 L 1739,1359 L 1740,1359 L 1749,1368 L 1750,1368 L 1758,1376 L 1759,1376 L 1766,1383 L 1767,1383 L 1779,1395 L 1780,1395 L 1789,1404 L 1790,1404 L 1800,1414 L 1801,1414 L 1809,1422 L 1810,1422 L 1820,1432 L 1821,1432 L 1833,1444 L 1834,1444 L 1845,1455 L 1846,1455 L 1856,1465 L 1857,1465 L 1869,1477 L 1870,1477 L 1871,1478 L 1871,1479 L 1872,1479 L 1881,1488 L 1882,1488 L 1894,1500 L 1895,1500 L 1896,1501 L 1896,1502 L 1897,1502 L 1908,1513 L 1909,1513 L 1921,1525 L 1922,1525 L 1933,1536 L 1934,1536 L 1945,1547 L 1946,1547 L 1958,1559 L 1959,1559 L 1971,1571 L 1972,1571 L 1987,1586 L 1988,1586 L 2004,1602 L 2003,1603 L 2000,1603 L 1999,1604 L 1984,1604 L 1983,1605 L 1971,1605 L 1970,1606 L 1960,1606 L 1959,1607 L 1949,1607 L 1948,1608 L 1938,1608 L 1937,1609 L 1928,1609 L 1927,1610 L 1918,1610 L 1917,1611 L 1908,1611 L 1907,1612 L 1899,1612 L 1898,1613 L 1890,1613 L 1889,1614 L 1880,1614 L 1879,1615 L 1872,1615 L 1871,1616 L 1862,1616 L 1861,1617 L 1854,1617 L 1853,1618 L 1844,1618 L 1843,1619 L 1836,1619 L 1835,1620 L 1826,1620 L 1825,1621 L 1817,1621 L 1816,1622 L 1808,1622 L 1807,1623 L 1800,1623 L 1799,1624 L 1790,1624 L 1789,1625 L 1781,1625 L 1780,1626 L 1772,1626 L 1771,1627 L 1764,1627 L 1763,1628 L 1756,1628 L 1755,1629 L 1747,1629 L 1746,1630 L 1739,1630 L 1738,1631 L 1732,1631 L 1731,1632 L 1723,1632 L 1722,1633 L 1715,1633 L 1714,1634 L 1707,1634 L 1706,1635 L 1700,1635 L 1699,1636 L 1692,1636 L 1691,1637 L 1683,1637 L 1682,1638 L 1676,1638 L 1675,1639 L 1668,1639 L 1667,1640 L 1660,1640 L 1659,1641 L 1652,1641 L 1651,1642 L 1645,1642 L 1644,1643 L 1637,1643 L 1636,1644 L 1629,1644 L 1628,1645 L 1621,1645 L 1620,1646 L 1613,1646 L 1612,1647 L 1606,1647 L 1605,1648 L 1598,1648 L 1597,1649 L 1589,1649 L 1588,1650 L 1582,1650 L 1581,1651 L 1575,1651 L 1574,1652 L 1567,1652 L 1566,1653 L 1560,1653 L 1559,1654 L 1552,1654 L 1551,1655 L 1544,1655 L 1543,1656 L 1536,1656 L 1535,1657 L 1529,1657 L 1528,1658 L 1521,1658 L 1520,1659 L 1514,1659 L 1513,1660 L 1506,1660 L 1505,1661 L 1499,1661 L 1498,1662 L 1491,1662 L 1490,1663 L 1484,1663 L 1483,1664 L 1477,1664 L 1476,1665 L 1469,1665 L 1468,1666 L 1462,1666 L 1461,1667 L 1455,1667 L 1454,1668 L 1447,1668 L 1446,1669 L 1439,1669 L 1438,1670 L 1432,1670 L 1431,1671 L 1424,1671 L 1423,1672 L 1416,1672 L 1415,1673 L 1408,1673 L 1407,1674 L 1400,1674 L 1399,1675 L 1392,1675 L 1391,1676 L 1383,1676 L 1382,1677 L 1373,1677 L 1372,1678 L 1364,1678 L 1363,1679 L 1354,1679 L 1353,1680 L 1343,1680 L 1342,1681 L 1331,1681 L 1330,1682 L 1320,1682 L 1319,1683 L 1307,1683 L 1306,1684 L 1295,1684 L 1294,1685 L 1283,1685 L 1282,1686 L 1270,1686 L 1269,1687 L 1258,1687 L 1257,1688 L 1245,1688 L 1244,1689 L 1232,1689 L 1231,1690 L 1219,1690 L 1218,1691 L 1205,1691 L 1204,1692 L 1192,1692 L 1191,1693 L 1179,1693 L 1178,1694 L 1166,1694 L 1165,1695 L 1153,1695 L 1152,1696 L 1141,1696 L 1140,1697 L 1128,1697 L 1127,1698 L 1115,1698 L 1114,1699 L 1104,1699 L 1103,1700 L 1090,1700 L 1089,1701 L 1077,1701 L 1076,1702 L 1065,1702 L 1064,1703 L 1054,1703 L 1053,1704 L 1043,1704 L 1042,1705 L 1034,1705 L 1033,1704 L 1033,1471 L 1034,1470 L 1034,1453 L 1035,1452 L 1035,1440 L 1036,1439 L 1036,1429 L 1037,1428 L 1037,1421 L 1038,1420 L 1038,1414 L 1039,1413 L 1039,1407 L 1040,1406 L 1040,1402 L 1041,1401 L 1041,1396 L 1042,1395 L 1042,1391 L 1043,1390 L 1043,1386 L 1044,1385 L 1044,1382 L 1045,1381 L 1045,1378 L 1046,1377 L 1046,1374 L 1047,1373 L 1047,1370 L 1048,1369 L 1048,1366 L 1049,1365 L 1049,1363 L 1050,1362 L 1050,1360 L 1051,1359 L 1051,1356 L 1052,1355 L 1052,1353 L 1053,1352 L 1053,1350 L 1054,1349 L 1054,1346 L 1055,1345 L 1055,1344 L 1056,1343 L 1056,1341 L 1057,1340 L 1057,1338 L 1058,1337 L 1058,1334 L 1059,1333 L 1059,1332 L 1060,1331 L 1060,1329 L 1061,1328 L 1061,1327 L 1062,1326 L 1062,1324 L 1063,1323 L 1063,1321 L 1064,1320 L 1064,1319 L 1065,1318 L 1065,1316 L 1066,1315 L 1066,1314 L 1067,1313 L 1067,1312 L 1068,1311 L 1068,1309 L 1069,1308 L 1069,1306 L 1070,1305 L 1070,1304 L 1071,1303 L 1071,1302 L 1072,1301 L 1072,1300 L 1073,1299 L 1073,1298 L 1074,1297 L 1074,1295 L 1075,1294 L 1075,1293 L 1076,1292 L 1076,1291 L 1077,1290 L 1077,1289 L 1078,1288 L 1078,1287 L 1079,1286 L 1079,1285 L 1080,1284 L 1080,1283 L 1081,1282 L 1081,1281 L 1082,1280 L 1082,1279 L 1084,1277 L 1084,1276 L 1085,1275 L 1085,1274 L 1086,1273 L 1086,1272 L 1087,1271 L 1087,1270 L 1088,1269 L 1088,1268 L 1089,1267 L 1089,1266 L 1090,1265 L 1090,1264 L 1092,1262 L 1092,1261 L 1093,1260 L 1093,1259 L 1095,1257 L 1095,1256 L 1096,1255 L 1096,1254 L 1098,1252 L 1098,1251 L 1099,1250 L 1099,1249 L 1101,1247 L 1101,1246 L 1103,1244 L 1103,1243 L 1104,1242 L 1104,1241 L 1106,1239 L 1106,1238 L 1108,1236 L 1108,1235 L 1110,1233 L 1110,1232 L 1112,1230 L 1112,1229 L 1115,1226 L 1115,1225 L 1117,1223 L 1117,1222 L 1119,1220 L 1119,1219 L 1122,1216 L 1122,1215 L 1125,1212 L 1125,1211 L 1127,1209 L 1127,1208 L 1131,1204 L 1131,1203 L 1135,1199 L 1135,1198 L 1139,1194 L 1139,1193 L 1146,1186 L 1146,1185 L 1159,1172 L 1159,1171 L 1160,1170 L 1161,1170 L 1161,1169 L 1163,1167 L 1164,1167 L 1165,1166 L 1165,1165 L 1166,1164 L 1167,1164 L 1167,1163 L 1171,1159 L 1172,1159 L 1187,1144 L 1188,1144 L 1195,1137 L 1196,1137 L 1201,1132 L 1202,1132 L 1206,1128 L 1207,1128 L 1210,1125 L 1211,1125 L 1214,1122 L 1215,1122 L 1218,1119 L 1219,1119 L 1222,1116 L 1223,1116 L 1225,1114 L 1226,1114 L 1229,1111 L 1230,1111 L 1232,1109 L 1233,1109 L 1235,1107 L 1236,1107 L 1238,1105 L 1239,1105 L 1241,1103 L 1242,1103 L 1243,1102 L 1244,1102 L 1246,1100 L 1247,1100 L 1249,1098 L 1250,1098 L 1251,1097 L 1252,1097 L 1254,1095 L 1255,1095 L 1256,1094 L 1257,1094 L 1258,1093 L 1259,1093 L 1261,1091 L 1262,1091 L 1263,1090 L 1264,1090 L 1265,1089 L 1266,1089 L 1268,1087 L 1269,1087 L 1270,1086 L 1271,1086 L 1272,1085 L 1273,1085 L 1274,1084 L 1275,1084 L 1276,1083 L 1277,1083 L 1278,1082 L 1279,1082 L 1280,1081 L 1281,1081 L 1282,1080 L 1283,1080 L 1284,1079 L 1285,1079 L 1286,1078 L 1287,1078 L 1288,1077 L 1289,1077 L 1290,1076 L 1291,1076 L 1292,1075 L 1293,1075 L 1294,1074 L 1295,1074 L 1296,1073 L 1298,1073 L 1299,1072 L 1300,1072 L 1301,1071 L 1303,1071 L 1304,1070 L 1305,1070 L 1306,1069 L 1307,1069 L 1308,1068 L 1309,1068 L 1310,1067 L 1312,1067 L 1313,1066 L 1314,1066 L 1315,1065 L 1317,1065 L 1318,1064 L 1319,1064 L 1320,1063 L 1322,1063 L 1323,1062 L 1325,1062 L 1326,1061 L 1328,1061 L 1329,1060 L 1331,1060 L 1332,1059 L 1333,1059 L 1334,1058 L 1337,1058 L 1338,1057 L 1340,1057 L 1341,1056 L 1343,1056 L 1344,1055 L 1346,1055 L 1347,1054 L 1349,1054 L 1350,1053 L 1353,1053 L 1354,1052 L 1356,1052 L 1357,1051 L 1360,1051 L 1361,1050 L 1364,1050 L 1365,1049 L 1367,1049 L 1368,1048 L 1371,1048 L 1372,1047 L 1376,1047 L 1377,1046 L 1380,1046 L 1381,1045 L 1385,1045 L 1386,1044 Z M 2367,1034 L 2368,1033 L 2639,1033 L 2640,1034 L 2651,1034 L 2652,1035 L 2662,1035 L 2663,1036 L 2669,1036 L 2670,1037 L 2676,1037 L 2677,1038 L 2683,1038 L 2684,1039 L 2690,1039 L 2691,1040 L 2695,1040 L 2696,1041 L 2701,1041 L 2702,1042 L 2705,1042 L 2706,1043 L 2710,1043 L 2711,1044 L 2714,1044 L 2715,1045 L 2718,1045 L 2719,1046 L 2722,1046 L 2723,1047 L 2726,1047 L 2727,1048 L 2730,1048 L 2731,1049 L 2733,1049 L 2734,1050 L 2736,1050 L 2737,1051 L 2740,1051 L 2741,1052 L 2743,1052 L 2744,1053 L 2746,1053 L 2747,1054 L 2749,1054 L 2750,1055 L 2752,1055 L 2753,1056 L 2755,1056 L 2756,1057 L 2759,1057 L 2760,1058 L 2761,1058 L 2762,1059 L 2764,1059 L 2765,1060 L 2767,1060 L 2768,1061 L 2770,1061 L 2771,1062 L 2773,1062 L 2774,1063 L 2775,1063 L 2776,1064 L 2778,1064 L 2779,1065 L 2781,1065 L 2782,1066 L 2783,1066 L 2784,1067 L 2786,1067 L 2787,1068 L 2788,1068 L 2789,1069 L 2790,1069 L 2791,1070 L 2793,1070 L 2794,1071 L 2795,1071 L 2796,1072 L 2798,1072 L 2799,1073 L 2800,1073 L 2801,1074 L 2802,1074 L 2803,1075 L 2804,1075 L 2805,1076 L 2806,1076 L 2807,1077 L 2808,1077 L 2809,1078 L 2810,1078 L 2811,1079 L 2812,1079 L 2813,1080 L 2815,1080 L 2817,1082 L 2818,1082 L 2819,1083 L 2820,1083 L 2821,1084 L 2822,1084 L 2823,1085 L 2824,1085 L 2825,1086 L 2826,1086 L 2827,1087 L 2828,1087 L 2830,1089 L 2831,1089 L 2832,1090 L 2833,1090 L 2834,1091 L 2835,1091 L 2837,1093 L 2838,1093 L 2839,1094 L 2840,1094 L 2841,1095 L 2842,1095 L 2844,1097 L 2845,1097 L 2847,1099 L 2848,1099 L 2850,1101 L 2851,1101 L 2852,1102 L 2853,1102 L 2855,1104 L 2856,1104 L 2858,1106 L 2859,1106 L 2861,1108 L 2862,1108 L 2864,1110 L 2865,1110 L 2868,1113 L 2869,1113 L 2871,1115 L 2872,1115 L 2875,1118 L 2876,1118 L 2878,1120 L 2879,1120 L 2882,1123 L 2883,1123 L 2886,1126 L 2887,1126 L 2891,1130 L 2892,1130 L 2896,1134 L 2897,1134 L 2901,1138 L 2902,1138 L 2908,1144 L 2909,1144 L 2949,1184 L 2949,1185 L 2956,1192 L 2956,1193 L 2960,1197 L 2960,1198 L 2964,1202 L 2964,1203 L 2967,1206 L 2967,1207 L 2970,1210 L 2970,1211 L 2973,1214 L 2973,1215 L 2976,1218 L 2976,1219 L 2978,1221 L 2978,1222 L 2981,1225 L 2981,1226 L 2983,1228 L 2983,1229 L 2985,1231 L 2985,1232 L 2988,1235 L 2988,1236 L 2990,1238 L 2990,1239 L 2991,1240 L 2991,1241 L 2993,1243 L 2993,1244 L 2995,1246 L 2995,1247 L 2997,1249 L 2997,1250 L 2998,1251 L 2998,1252 L 3000,1254 L 3000,1255 L 3001,1256 L 3001,1257 L 3002,1258 L 3002,1259 L 3004,1261 L 3004,1262 L 3005,1263 L 3005,1264 L 3007,1266 L 3007,1267 L 3008,1268 L 3008,1269 L 3009,1270 L 3009,1271 L 3010,1272 L 3010,1273 L 3011,1274 L 3011,1275 L 3012,1276 L 3012,1277 L 3013,1278 L 3013,1279 L 3014,1280 L 3014,1281 L 3015,1282 L 3015,1283 L 3016,1284 L 3016,1285 L 3017,1286 L 3017,1287 L 3018,1288 L 3018,1289 L 3019,1290 L 3019,1291 L 3020,1292 L 3020,1293 L 3021,1294 L 3021,1296 L 3022,1297 L 3022,1298 L 3023,1299 L 3023,1300 L 3024,1301 L 3024,1303 L 3025,1304 L 3025,1305 L 3026,1306 L 3026,1308 L 3027,1309 L 3027,1310 L 3028,1311 L 3028,1313 L 3029,1314 L 3029,1315 L 3030,1316 L 3030,1318 L 3031,1319 L 3031,1321 L 3032,1322 L 3032,1323 L 3033,1324 L 3033,1326 L 3034,1327 L 3034,1329 L 3035,1330 L 3035,1333 L 3036,1334 L 3036,1335 L 3037,1336 L 3037,1339 L 3038,1340 L 3038,1343 L 3039,1344 L 3039,1346 L 3040,1347 L 3040,1352 L 3036,1356 L 3036,1357 L 3028,1365 L 3028,1366 L 3021,1373 L 3021,1374 L 3012,1383 L 3012,1384 L 3004,1392 L 3004,1393 L 3000,1397 L 3000,1398 L 2994,1404 L 2994,1405 L 2988,1411 L 2988,1412 L 2982,1418 L 2982,1419 L 2976,1425 L 2976,1426 L 2970,1432 L 2970,1433 L 2963,1440 L 2963,1441 L 2957,1447 L 2957,1448 L 2952,1453 L 2952,1454 L 2945,1461 L 2945,1462 L 2940,1467 L 2940,1468 L 2931,1477 L 2931,1478 L 2925,1484 L 2925,1485 L 2918,1492 L 2918,1493 L 2912,1499 L 2912,1500 L 2905,1507 L 2905,1508 L 2898,1515 L 2898,1516 L 2892,1522 L 2892,1523 L 2886,1529 L 2886,1530 L 2880,1536 L 2880,1537 L 2873,1544 L 2873,1545 L 2868,1550 L 2868,1551 L 2861,1558 L 2861,1559 L 2854,1566 L 2854,1567 L 2849,1572 L 2849,1573 L 2843,1579 L 2843,1580 L 2836,1587 L 2836,1588 L 2830,1594 L 2830,1595 L 2824,1601 L 2824,1602 L 2818,1608 L 2818,1609 L 2813,1614 L 2813,1615 L 2806,1622 L 2806,1623 L 2800,1629 L 2800,1630 L 2793,1637 L 2793,1638 L 2787,1644 L 2787,1645 L 2781,1651 L 2781,1652 L 2775,1658 L 2775,1659 L 2768,1666 L 2768,1667 L 2761,1674 L 2761,1675 L 2755,1681 L 2755,1682 L 2748,1689 L 2748,1690 L 2741,1697 L 2741,1698 L 2736,1703 L 2736,1704 L 2728,1712 L 2728,1713 L 2723,1718 L 2723,1719 L 2717,1725 L 2717,1726 L 2712,1731 L 2712,1732 L 2706,1738 L 2706,1739 L 2699,1746 L 2699,1747 L 2693,1753 L 2693,1754 L 2688,1759 L 2688,1760 L 2680,1768 L 2680,1769 L 2675,1774 L 2675,1775 L 2669,1781 L 2669,1782 L 2663,1788 L 2663,1789 L 2656,1796 L 2656,1797 L 2651,1802 L 2651,1803 L 2644,1810 L 2644,1811 L 2638,1817 L 2638,1818 L 2632,1824 L 2632,1825 L 2626,1831 L 2626,1832 L 2620,1838 L 2620,1839 L 2614,1845 L 2614,1846 L 2608,1852 L 2608,1853 L 2602,1859 L 2602,1860 L 2596,1866 L 2596,1867 L 2590,1873 L 2590,1874 L 2584,1880 L 2584,1881 L 2577,1888 L 2577,1889 L 2572,1894 L 2572,1895 L 2566,1901 L 2566,1902 L 2560,1908 L 2560,1909 L 2554,1915 L 2554,1916 L 2548,1922 L 2548,1923 L 2542,1929 L 2542,1930 L 2536,1936 L 2536,1937 L 2529,1944 L 2529,1945 L 2524,1950 L 2524,1951 L 2518,1957 L 2518,1958 L 2512,1964 L 2512,1965 L 2506,1971 L 2506,1972 L 2500,1978 L 2500,1979 L 2495,1984 L 2495,1985 L 2494,1986 L 2493,1986 L 2492,1985 L 2492,1979 L 2491,1978 L 2491,1965 L 2490,1964 L 2490,1955 L 2489,1954 L 2489,1945 L 2488,1944 L 2488,1936 L 2487,1935 L 2487,1928 L 2486,1927 L 2486,1920 L 2485,1919 L 2485,1913 L 2484,1912 L 2484,1906 L 2483,1905 L 2483,1899 L 2482,1898 L 2482,1891 L 2481,1890 L 2481,1885 L 2480,1884 L 2480,1877 L 2479,1876 L 2479,1870 L 2478,1869 L 2478,1863 L 2477,1862 L 2477,1856 L 2476,1855 L 2476,1850 L 2475,1849 L 2475,1843 L 2474,1842 L 2474,1836 L 2473,1835 L 2473,1830 L 2472,1829 L 2472,1823 L 2471,1822 L 2471,1817 L 2470,1816 L 2470,1810 L 2469,1809 L 2469,1803 L 2468,1802 L 2468,1797 L 2467,1796 L 2467,1790 L 2466,1789 L 2466,1784 L 2465,1783 L 2465,1777 L 2464,1776 L 2464,1771 L 2463,1770 L 2463,1764 L 2462,1763 L 2462,1758 L 2461,1757 L 2461,1752 L 2460,1751 L 2460,1746 L 2459,1745 L 2459,1740 L 2458,1739 L 2458,1733 L 2457,1732 L 2457,1727 L 2456,1726 L 2456,1721 L 2455,1720 L 2455,1715 L 2454,1714 L 2454,1708 L 2453,1707 L 2453,1702 L 2452,1701 L 2452,1696 L 2451,1695 L 2451,1690 L 2450,1689 L 2450,1683 L 2449,1682 L 2449,1677 L 2448,1676 L 2448,1670 L 2447,1669 L 2447,1664 L 2446,1663 L 2446,1657 L 2445,1656 L 2445,1651 L 2444,1650 L 2444,1645 L 2443,1644 L 2443,1639 L 2442,1638 L 2442,1632 L 2441,1631 L 2441,1626 L 2440,1625 L 2440,1620 L 2439,1619 L 2439,1614 L 2438,1613 L 2438,1607 L 2437,1606 L 2437,1602 L 2436,1601 L 2436,1595 L 2435,1594 L 2435,1589 L 2434,1588 L 2434,1583 L 2433,1582 L 2433,1577 L 2432,1576 L 2432,1570 L 2431,1569 L 2431,1564 L 2430,1563 L 2430,1557 L 2429,1556 L 2429,1552 L 2428,1551 L 2428,1546 L 2427,1545 L 2427,1540 L 2426,1539 L 2426,1533 L 2425,1532 L 2425,1527 L 2424,1526 L 2424,1522 L 2423,1521 L 2423,1515 L 2422,1514 L 2422,1509 L 2421,1508 L 2421,1502 L 2420,1501 L 2420,1496 L 2419,1495 L 2419,1490 L 2418,1489 L 2418,1483 L 2417,1482 L 2417,1476 L 2416,1475 L 2416,1470 L 2415,1469 L 2415,1463 L 2414,1462 L 2414,1456 L 2413,1455 L 2413,1450 L 2412,1449 L 2412,1443 L 2411,1442 L 2411,1437 L 2410,1436 L 2410,1430 L 2409,1429 L 2409,1423 L 2408,1422 L 2408,1417 L 2407,1416 L 2407,1410 L 2406,1409 L 2406,1403 L 2405,1402 L 2405,1397 L 2404,1396 L 2404,1389 L 2403,1388 L 2403,1382 L 2402,1381 L 2402,1374 L 2401,1373 L 2401,1367 L 2400,1366 L 2400,1359 L 2399,1358 L 2399,1351 L 2398,1350 L 2398,1342 L 2397,1341 L 2397,1333 L 2396,1332 L 2396,1324 L 2395,1323 L 2395,1315 L 2394,1314 L 2394,1304 L 2393,1303 L 2393,1294 L 2392,1293 L 2392,1284 L 2391,1283 L 2391,1273 L 2390,1272 L 2390,1264 L 2389,1263 L 2389,1254 L 2388,1253 L 2388,1244 L 2387,1243 L 2387,1234 L 2386,1233 L 2386,1224 L 2385,1223 L 2385,1214 L 2384,1213 L 2384,1203 L 2383,1202 L 2383,1192 L 2382,1191 L 2382,1182 L 2381,1181 L 2381,1173 L 2380,1172 L 2380,1163 L 2379,1162 L 2379,1153 L 2378,1152 L 2378,1142 L 2377,1141 L 2377,1133 L 2376,1132 L 2376,1122 L 2375,1121 L 2375,1112 L 2374,1111 L 2374,1101 L 2373,1100 L 2373,1091 L 2372,1090 L 2372,1082 L 2371,1081 L 2371,1072 L 2370,1071 L 2370,1061 L 2369,1060 L 2369,1051 L 2368,1050 L 2368,1040 L 2367,1039 Z M 1510,1034 L 1511,1033 L 2281,1033 L 2282,1034 L 2282,1041 L 2283,1042 L 2283,1053 L 2284,1054 L 2284,1067 L 2285,1068 L 2285,1081 L 2286,1082 L 2286,1095 L 2287,1096 L 2287,1109 L 2288,1110 L 2288,1122 L 2289,1123 L 2289,1135 L 2290,1136 L 2290,1149 L 2291,1150 L 2291,1163 L 2292,1164 L 2292,1178 L 2293,1179 L 2293,1191 L 2294,1192 L 2294,1205 L 2295,1206 L 2295,1217 L 2296,1218 L 2296,1231 L 2297,1232 L 2297,1244 L 2298,1245 L 2298,1257 L 2299,1258 L 2299,1271 L 2300,1272 L 2300,1283 L 2301,1284 L 2301,1297 L 2302,1298 L 2302,1309 L 2303,1310 L 2303,1323 L 2304,1324 L 2304,1336 L 2305,1337 L 2305,1349 L 2306,1350 L 2306,1361 L 2307,1362 L 2307,1375 L 2308,1376 L 2308,1388 L 2309,1389 L 2309,1402 L 2310,1403 L 2310,1417 L 2311,1418 L 2311,1431 L 2312,1432 L 2312,1445 L 2313,1446 L 2313,1460 L 2314,1461 L 2314,1475 L 2315,1476 L 2315,1489 L 2316,1490 L 2316,1503 L 2317,1504 L 2317,1519 L 2318,1520 L 2318,1535 L 2319,1536 L 2319,1550 L 2320,1551 L 2320,1567 L 2321,1568 L 2321,1581 L 2322,1582 L 2322,1599 L 2323,1600 L 2323,1612 L 2324,1613 L 2324,1625 L 2325,1626 L 2325,1638 L 2326,1639 L 2326,1652 L 2327,1653 L 2327,1663 L 2328,1664 L 2328,1677 L 2329,1678 L 2329,1689 L 2330,1690 L 2330,1695 L 2329,1696 L 2328,1696 L 2327,1695 L 2326,1695 L 2322,1691 L 2321,1691 L 2316,1686 L 2315,1686 L 2311,1682 L 2310,1682 L 2307,1679 L 2306,1679 L 2302,1675 L 2301,1675 L 2297,1671 L 2296,1671 L 2292,1667 L 2291,1667 L 2287,1663 L 2286,1663 L 2283,1660 L 2282,1660 L 2278,1656 L 2277,1656 L 2273,1652 L 2272,1652 L 2269,1649 L 2268,1649 L 2264,1645 L 2263,1645 L 2260,1642 L 2259,1642 L 2255,1638 L 2254,1638 L 2251,1635 L 2250,1635 L 2247,1632 L 2246,1632 L 2242,1628 L 2241,1628 L 2237,1624 L 2236,1624 L 2233,1621 L 2232,1621 L 2229,1618 L 2228,1618 L 2225,1615 L 2224,1615 L 2220,1611 L 2219,1611 L 2215,1607 L 2214,1607 L 2211,1604 L 2210,1604 L 2206,1600 L 2205,1600 L 2202,1597 L 2201,1597 L 2198,1594 L 2197,1594 L 2194,1591 L 2193,1591 L 2190,1588 L 2189,1588 L 2186,1585 L 2185,1585 L 2182,1582 L 2181,1582 L 2178,1579 L 2177,1579 L 2174,1576 L 2173,1576 L 2169,1572 L 2168,1572 L 2165,1569 L 2164,1569 L 2161,1566 L 2160,1566 L 2157,1563 L 2156,1563 L 2153,1560 L 2152,1560 L 2149,1557 L 2148,1557 L 2145,1554 L 2144,1554 L 2141,1551 L 2140,1551 L 2137,1548 L 2136,1548 L 2132,1544 L 2131,1544 L 2129,1542 L 2128,1542 L 2124,1538 L 2123,1538 L 2121,1536 L 2120,1536 L 2116,1532 L 2115,1532 L 2112,1529 L 2111,1529 L 2109,1527 L 2108,1527 L 2105,1524 L 2104,1524 L 2100,1520 L 2099,1520 L 2096,1517 L 2095,1517 L 2092,1514 L 2091,1514 L 2089,1512 L 2088,1512 L 2085,1509 L 2084,1509 L 2080,1505 L 2079,1505 L 2077,1503 L 2076,1503 L 2073,1500 L 2072,1500 L 2069,1497 L 2068,1497 L 2065,1494 L 2064,1494 L 2061,1491 L 2060,1491 L 2057,1488 L 2056,1488 L 2053,1485 L 2052,1485 L 2049,1482 L 2048,1482 L 2045,1479 L 2044,1479 L 2041,1476 L 2040,1476 L 2036,1472 L 2035,1472 L 2033,1470 L 2032,1470 L 2029,1467 L 2028,1467 L 2025,1464 L 2024,1464 L 2020,1460 L 2019,1460 L 2016,1457 L 2015,1457 L 2012,1454 L 2011,1454 L 2009,1452 L 2008,1452 L 2004,1448 L 2003,1448 L 2001,1446 L 2000,1446 L 1997,1443 L 1996,1443 L 1993,1440 L 1992,1440 L 1989,1437 L 1988,1437 L 1984,1433 L 1983,1433 L 1980,1430 L 1979,1430 L 1976,1427 L 1975,1427 L 1972,1424 L 1971,1424 L 1967,1420 L 1966,1420 L 1964,1418 L 1963,1418 L 1960,1415 L 1959,1415 L 1955,1411 L 1954,1411 L 1951,1408 L 1950,1408 L 1947,1405 L 1946,1405 L 1943,1402 L 1942,1402 L 1939,1399 L 1938,1399 L 1935,1396 L 1934,1396 L 1931,1393 L 1930,1393 L 1927,1390 L 1926,1390 L 1923,1387 L 1922,1387 L 1919,1384 L 1918,1384 L 1915,1381 L 1914,1381 L 1911,1378 L 1910,1378 L 1907,1375 L 1906,1375 L 1903,1372 L 1902,1372 L 1899,1369 L 1898,1369 L 1896,1367 L 1895,1367 L 1892,1364 L 1891,1364 L 1888,1361 L 1887,1361 L 1884,1358 L 1883,1358 L 1880,1355 L 1879,1355 L 1876,1352 L 1875,1352 L 1873,1350 L 1872,1350 L 1869,1347 L 1868,1347 L 1865,1344 L 1864,1344 L 1860,1340 L 1859,1340 L 1856,1337 L 1855,1337 L 1852,1334 L 1851,1334 L 1848,1331 L 1847,1331 L 1843,1327 L 1842,1327 L 1839,1324 L 1838,1324 L 1834,1320 L 1833,1320 L 1829,1316 L 1828,1316 L 1825,1313 L 1824,1313 L 1820,1309 L 1819,1309 L 1815,1305 L 1814,1305 L 1811,1302 L 1810,1302 L 1806,1298 L 1805,1298 L 1801,1294 L 1800,1294 L 1796,1290 L 1795,1290 L 1790,1285 L 1789,1285 L 1783,1279 L 1782,1279 L 1777,1274 L 1776,1274 L 1771,1269 L 1770,1269 L 1762,1261 L 1761,1261 L 1755,1255 L 1754,1255 L 1746,1247 L 1745,1247 L 1737,1239 L 1736,1239 L 1726,1229 L 1725,1229 L 1716,1220 L 1715,1220 L 1707,1212 L 1706,1212 L 1697,1203 L 1696,1203 L 1695,1202 L 1695,1201 L 1694,1201 L 1687,1194 L 1686,1194 L 1676,1184 L 1675,1184 L 1665,1174 L 1664,1174 L 1657,1167 L 1656,1167 L 1655,1166 L 1655,1165 L 1654,1165 L 1645,1156 L 1644,1156 L 1635,1147 L 1634,1147 L 1623,1136 L 1622,1136 L 1612,1126 L 1611,1126 L 1602,1117 L 1601,1117 L 1593,1109 L 1592,1109 L 1591,1108 L 1591,1107 L 1590,1107 L 1581,1098 L 1580,1098 L 1570,1088 L 1569,1088 L 1561,1080 L 1560,1080 L 1559,1079 L 1559,1078 L 1558,1078 L 1548,1068 L 1547,1068 L 1539,1060 L 1538,1060 L 1529,1051 L 1528,1051 L 1527,1050 L 1527,1049 L 1526,1049 L 1519,1042 L 1518,1042 Z" fill="black" fill-rule="evenodd" /></svg>
